<svg width="462" height="753" viewBox="0 0 462 753" fill="none" xmlns="http://www.w3.org/2000/svg">
<g opacity="0.1" filter="url(#filter0_d_88_21607)">
<path d="M-20.9438 341.081C-21.5584 341.081 -22.0822 340.948 -22.5291 340.752C-26.7055 338.911 -28.4515 329.48 -27.0826 316.13L-26.7474 313.812C-25.183 302.967 -23.5628 291.752 -20.1686 281.404C-15.9084 268.438 -9.6998 259.519 -0.627747 253.351L-0.2995 253.127L-0.11792 253.484C5.98596 265.603 6.93579 279.577 2.77338 296.197C-0.725525 310.178 -7.52777 324.061 -14.358 336.985L-14.4069 337.055C-17.1725 340.171 -19.3515 341.081 -20.9438 341.081ZM-26.3843 316.206C-27.7182 329.242 -26.1328 338.4 -22.2428 340.108C-20.2734 340.976 -17.7592 339.765 -14.9517 336.607C-8.14935 323.733 -1.375 309.912 2.10297 296.015C6.18152 279.724 5.30853 266.023 -0.557922 254.142C-9.3157 260.212 -15.3428 268.956 -19.4982 281.607C-22.8784 291.899 -24.4916 303.087 -26.049 313.903L-26.3843 316.206Z" fill="#FE6019"/>
<path d="M-28.2279 380.518L-28.3955 380.238C-43.5156 354.467 -48.6837 318.286 -41.8814 285.808C-39.6186 274.992 -36.1336 264.966 -31.5173 256.005C-20.2383 234.708 -0.543823 215.896 18.0193 221.847C26.4838 224.878 24.0813 238.341 21.9582 250.215C21.2319 254.29 20.5405 258.133 20.2681 261.508C18.5361 273.08 16.4479 284.94 14.0455 296.786L14.0385 296.828C12.1738 302.562 10.5186 308.806 8.75867 315.415C8.38855 316.802 8.01843 318.202 7.6413 319.602C0.636475 345.744 -7.35309 370.058 -27.9346 380.371L-28.2279 380.518ZM10.8608 221.427C-5.14618 221.427 -21.1672 237.956 -30.9027 256.327C-35.4842 265.225 -38.9482 275.194 -41.197 285.948C-47.9364 318.146 -42.8661 353.991 -27.9556 379.594C-7.85599 369.323 0.0358276 345.268 6.96381 319.413C7.34094 318.013 7.71112 316.612 8.08124 315.226C9.84119 308.617 11.4964 302.365 13.3611 296.618C15.7565 284.793 17.8447 272.947 19.5697 261.424C19.8491 258.042 20.5405 254.177 21.2668 250.089C23.4388 237.921 25.6876 225.34 17.7888 222.512C15.4981 221.777 13.1795 221.427 10.8608 221.427Z" fill="#FE6019"/>
<path d="M-11.9207 432.577C-13.1988 432.577 -14.5048 432.374 -15.727 431.968C-38.4246 422.552 -55.6957 402.893 -61.9532 379.363C-68.2666 353.102 -69.7891 325.714 -66.4857 297.934C-63.357 271.603 -55.968 245.44 -44.5284 220.173C-39.7026 210.001 -34.4438 200.458 -28.8846 191.819C-17.1377 174.408 3.17834 162.716 24.1509 161.288C41.2195 160.126 56.5352 166.125 67.2903 178.174C79.568 191.07 72.4514 204.694 65.5723 217.877C63.142 222.533 60.8442 226.936 59.3846 231.284C56.6749 237.676 53.7207 244.439 50.5919 251.608C49.5513 253.995 48.4897 256.418 47.4212 258.882C43.9851 266.87 40.9612 275.635 38.1676 285.689C36.9105 290.219 35.7372 294.951 34.5988 299.53C33.3836 304.424 32.1266 309.478 30.7298 314.498C23.3688 340.311 15.8262 364.534 7.83661 390.179C4.10022 402.172 0.238159 414.571 -3.57501 427.054C-3.85437 428.755 -4.88104 430.211 -6.53619 431.205C-8.0517 432.108 -9.96524 432.577 -11.9207 432.577ZM28.2784 161.848C26.9305 161.848 25.5687 161.897 24.1929 161.988C3.43683 163.395 -16.6837 174.975 -28.3049 192.204C-33.8361 200.816 -39.088 210.323 -43.8929 220.467C-67.6241 272.884 -73.6372 327.772 -61.2758 379.188C-55.0741 402.501 -37.9566 421.992 -15.4825 431.31C-12.6471 432.255 -9.19003 431.975 -6.9133 430.603C-5.4397 429.714 -4.52484 428.426 -4.26642 426.893C-0.43927 414.361 3.42285 401.962 7.15924 389.969C15.1488 364.331 22.6913 340.115 30.0453 314.309C31.4421 309.296 32.6992 304.249 33.9144 299.362C35.0528 294.783 36.2261 290.044 37.4832 285.507C40.2906 275.425 43.3287 266.625 46.7717 258.609C47.8403 256.145 48.9018 253.722 49.9424 251.335C53.0712 244.173 56.0184 237.41 58.7211 231.046C60.1877 226.67 62.4995 222.246 64.9438 217.569C71.7112 204.61 78.709 191.203 66.7736 178.664C57.024 167.736 43.4753 161.848 28.2784 161.848Z" fill="#FE6019"/>
<path d="M0.287231 470.334C-0.0828857 470.334 -0.460083 470.32 -0.8302 470.285L-0.907043 470.271C-28.5143 461.646 -51.994 442.134 -70.6829 412.289C-89.9305 381.554 -99.4564 347.235 -104.059 323.852C-110.526 291.43 -105.099 257.601 -87.4721 220.44C-80.7117 206.185 -72.0447 191.196 -60.9753 174.604C-43.1874 151.991 -24.0725 135.755 -2.52728 124.952C20.0585 113.632 46.3528 112.428 71.5297 121.571C100.031 131.912 124.111 154.28 135.949 181.402C142.758 196.566 129.23 211.086 119.348 221.679L118.021 223.1L115.605 225.508C109.801 231.284 103.795 237.263 97.796 243.592C82.6131 262.411 67.3883 283.141 58.8889 307.168C56.242 314.33 54.049 321.87 51.9189 329.166L51.1578 331.777C48.5388 343.545 44.1948 355.125 39.9905 366.334C33.9075 382.534 27.6221 399.281 26.5256 416.818L26.3719 417.959C24.8006 429.518 23.1804 441.469 19.011 452.867C13.7521 464.467 7.45966 470.334 0.287231 470.334ZM-0.73938 469.592C6.55878 470.173 12.9839 464.46 18.3685 452.6C22.5029 441.301 24.1161 429.385 25.6805 417.868L25.8342 416.748C26.9377 399.134 33.2441 382.338 39.341 366.089C43.5383 354.908 47.8754 343.35 50.4873 331.609L51.2555 328.977C53.3856 321.674 55.5855 314.12 58.2394 306.937C66.7737 282.812 82.0404 262.019 97.2722 243.151L97.2932 243.13C103.306 236.787 109.312 230.808 115.123 225.025L117.532 222.631L118.845 221.217C128.588 210.764 141.934 196.447 135.32 181.696C123.56 154.749 99.6258 132.521 71.3062 122.243C46.3179 113.17 20.2122 114.36 -2.19904 125.597C-23.6535 136.35 -42.6846 152.516 -60.3957 175.031C-71.4302 191.574 -80.0832 206.535 -86.8296 220.755C-104.394 257.776 -109.807 291.458 -103.367 323.733C-96.195 360.173 -71.8282 447.35 -0.73938 469.592Z" fill="#FE6019"/>
<path d="M-2.63202 496.469C-5.24396 496.469 -7.87695 496.238 -10.5099 495.776C-20.3152 494.054 -29.1847 489.258 -36.1546 481.9C-69.8379 448.106 -92.8986 417.28 -108.703 384.893C-114.674 373.216 -121.365 361.769 -127.846 350.701C-139.076 331.511 -150.683 311.663 -158.617 290.296C-159.923 286.963 -161.368 283.498 -162.772 280.137C-170.846 260.814 -179.184 240.84 -171.865 222.827C-168.283 214.111 -159.574 211.709 -150.348 209.161C-145.382 207.789 -140.249 206.374 -135.849 203.896C-114.158 192.183 -100.008 171.516 -90.112 154.819C-88.6803 152.474 -87.2626 150.121 -85.8449 147.769C-82.5066 142.238 -79.0565 136.525 -75.4808 130.952C-69.5864 121.739 -64.2717 114.395 -58.7474 107.849C-37.4536 82.5193 -4.16852 71.0866 28.1179 78.0176C101.951 94.841 161.335 132.997 199.851 188.361C203.392 193.43 204.565 199.037 203.336 205.016C201.032 216.239 190.905 226.019 182.196 231.417C174.863 236.108 167.111 240.77 158.898 245.713C156.118 247.386 153.318 249.074 150.51 250.768C123.902 270.553 87.0967 302.113 74.6654 347.564C71.5157 356.147 68.0587 365.284 63.7776 376.359C60.9421 383.696 58.0159 391.173 55.1804 398.405L52.5335 405.175C48.6505 414.914 47.0652 425.023 45.5357 434.804C43.9993 444.619 42.4139 454.771 38.496 464.579C33.6003 478.322 26.7211 487.325 18.0472 491.337C11.5801 494.74 4.54041 496.469 -2.63202 496.469ZM9.37323 76.7365C-16.3833 76.7365 -41.1691 88.0361 -58.2097 108.311C-63.713 114.836 -69.0138 122.152 -74.8872 131.344C-78.463 136.91 -81.913 142.616 -85.2443 148.14C-86.662 150.492 -88.0797 152.845 -89.5114 155.183C-99.4565 171.957 -113.669 192.722 -135.507 204.512C-139.977 207.033 -145.152 208.461 -150.159 209.84C-159.21 212.332 -167.759 214.692 -171.209 223.093C-178.423 240.84 -170.133 260.681 -162.116 279.871C-160.712 283.232 -159.259 286.704 -157.953 290.051C-150.041 311.369 -138.447 331.189 -127.231 350.351C-120.75 361.426 -114.046 372.88 -108.068 384.586C-92.291 416.902 -69.2792 447.672 -35.6448 481.417C-28.7727 488.67 -20.0359 493.396 -10.3772 495.09C-0.683594 496.791 9.04498 495.286 17.7609 490.728C26.2742 486.786 33.0276 477.916 37.8674 464.348C41.7574 454.603 43.3358 444.493 44.8652 434.713C46.4017 424.897 47.9871 414.746 51.905 404.937L54.5519 398.167C57.3804 390.935 60.3066 383.458 63.149 376.121C67.4302 365.053 70.8872 355.916 74.0229 347.368C86.5101 301.728 123.434 270.063 150.126 250.215L150.154 250.194C152.962 248.493 155.769 246.805 158.556 245.125C166.762 240.189 174.514 235.527 181.84 230.836C190.43 225.508 200.41 215.889 202.666 204.883C203.853 199.1 202.715 193.675 199.293 188.767C160.881 133.55 101.637 95.4922 27.9783 78.7107C21.7766 77.3875 15.547 76.7365 9.37323 76.7365Z" fill="#FE6019"/>
<path d="M-6.0542 517.682C-9.47629 517.682 -12.9124 517.423 -16.3344 516.905C-28.0324 515.134 -38.8784 510.464 -48.572 503.036C-81.2146 474.493 -103.57 438.55 -127.238 400.492C-130.137 395.836 -133.042 391.16 -135.975 386.49C-140.214 379.692 -145.201 372.978 -152.136 364.731C-155.293 360.978 -158.554 357.261 -161.704 353.669C-164.302 350.708 -166.984 347.648 -169.568 344.624C-207.637 301.784 -214.355 240.764 -216.101 198.596C-215.808 189.782 -214.823 181.409 -213.168 173.694C-211.401 165.376 -208.782 157.444 -205.388 150.135C-204.417 147.699 -199.326 147.524 -192.887 147.293C-188.473 147.139 -183.466 146.957 -179.576 145.921C-170.943 143.841 -162.535 140.6 -153.868 136.021C-131.254 124.07 -111.252 105.007 -91.9139 86.573C-83.3796 78.4448 -74.559 70.0366 -65.7453 62.4825C-59.3132 57.0427 -52.1617 52.688 -44.4864 49.5375C-37.1394 46.6041 -29.2267 44.7068 -20.9717 43.9017C62.9325 46.4361 131.025 98.3907 196.883 148.637L198.434 149.82C207.303 156.583 216.473 163.584 225.503 170.326C234.107 176.599 240.826 185.519 244.415 195.446C255.436 220.937 237.585 245.321 215.188 255.305C206.493 259.701 197.442 263.902 190.535 267.066C181.386 271.239 172.663 276.014 164.611 281.257C138.058 298.55 118.762 320.547 107.259 346.647C103.181 355.986 99.102 365.242 95.0374 374.469L94.5485 375.582C82.1451 403.74 69.3228 432.858 61.1307 464.551C56.6889 482.096 46.1433 497.015 31.4492 506.55C20.1842 513.86 7.1593 517.682 -6.0542 517.682ZM-20.9438 44.5878C-29.094 45.3859 -36.9369 47.2692 -44.221 50.1747C-51.8195 53.2971 -58.9081 57.6168 -65.2844 63.0076C-74.0841 70.5477 -82.8977 78.9489 -91.425 87.0701C-110.798 105.539 -130.835 124.631 -153.533 136.63C-162.255 141.237 -170.713 144.499 -179.394 146.593C-183.354 147.65 -188.403 147.832 -192.852 147.986C-198.551 148.189 -203.928 148.378 -204.738 150.408C-208.119 157.696 -210.724 165.572 -212.477 173.841C-214.125 181.521 -215.102 189.852 -215.396 198.596C-213.657 240.638 -206.959 301.491 -169.037 344.169C-166.453 347.2 -163.771 350.26 -161.18 353.214C-158.023 356.813 -154.755 360.537 -151.598 364.29C-144.635 372.565 -139.635 379.3 -135.382 386.126C-132.448 390.796 -129.543 395.472 -126.645 400.128C-103.004 438.136 -80.6769 474.038 -48.132 502.497C-38.5501 509.841 -27.8159 514.462 -16.2367 516.212C18.6548 521.498 51.6187 499.213 60.4463 464.376C68.6593 432.627 81.4957 403.481 93.906 375.295L94.3948 374.182C98.4595 364.955 102.531 355.699 106.617 346.36C118.182 320.134 137.562 298.032 164.234 280.662C172.314 275.398 181.065 270.609 190.248 266.422C197.149 263.258 206.193 259.057 214.895 254.661C236.999 244.803 254.619 220.79 243.773 195.691C240.218 185.875 233.59 177.075 225.091 170.879C216.054 164.13 206.884 157.129 198.015 150.366L196.464 149.183C130.697 99.0068 62.6951 47.1222 -20.9438 44.5878Z" fill="#FE6019"/>
<path d="M-14.1905 535.219C-15.3708 535.219 -16.5511 535.199 -17.7313 535.164C-35.6869 534.632 -52.7065 530.095 -66.9536 522.05C-77.0174 516.387 -85.3212 509.169 -91.6346 500.599L-91.6765 500.529C-104.66 470.635 -122.978 442.981 -151.067 410.867C-158.1 402.83 -165.852 394.366 -175.476 384.235C-183.27 375.498 -191.86 367.818 -200.171 360.39C-211.15 350.567 -222.505 340.416 -231.864 327.905C-246.544 308.099 -242.486 284.373 -238.568 261.431C-237.053 252.574 -235.488 243.41 -235.055 234.672C-233.358 204.904 -240.224 179.924 -256.035 158.305C-261.147 150.247 -258.905 141.006 -256.74 132.066C-256.552 131.302 -256.37 130.539 -256.189 129.783C-252.166 118.47 -243.911 108.206 -234.099 102.304C-215.123 91.2495 -195.45 83.8635 -176.426 76.7154C-161.934 71.2756 -146.954 65.6538 -132.728 58.5198C-121.093 52.6879 -111.42 45.4489 -101.175 37.7898C-95.1196 33.2601 -88.8551 28.5764 -82.0877 24.1517C-72.3731 17.5357 -62.1557 13.0131 -51.7288 10.7167C-42.2307 8.62344 -32.174 8.3013 -21.8378 9.75751C-3.07916 11.6758 13.6752 20.0561 28.9908 28.8353C49.3418 40.198 69.2039 51.9459 88.4095 63.3015C120.466 82.2533 153.604 101.849 188.803 119.485C196.722 123.552 204.174 127.879 210.949 132.325C218.289 137.148 225.14 142.322 231.293 147.699C238.095 153.93 243.85 159.818 248.885 165.684C254.835 172.622 259.794 179.574 263.621 186.344C271.953 198.624 274.662 213.781 271.233 228.988C267.462 245.727 256.427 260.863 241.719 269.482C235.755 273.423 229.91 277.001 223.862 280.41L223.827 280.424L221.459 281.446C204.307 288.84 186.575 296.492 171.65 308.155C163.71 314.148 156.677 320.848 150.755 328.087C144.462 335.767 139.301 344.19 135.418 353.109L134.447 355.58C130.383 365.886 126.178 376.548 121.737 386.63C115.444 398.903 109.822 412.526 104.389 425.702C88.0604 465.3 71.1734 506.249 32.0847 524.963C18.4312 531.691 2.50098 535.219 -14.1905 535.219ZM-91.048 500.208C-84.7974 508.686 -76.5774 515.827 -66.6114 521.435C-37.5376 537.852 2.00513 539.014 31.7913 524.326C70.6426 505.724 87.4738 464.901 103.753 425.429C109.194 412.24 114.816 398.601 121.115 386.322C125.543 376.275 129.74 365.62 133.805 355.314L134.783 352.836C138.701 343.84 143.896 335.368 150.224 327.639C156.188 320.358 163.256 313.616 171.238 307.595C186.226 295.882 204 288.216 221.194 280.802L223.548 279.787C229.575 276.392 235.399 272.828 241.363 268.887C255.918 260.352 266.827 245.384 270.563 228.834C273.95 213.816 271.275 198.862 263.041 186.715C259.221 179.959 254.29 173.049 248.368 166.139C243.354 160.294 237.62 154.427 230.846 148.217C224.721 142.868 217.898 137.715 210.578 132.906C203.825 128.467 196.394 124.161 188.502 120.101C153.29 102.451 120.137 82.8483 88.0743 63.8895C68.8687 52.5338 49.0135 40.7931 28.6696 29.4305C13.4167 20.6932 -3.26074 12.348 -21.9007 10.4437C-32.16 9.00153 -42.133 9.31653 -51.5542 11.3958C-61.8903 13.6711 -72.0239 18.1588 -81.6756 24.7328C-88.429 29.1505 -94.6866 33.8271 -100.735 38.3498C-111.008 46.0299 -120.708 53.283 -132.393 59.1429C-146.654 66.2909 -161.655 71.9198 -176.16 77.3666C-195.164 84.5006 -214.809 91.8727 -233.729 102.899C-243.401 108.717 -251.544 118.841 -255.504 129.972C-255.672 130.693 -255.86 131.456 -256.042 132.219C-258.179 141.02 -260.379 150.114 -255.441 157.899C-239.539 179.637 -232.632 204.764 -234.336 234.701C-234.776 243.48 -236.34 252.665 -237.863 261.542C-241.76 284.338 -245.79 307.91 -231.291 327.478C-221.975 339.933 -210.647 350.063 -199.689 359.858C-191.364 367.3 -182.76 374.994 -174.945 383.753C-165.328 393.876 -157.569 402.347 -150.53 410.391C-122.413 442.561 -104.059 470.257 -91.048 500.208Z" fill="#FE6019"/>
<path d="M-11.7669 554.374C-33.9547 554.374 -56.6732 549.054 -77.981 538.811C-87.4442 534.26 -96.4324 528.8 -104.708 522.583C-125.401 504.604 -139.264 482.551 -153.945 459.202C-157.835 453.02 -161.85 446.622 -165.964 440.391C-173.423 429.091 -179.987 420.172 -186.622 412.323C-193.494 404.671 -200.604 396.746 -209.899 392.091C-234.14 378.95 -252.215 361.328 -262.195 341.13C-272.936 319.392 -274.549 295.112 -266.993 268.97C-257.432 235.415 -265.833 201.733 -293.447 162.982C-297.938 156.555 -298.378 146.684 -294.767 133.641C-292.903 126.122 -289.578 118.245 -284.892 110.236C-272.195 88.4631 -249.491 66.326 -227.066 53.8362C-208.761 43.3066 -190.547 33.218 -172.927 23.4516C-144.935 7.94431 -115.987 -8.09491 -86.7388 -25.8775C-56.4008 -44.2972 -29.9738 -31.1633 -10.3422 -17.6583C-2.12915 -12.0085 5.86737 -5.53259 13.2842 0.621307C61.2565 40.9822 115.158 69.1684 175.555 99.2658C179.598 101.282 183.649 103.291 187.699 105.308C195.088 108.983 202.484 112.652 209.873 116.355C225.803 124.889 240.875 135.93 253.474 148.294C260.29 154.987 266.352 162.03 271.478 169.227C296.026 198.197 297.242 239.041 274.334 266.324C268.279 273.297 262.19 279.003 255.15 284.268L255.122 284.289C246.399 289.561 237.187 294.51 228.276 299.306C206.877 310.809 184.752 322.703 167.397 340.045C159.443 348.88 153.926 358.787 150.552 370.31C146.32 381.645 142.996 393.232 139.951 404.118L138.763 408.389C136.012 418.281 133.162 428.51 129.747 438.773C118.692 474.388 92.4395 501.965 65.7192 526.454C47.184 542.872 23.3619 552.428 -3.16278 554.094C-6.03314 554.283 -8.89655 554.374 -11.7669 554.374ZM-56.1634 -34.2368C-65.6754 -34.2368 -75.795 -31.7024 -86.3896 -25.2685C-115.652 -7.47888 -144.6 8.5675 -172.598 24.0748C-190.212 33.8342 -208.433 43.9297 -226.73 54.4522C-249.058 66.886 -271.658 88.9252 -284.299 110.6C-288.95 118.554 -292.246 126.367 -294.104 133.83C-297.659 146.67 -297.254 156.338 -292.889 162.583C-265.142 201.523 -256.705 235.394 -266.329 269.174C-280.869 319.455 -260.183 364.031 -209.585 391.475C-200.178 396.186 -193.026 404.16 -186.105 411.869C-179.443 419.752 -172.857 428.692 -165.384 440.013C-161.264 446.251 -157.248 452.649 -153.358 458.838C-138.706 482.138 -124.871 504.149 -104.275 522.044C-96.0622 528.219 -87.1089 533.658 -77.6877 538.181C-26.8591 562.622 29.2354 557.819 65.2233 525.95C91.8668 501.531 118.042 474.038 129.049 438.577C132.457 428.321 135.306 418.099 138.058 408.214L139.245 403.943C142.297 393.036 145.622 381.435 149.854 370.1C153.248 358.493 158.814 348.502 166.853 339.569C184.291 322.143 206.465 310.228 227.906 298.697C236.803 293.915 246.008 288.966 254.71 283.708C261.701 278.471 267.756 272.807 273.769 265.876C296.445 238.859 295.237 198.393 270.891 169.661C265.772 162.471 259.738 155.456 252.95 148.798C240.4 136.483 225.377 125.478 209.517 116.978C202.142 113.282 194.746 109.606 187.357 105.938C183.307 103.921 179.256 101.912 175.212 99.8958C114.774 69.7844 60.8374 41.5703 12.8093 1.16745C5.40643 -4.97946 -2.56915 -11.4415 -10.7612 -17.0773C-23.3322 -25.7306 -38.7386 -34.2368 -56.1634 -34.2368Z" fill="#FE6019"/>
<path d="M-17.8081 571.891C-43.1386 571.891 -68.6996 566.857 -92.9965 556.734C-103.249 552.463 -113.215 547.289 -122.615 541.352C-133.587 533.826 -143.776 524.473 -152.918 513.53C-168.716 491.967 -186.518 471.839 -207.336 451.963C-214.034 445.585 -220.906 439.376 -227.757 433.509C-243.366 419.437 -261.503 409.663 -280.709 399.316L-283.984 397.551C-290.912 393.694 -313.121 379.398 -308.33 357.31C-307.813 354.635 -307.283 351.954 -306.759 349.258C-296.988 299.453 -286.89 247.961 -322.298 202.853C-334.059 187.346 -327.438 164.417 -321.034 142.252C-319.288 136.21 -317.64 130.497 -316.355 124.953C-313.435 115.585 -309.615 106.533 -304.992 98.0337C-295.424 80.4331 -282.602 65.3108 -266.881 53.087C-252.794 42.3545 -238.785 31.825 -225.236 21.6455C-181.664 -11.0983 -140.501 -42.0219 -98.4928 -78.2102C-86.3269 -89.0127 -71.4163 -90.938 -54.1801 -83.937C-38.4315 -77.5381 -23.1647 -64.6701 -13.0521 -55.5408C-4.12665 -47.2306 4.21906 -38.5984 10.4976 -32.0104C13.5215 -28.8459 16.5247 -25.6745 19.5277 -22.5031C24.1022 -17.6723 28.8372 -12.6736 33.5792 -7.78687C73.3803 35.8225 123.804 60.5922 177.182 86.811C189.389 92.8039 202.009 99.0069 214.357 105.392C224.609 110.706 233.653 115.627 241.999 120.451C250.868 125.59 259.263 131.842 266.945 139.018C274.544 146.117 281.381 154.056 287.261 162.618C298.764 177.376 306.181 195.299 308.143 213.089C310.294 232.551 305.901 250.712 295.447 265.61C291.759 270.966 287.227 276.294 281.989 281.446L281.961 281.474C269.341 291.458 254.863 299.341 240.868 306.965C218.268 319.273 194.9 331.994 179.409 353.746C172.509 363.169 167.907 373.965 165.728 385.832C164.506 397.551 162.725 408.949 160.441 419.675C146.9 483.23 114.99 527.854 65.6003 552.323C39.6204 565.345 11.0563 571.891 -17.8081 571.891ZM-73.3578 -87.3395C-82.5207 -87.3395 -90.7756 -84.112 -98.0249 -77.6711C-140.061 -41.4688 -181.224 -10.5382 -224.81 22.2126C-238.359 32.3921 -252.361 42.9146 -266.448 53.6472C-282.085 65.808 -294.851 80.8532 -304.37 98.3697C-308.973 106.834 -312.772 115.837 -315.67 125.142C-316.948 130.686 -318.603 136.399 -320.349 142.455C-326.705 164.459 -333.277 187.206 -321.732 202.433C-286.128 247.793 -296.262 299.446 -306.06 349.405C-306.591 352.094 -307.115 354.782 -307.632 357.464C-312.325 379.09 -290.451 393.155 -283.635 396.949L-280.367 398.714C-261.126 409.082 -242.954 418.877 -227.289 432.991C-220.438 438.858 -213.559 445.074 -206.848 451.466C-185.994 471.363 -168.178 491.526 -152.366 513.103C-143.28 523.976 -133.133 533.287 -122.231 540.771C-112.873 546.68 -102.948 551.84 -92.7311 556.09C-40.9247 577.667 16.6783 576.064 65.307 551.686C114.494 527.322 146.278 482.852 159.771 419.521C162.048 408.816 163.828 397.447 165.051 385.727C167.251 373.734 171.888 362.84 178.851 353.333C194.439 331.462 217.877 318.699 240.546 306.349C254.514 298.746 268.95 290.877 281.528 280.935C286.731 275.825 291.228 270.532 294.888 265.211C318.151 232.068 306.956 189.012 286.71 163.038C280.843 154.504 274.041 146.6 266.477 139.536C258.83 132.395 250.477 126.178 241.657 121.06C233.318 116.243 224.288 111.322 214.042 106.015C201.702 99.6368 189.082 93.434 176.881 87.4411C123.441 61.1873 72.9613 36.3966 33.0764 -7.30374C28.3344 -12.1835 23.5993 -17.1892 19.0248 -22.0199C16.0218 -25.1914 13.0187 -28.3629 9.99475 -31.5204C3.72321 -38.1013 -4.60858 -46.7195 -13.52 -55.0157C-23.5908 -64.103 -38.7946 -76.9219 -54.4455 -83.2789C-61.1081 -85.9883 -67.4215 -87.3395 -73.3578 -87.3395Z" fill="#FE6019"/>
<path d="M-21.7329 596.199C-57.4624 596.199 -93.1221 587.832 -125.115 570.421C-135.179 564.946 -144.838 558.575 -153.826 551.49C-163.61 544.006 -172.689 535.57 -180.805 526.412C-195.275 505.836 -213.587 488.369 -236.794 472.959C-243.869 468.269 -251.349 463.823 -259.038 459.735C-261.999 458.649 -264.478 457.242 -267.097 455.758C-269.193 454.568 -271.357 453.336 -273.816 452.278C-282.378 448.918 -291.562 446.236 -301.283 443.401C-331.754 434.51 -363.258 425.317 -374.579 394.24C-382.736 372.271 -368.817 353.599 -355.353 335.536C-348.033 325.714 -340.463 315.562 -336.37 304.893C-334.226 298.452 -332.369 290.443 -337.069 285.724C-370.047 252.063 -360.311 211.016 -350.897 171.313C-348.082 159.439 -345.17 147.16 -343.564 135.489C-341.413 122.397 -337.725 110.474 -332.299 99.0347C-312.737 57.6796 -272.971 30.4596 -234.518 4.12869C-221.905 -4.50357 -208.866 -13.4299 -196.693 -22.7412C-182.292 -33.1657 -171.67 -44.8015 -163.261 -59.3706C-160.468 -64.4884 -157.709 -69.8441 -155.048 -75.0249C-140.473 -103.365 -125.395 -132.678 -93.6878 -143.936C-80.4394 -147.731 -66.744 -146.918 -54.0613 -141.584C-41.7627 -136.417 -31.3288 -127.442 -23.891 -115.638C-20.6086 -109.813 -17.2842 -103.82 -14.0716 -98.0232C-12.2768 -94.7888 -10.4819 -91.5473 -8.6731 -88.2988C-4.13361 -80.1496 1.27893 -70.5162 7.02667 -60.8898C12.4391 -51.4314 18.0123 -42.5401 23.6064 -34.4469C30.0804 -25.1776 36.5196 -16.9584 43.3009 -9.30627C78.6463 30.2355 125.075 50.2865 174.228 71.5206C181.498 74.6571 189.012 77.9055 196.401 81.1819C207.164 85.9566 215.97 90.0593 224.113 94.0779C246.636 103.424 267.972 118.028 285.795 136.301C294.797 145.535 302.696 155.491 309.254 165.901C318.801 179.7 325.268 195.46 327.468 210.26C330.045 227.629 326.748 243.543 317.928 256.285C313.94 263.195 309.393 269.853 304.421 276.055L304.414 276.063C299.141 282.251 294.036 286.725 288.128 291.906L287.136 292.774C277.016 300.048 265.514 306.629 254.395 312.986C219.832 332.75 184.089 353.193 183.328 397.509L183.321 397.579C181.177 407.276 179.822 417.175 178.46 429.056C178.222 431.093 177.999 433.131 177.768 435.168C174.472 464.551 171.057 494.929 150.734 518.606C107.245 569.007 42.6654 596.199 -21.7329 596.199ZM-77.15 -145.567C-82.6044 -145.567 -88.0797 -144.797 -93.4853 -143.25C-124.913 -132.09 -139.921 -102.91 -154.434 -74.6889C-157.101 -69.5081 -159.86 -64.1453 -162.661 -59.0135C-171.125 -44.3534 -181.81 -32.6477 -196.288 -22.1671C-208.468 -12.8488 -221.514 -3.91544 -234.133 4.72382C-272.51 30.9987 -312.192 58.1626 -331.677 99.3496C-337.076 110.733 -340.742 122.593 -342.886 135.608C-344.493 147.3 -347.405 159.593 -350.226 171.488C-359.599 211.002 -369.285 251.86 -336.58 285.241C-331.607 290.226 -333.507 298.487 -335.721 305.138C-339.855 315.912 -347.454 326.106 -354.801 335.963C-368.762 354.698 -381.954 372.39 -373.93 394.002C-362.728 424.743 -331.391 433.887 -301.095 442.736C-291.359 445.579 -282.162 448.26 -273.557 451.634C-271.057 452.712 -268.871 453.952 -266.762 455.149C-264.164 456.626 -261.713 458.019 -258.759 459.098C-251.006 463.214 -243.506 467.674 -236.417 472.371C-213.133 487.823 -194.765 505.36 -180.267 525.971C-172.207 535.065 -163.163 543.474 -153.407 550.93C-144.447 557.994 -134.823 564.337 -124.794 569.798C-35.4073 618.448 82.8087 596.247 150.175 518.158C170.359 494.641 173.76 464.369 177.049 435.098C177.279 433.06 177.51 431.023 177.74 428.986C179.109 417.098 180.457 407.185 182.608 397.467C183.39 352.773 219.301 332.239 254.025 312.384C265.13 306.034 276.611 299.467 286.675 292.235L287.639 291.388C293.526 286.228 298.617 281.768 303.855 275.621C308.807 269.447 313.332 262.824 317.313 255.921C337.008 227.483 324.953 189.873 308.646 166.294C302.102 155.918 294.238 145.997 285.264 136.798C267.511 118.595 246.252 104.047 223.799 94.7289C215.642 90.7033 206.842 86.6078 196.087 81.8331C188.705 78.5566 181.19 75.3081 173.92 72.1716C124.691 50.9095 78.1993 30.8236 42.7491 -8.83017C35.9468 -16.5033 29.4868 -24.7435 22.9988 -34.0338C17.3977 -42.141 11.8106 -51.0603 6.39111 -60.5257C0.636414 -70.1521 -4.77612 -79.7926 -9.3226 -87.9488C-11.1314 -91.1973 -12.9262 -94.4388 -14.7211 -97.6732C-17.9337 -103.47 -21.251 -109.463 -24.5265 -115.267C-31.8805 -126.931 -42.2027 -135.808 -54.3686 -140.926C-61.7017 -144.013 -69.4048 -145.567 -77.15 -145.567Z" fill="#FE6019"/>
<path d="M-29.9529 620.52C-81.0051 620.52 -127.546 606.749 -165.754 580.152C-175.986 573.032 -185.714 564.946 -195.506 555.438C-203.858 546.883 -212.972 538.692 -223.357 530.403C-229.566 525.621 -235.712 521.014 -242.661 517.143C-252.299 512.172 -262.418 507.677 -270.163 504.317C-274.242 502.545 -278.355 500.795 -282.469 499.045C-287.777 496.784 -293.266 494.445 -298.63 492.086C-302.862 490.161 -307.108 488.263 -311.361 486.359C-351.518 468.387 -393.038 449.807 -421.322 411.532C-431.861 396.956 -435.52 379.566 -431.91 361.237C-428.774 345.345 -420.296 329.494 -407.99 316.493C-412.606 317.123 -417.355 315.891 -420.337 313.231C-422.859 310.976 -424.032 307.861 -423.732 304.22C-422.097 296.022 -419.667 288.16 -416.685 281.439C-413.577 274.396 -410.323 267.269 -407.187 260.373C-389.141 220.789 -370.487 179.854 -369.16 134.635C-369.16 128.054 -368.657 119.484 -364.718 111.594C-361.575 101.338 -356.98 91.2984 -351.078 81.805C-339.737 63.5603 -323.737 47.3179 -303.518 33.5399C-239.588 -10.1535 -176.768 -61.7791 -150.201 -142.921L-150.173 -142.991C-144.921 -152.064 -139.572 -159.786 -133.803 -166.619C-119.996 -182.974 -104.576 -193.188 -86.669 -197.858C-71.5768 -201.547 -56.1844 -199.342 -42.1677 -191.473C-29.4571 -184.346 -18.2689 -172.668 -10.6495 -158.603C-5.74683 -149.124 -0.851196 -138.475 4.77783 -125.096C7.95551 -117.542 11.0843 -109.778 14.1153 -102.28C15.6866 -98.3804 17.265 -94.4738 18.8503 -90.5883C22.7892 -80.7098 26.1485 -72.7007 29.4309 -65.3846C33.5165 -56.2763 37.4764 -48.225 41.5549 -40.783C61.4171 -3.22244 93.487 25.9368 131.856 41.3181C146.865 47.339 162.285 52.5547 177.203 57.6024C185.507 60.4098 194.097 63.3152 202.498 66.3257C211.249 69.4551 218.896 72.3746 225.88 75.245C253.774 86.4397 281.165 104.39 303.003 125.799C310.713 133.353 317.683 141.3 323.731 149.421C337.001 166.671 365.181 210.729 340.276 246.987C335.59 253.722 330.387 260.59 325.449 267.01C310.378 290.905 287.422 304.339 263.111 318.559C253.474 324.194 243.515 330.026 234.051 336.572C203.72 358.387 201.437 393.708 199.223 427.866C198.832 433.949 198.455 439.697 197.924 445.417L197.77 447.797C197.149 457.256 196.506 467.036 195.424 476.726C192.176 505.822 184.962 538.384 156.097 559.317C109.236 593.223 52.0726 614.576 -4.88086 619.435C-13.3314 620.156 -21.705 620.52 -29.9529 620.52ZM-405.965 315.401L-406.747 316.206C-430.276 340.549 -443.726 379.335 -420.75 411.105C-392.577 449.233 -351.141 467.778 -311.068 485.708C-306.815 487.612 -302.568 489.509 -298.336 491.435C-292.98 493.787 -287.497 496.126 -282.189 498.387C-278.076 500.144 -273.962 501.895 -269.884 503.666C-262.139 507.026 -252.005 511.528 -242.333 516.513C-235.335 520.412 -229.161 525.04 -222.924 529.842C-212.504 538.16 -203.376 546.365 -195.01 554.934C-185.26 564.414 -175.553 572.472 -165.356 579.571C-127.022 606.259 -79.0565 619.371 -28.8635 619.371C33.9495 619.378 100.268 598.858 155.706 558.743C184.354 537.971 191.52 505.584 194.753 476.642C195.836 466.966 196.478 457.193 197.1 447.749L197.26 445.361C197.791 439.648 198.161 433.9 198.559 427.823C200.78 393.504 203.078 358.016 233.681 336.005C243.172 329.438 253.145 323.599 262.79 317.957C287.024 303.773 309.917 290.379 324.898 266.625L324.919 266.597C329.849 260.177 335.052 253.316 339.731 246.588C364.378 210.708 336.379 166.979 323.201 149.841C317.173 141.748 310.218 133.823 302.535 126.296C280.76 104.957 253.453 87.0558 225.636 75.8961C218.659 73.0257 211.019 70.1132 202.282 66.9837C193.88 63.9803 185.297 61.0749 176.993 58.2675C162.069 53.2197 146.641 47.997 131.612 41.9691C93.0889 26.5248 60.8932 -2.74643 40.9543 -40.4539C36.8757 -47.91 32.9019 -55.9682 28.8094 -65.0975C25.527 -72.4206 22.1607 -80.4368 18.2218 -90.3222C16.6365 -94.2148 15.0581 -98.1143 13.4868 -102.014C10.4628 -109.512 7.33392 -117.269 4.15625 -124.823C-1.4588 -138.181 -6.35446 -148.816 -11.2432 -158.274C-23.877 -181.609 -51.17 -205.804 -86.4734 -197.172C-104.233 -192.544 -119.528 -182.4 -133.244 -166.157C-138.978 -159.373 -144.3 -151.686 -149.524 -142.662C-161.438 -106.292 -181.28 -73.5338 -210.186 -42.5192C-233.512 -17.4906 -262.167 6.1449 -303.099 34.128C-323.241 47.857 -339.171 64.0224 -350.464 82.19C-356.33 91.6344 -360.905 101.618 -364.054 111.867C-367.944 119.68 -368.44 128.152 -368.44 134.663C-369.774 180.036 -388.456 221.034 -406.53 260.681C-409.673 267.57 -412.921 274.69 -416.028 281.733C-418.983 288.405 -421.406 296.218 -423.019 304.326C-423.299 307.693 -422.202 310.613 -419.849 312.713C-416.804 315.436 -411.782 316.584 -407.054 315.639L-405.965 315.401Z" fill="#FE6019"/>
<path d="M-20.8252 645.346C-38.1382 645.346 -55.9261 644.31 -74.1261 642.223C-106.063 638.562 -152.597 628.886 -192.873 603.584C-201.721 598.026 -210.046 591.83 -217.61 585.172C-225.18 578.339 -233.631 572.269 -243.443 566.612C-251.691 561.858 -261.063 557.336 -272.077 552.792C-287.015 546.001 -303.323 542.353 -319.099 538.825C-329.869 536.417 -341.008 533.924 -351.742 530.445C-364.788 526.468 -376.339 520.839 -386.082 513.726C-414.737 488.915 -437.769 457.025 -450.969 423.917C-466.124 385.895 -467.472 348.25 -454.88 315.058C-449.558 301.392 -442.302 288.692 -435.283 276.406C-425.876 259.939 -416.147 242.913 -411.231 223.653C-406.712 206.843 -403.772 189.831 -400.915 173.386C-396.746 149.316 -392.807 126.577 -384.371 104.187C-380.285 94.4139 -375.082 84.5916 -368.887 74.9792C-336.461 24.6348 -279.99 -15.166 -240.335 -40.7198C-229.238 -47.5667 -222.058 -56.381 -217.037 -63.2981C-205.458 -79.3094 -197.692 -96.525 -190.177 -113.18C-182.802 -129.521 -175.839 -144.951 -165.559 -159.457C-161.25 -165.338 -156.124 -172.262 -150.76 -179.046C-131.82 -203.277 -108.899 -229.796 -76.5006 -237.722C-48.8165 -244.38 -8.79892 -242.657 14.1361 -226.471C24.8703 -218.896 30.9812 -208.905 32.3011 -196.773C32.6503 -192.943 32.9995 -189.086 33.3417 -185.2C37.2527 -141.388 41.6805 -91.7292 59.2798 -50.8012C63.4143 -41.3568 67.9538 -32.9417 73.1638 -25.0585C102.356 19.006 151.467 35.7244 195.207 47.9272C202.331 49.9155 209.601 51.8547 216.633 53.724C221.452 55.0052 226.257 56.2864 231.034 57.5886C266.1 65.1847 291.612 77.9196 311.307 97.6625C318.521 104.755 325.247 111.868 331.302 118.806C338.32 126.85 344.627 134.887 350.067 142.693C378.862 183.551 383.771 215.532 364.65 237.76C360.445 242.906 355.654 248.339 349.991 254.366C324.416 286.298 293.77 312.671 253.543 337.363C214.196 362.812 216.333 405.855 218.4 447.476C218.861 456.815 219.301 465.629 219.28 474.269C219.099 485.232 218.484 494.88 217.416 503.778C213.093 539.714 200.696 565.296 179.514 581.972C144.804 608.989 104.102 627.619 58.5256 637.336C33.4954 642.671 6.94269 645.346 -20.8252 645.346ZM-43.9278 -240.669C-55.4023 -240.669 -66.6324 -239.367 -76.347 -237.035C-108.529 -229.166 -131.359 -202.751 -150.222 -178.605C-155.579 -171.828 -160.698 -164.911 -165 -159.037C-175.239 -144.594 -182.188 -129.192 -189.549 -112.879C-197.077 -96.1959 -204.857 -78.9454 -216.478 -62.878C-221.535 -55.912 -228.77 -47.0277 -239.965 -40.1176C-279.557 -14.5989 -335.951 25.1389 -368.301 75.3643C-374.468 84.9417 -379.657 94.7291 -383.721 104.453C-392.13 126.766 -396.062 149.47 -400.224 173.512C-403.073 189.978 -406.028 206.997 -410.546 223.835C-415.484 243.179 -425.233 260.247 -434.669 276.756C-441.673 289.014 -448.916 301.7 -454.216 315.31C-481.544 387.309 -439.466 466.574 -385.642 513.18C-375.983 520.23 -364.502 525.817 -351.526 529.78C-340.819 533.252 -329.701 535.738 -318.939 538.146C-303.134 541.682 -286.785 545.336 -271.791 552.148C-260.756 556.699 -251.363 561.235 -243.087 566.003C-233.226 571.681 -224.74 577.779 -217.135 584.647C-209.599 591.277 -201.309 597.452 -192.489 602.989C-152.318 628.228 -105.903 637.875 -74.0283 641.53C-56.0728 643.581 -38.5223 644.604 -21.4467 644.604C56.9402 644.604 125.529 623.131 179.102 581.419C200.124 564.862 212.436 539.434 216.738 503.687C217.807 494.817 218.414 485.19 218.596 474.255C218.617 465.643 218.184 456.836 217.716 447.504C216.696 426.97 215.642 405.736 219.797 386.406C224.504 364.493 235.427 348.257 253.194 336.762C293.358 312.111 323.955 285.78 349.474 253.911L349.495 253.89C355.145 247.87 359.936 242.444 364.133 237.305C383.024 215.343 378.101 183.649 349.516 143.085C344.096 135.293 337.797 127.277 330.799 119.254C324.758 112.33 318.039 105.224 310.839 98.1456C291.242 78.4937 265.835 65.8218 230.895 58.2537C226.097 56.9515 221.292 55.6704 216.48 54.3892C209.447 52.5129 202.177 50.5807 195.046 48.5923C151.181 36.3546 101.93 19.5871 72.605 -24.6804C67.3741 -32.5915 62.8137 -41.0488 58.6653 -50.5282C41.017 -91.5612 36.5822 -141.275 32.6713 -185.144C32.3221 -189.029 31.9799 -192.887 31.6307 -196.71C30.3317 -208.625 24.3186 -218.448 13.759 -225.904C-1.0119 -236.293 -22.8784 -240.669 -43.9278 -240.669Z" fill="#FE6019"/>
<path d="M-24.9946 676.605C-38.1312 676.605 -51.4076 676.087 -64.7607 675.051C-110.365 671.347 -156.354 657.891 -201.456 635.068C-209.858 630.819 -218.483 626.114 -227.087 621.087C-241.585 610.179 -257.697 601.057 -276.386 593.167C-284.522 589.729 -293.112 586.537 -302.631 583.4C-316.138 578.871 -331.167 575.678 -347.084 572.29C-376.025 566.136 -405.958 559.779 -427.803 544.692C-436.806 538.475 -443.72 531.327 -448.944 522.835L-448.971 522.772C-460.215 491.631 -472.71 455.296 -478.611 418.155C-485.092 377.374 -482.431 342.628 -470.461 311.929C-445.975 248.114 -425.087 190.216 -417.404 127.851C-414.709 116.32 -410.693 104.832 -405.469 93.6579C-379.999 39.183 -328.758 -3.44644 -279.214 -44.6755C-269.228 -52.9857 -259.792 -60.8338 -250.504 -68.829C-232.492 -83.9512 -221.891 -104.373 -211.639 -124.123C-205.479 -135.99 -199.102 -148.263 -191.162 -159.373C-183.368 -171.128 -175.888 -181.321 -168.29 -190.521C-162.186 -197.081 -154.902 -204.838 -147.024 -212.721C-113.222 -247.117 -73.1693 -282.857 -25.651 -271.334C-21.2861 -270.241 -16.8374 -269.17 -12.1233 -268.043C32.5735 -257.311 88.1931 -243.96 101.686 -198.411L101.721 -198.285L101.665 -198.166C92.579 -178.542 64.0359 -110.142 78.3458 -53.7347C80.853 -44.1993 84.5056 -35.441 89.1987 -27.7119C118.496 12.747 164.115 23.4026 212.234 31.5447C215.67 32.1258 219.113 32.6929 222.563 33.267C230.867 34.6392 239.45 36.0604 247.851 37.6357C294.483 43.8246 337.189 71.9547 368.093 116.824C373.715 124.987 378.904 133.669 383.513 142.623C385.462 147.972 388.025 153.517 390.734 159.39C400.4 180.289 411.351 203.966 394.443 222.974C390.406 228.729 385.49 234.477 379.435 240.511C377.507 244.446 374.427 247.218 371.452 249.9C370.376 250.866 369.266 251.867 368.232 252.903C367.08 253.827 365.97 254.716 364.873 255.592C358.392 260.772 352.274 265.659 345.605 271.673C336.274 280.326 326.734 288.818 317.516 297.031C295.174 316.928 274.069 335.725 254.416 357.617C229.833 384.998 235.315 421.733 240.609 457.249C242.83 472.126 245.121 487.514 245.114 501.86C245.344 512.298 244.674 522.534 243.13 532.265C241.51 542.466 238.919 552.19 235.434 561.165C231.754 570.645 227.019 579.417 221.369 587.244C187.588 622.417 143.037 647.663 88.9194 662.309C53.9931 671.774 15.2046 676.605 -24.9946 676.605ZM-448.336 522.499C-443.168 530.893 -436.331 537.964 -427.412 544.118C-405.678 559.121 -375.815 565.471 -346.944 571.604C-331.007 574.992 -315.957 578.192 -302.415 582.735C-292.875 585.879 -284.271 589.078 -276.114 592.523C-257.376 600.434 -241.208 609.591 -226.703 620.506C-218.141 625.498 -209.529 630.195 -201.142 634.445C-156.117 657.226 -110.219 670.654 -64.7048 674.358C54.4121 683.613 158.486 651.71 220.817 586.817C226.404 579.074 231.104 570.358 234.764 560.934C238.235 552.008 240.805 542.326 242.418 532.174C243.961 522.485 244.625 512.291 244.394 501.888C244.401 487.585 242.111 472.224 239.897 457.375C234.575 421.691 229.072 384.795 253.871 357.169C273.552 335.249 294.671 316.444 317.027 296.526C326.245 288.314 335.778 279.829 345.109 271.176C351.792 265.148 357.924 260.247 364.412 255.066C365.509 254.191 366.619 253.302 367.737 252.406C368.756 251.384 369.874 250.376 370.949 249.403C373.889 246.749 376.934 244.012 378.799 240.175L378.869 240.077C384.917 234.056 389.82 228.33 393.863 222.561C410.492 203.868 399.639 180.408 390.064 159.705C387.34 153.818 384.77 148.259 382.836 142.924C378.254 134.033 373.079 125.38 367.478 117.244C336.686 72.5358 294.147 44.5177 247.698 38.3498C239.282 36.7676 230.706 35.3464 222.409 33.9812C218.966 33.4141 215.516 32.8399 212.08 32.2588C163.814 24.0956 118.049 13.3981 88.5771 -27.2988C83.8281 -35.1049 80.1546 -43.9263 77.6265 -53.5317C72.2768 -74.6258 72.3397 -99.6195 77.808 -127.813C83.472 -157.007 93.5008 -182.246 100.932 -198.313C87.4947 -243.371 32.1475 -256.659 -12.3328 -267.336C-17.0469 -268.47 -21.4956 -269.534 -25.8676 -270.634C-73.0226 -282.066 -112.901 -246.473 -146.577 -212.21C-154.448 -204.334 -161.732 -196.584 -167.815 -190.045C-175.378 -180.88 -182.851 -170.708 -190.631 -158.967C-198.551 -147.892 -204.913 -135.64 -211.059 -123.794C-221.346 -103.988 -231.983 -83.5032 -250.092 -68.2899C-259.387 -60.2878 -268.822 -52.4396 -278.809 -44.1293C-328.297 -2.95633 -379.475 39.6239 -404.882 93.9589C-410.085 105.083 -414.08 116.53 -416.762 127.977C-424.444 190.391 -445.354 248.332 -469.853 312.188C-495.903 379.097 -473.513 452.768 -448.336 522.499Z" fill="#FE6019"/>
<path d="M-23.1019 711.869C-47.8737 711.869 -72.6385 709.72 -97.0052 705.442C-129.201 699.792 -160.838 690.404 -191.022 677.536C-203.258 672.321 -215.431 666.453 -227.185 660.104C-258.41 639.703 -293.14 623.306 -336.51 608.485C-345.771 605.321 -355.576 602.184 -365.661 599.167C-406.565 592.964 -443.517 572.92 -464.469 545.553C-470.293 537.943 -474.938 529.738 -478.269 521.168C-479.666 514.083 -481.125 506.886 -482.536 499.92C-495.805 434.468 -509.529 366.782 -488.409 302.568C-469.623 244.348 -455.306 194.893 -446.513 142.805C-445.151 134.341 -443.238 125.814 -440.835 117.454C-434.096 94.0289 -423.019 70.4494 -407.906 47.374C-401.006 36.8305 -393.107 26.1679 -384.447 15.6804C-358.251 -15.4601 -334.974 -37.9124 -308.966 -57.1232C-278.348 -80.1426 -253.109 -106.761 -231.815 -138.503C-228.798 -142.746 -225.753 -147.1 -222.799 -151.308C-221.213 -153.569 -219.628 -155.831 -218.036 -158.099C-209.634 -170.043 -199.773 -183.877 -188.962 -196.969C-182.628 -204.138 -176.572 -210.558 -170.448 -216.607C-163.981 -222.985 -157.409 -228.949 -150.907 -234.333C-144.16 -238.856 -137.372 -243.603 -130.186 -248.622C-128.202 -250.009 -126.205 -251.402 -124.2 -252.802C-90.0214 -277.838 -47.4826 -309.006 1.61401 -298.687C43.1122 -290.215 83.2904 -280.841 118.671 -259.565C140.006 -246.788 148.736 -227.703 145.356 -201.218C142.416 -178.15 130.613 -152.288 120.2 -129.479C114.585 -117.178 109.284 -105.556 105.562 -95.0198C102.175 -85.9675 101.008 -76.1591 102.091 -65.8606C103.188 -56.1011 106.358 -46.1317 111.275 -37.0163C134.391 1.61533 175.848 11.1018 217.206 15.5965C225.063 16.4506 233.046 17.1436 240.77 17.8087C243.396 18.0398 246.015 18.2638 248.627 18.4948C294.972 21.8763 342.015 30.0324 372.143 66.4238C386.209 83.1422 396.671 97.2703 405.072 110.88C410.338 119.415 414.801 127.802 418.321 135.811C425.724 152.081 436.032 183.537 421.827 211.324C418.544 216.953 414.417 222.561 409.556 228.014L409.549 228.021C401.573 236.332 392.194 242.906 383.122 249.263C373.603 255.935 363.756 262.831 355.759 271.645C346.387 281.593 335.729 291.122 324.451 301.203C288.288 333.527 250.896 366.95 256.833 415.173C258.62 430.778 261.624 446.46 264.529 461.618C270.465 492.618 276.604 524.676 272.358 556.937C271.164 565.149 269.327 572.941 266.903 580.11C258.655 604.481 243.486 622.949 220.537 636.566C209.021 644.344 196.897 651.688 184.501 658.388C155.916 674.092 125.578 686.561 94.3389 695.445C63.3654 704.252 31.3932 709.58 -0.690674 711.26C-8.15643 711.673 -15.6292 711.869 -23.1019 711.869ZM-17.871 -300.003C-58.587 -300.003 -94.3165 -273.826 -123.802 -252.221C-125.814 -250.814 -127.811 -249.42 -129.795 -248.034C-136.981 -243.008 -143.769 -238.261 -150.495 -233.759C-156.948 -228.41 -163.513 -222.46 -169.959 -216.096C-176.07 -210.061 -182.118 -203.655 -188.431 -196.5C-199.214 -183.436 -209.075 -169.616 -217.463 -157.686C-219.055 -155.425 -220.641 -153.156 -222.226 -150.902C-225.173 -146.694 -228.225 -142.34 -231.235 -138.104C-252.571 -106.306 -277.867 -79.6316 -308.547 -56.5632C-334.513 -37.3874 -357.755 -14.9701 -383.91 16.1284C-392.556 26.595 -400.434 37.2365 -407.32 47.759C-422.391 70.7784 -433.439 94.295 -440.158 117.65C-442.56 125.982 -444.46 134.481 -445.822 142.917C-454.621 195.047 -468.938 244.53 -487.739 302.778C-508.802 366.817 -495.1 434.412 -481.845 499.773C-480.434 506.739 -478.974 513.936 -477.591 520.965C-474.302 529.409 -469.693 537.558 -463.903 545.112C-443.056 572.339 -406.272 592.285 -365.493 598.467C-355.353 601.498 -345.533 604.641 -336.273 607.806C-292.847 622.641 -258.06 639.066 -226.814 659.488C-215.103 665.817 -202.958 671.669 -190.736 676.878C-69.0208 728.763 67.6326 721.804 184.179 657.772C196.555 651.086 208.665 643.756 220.174 635.978C242.991 622.438 258.055 604.096 266.254 579.886C268.663 572.759 270.493 565.002 271.68 556.838C275.913 524.697 269.781 492.695 263.851 461.751C260.946 446.579 257.943 430.883 256.148 415.257C250.163 366.677 287.694 333.128 323.99 300.685C335.262 290.611 345.905 281.096 355.256 271.169C363.295 262.299 373.177 255.381 382.731 248.688C391.775 242.352 401.126 235.8 409.053 227.538C413.879 222.12 417.979 216.554 421.226 210.981C435.292 183.467 425.053 152.249 417.699 136.091C414.186 128.11 409.745 119.744 404.493 111.237C396.112 97.6624 385.664 83.5554 371.627 66.8649C341.666 30.6696 294.79 22.5624 248.592 19.1879C245.98 18.9569 243.361 18.7257 240.735 18.5017C233.011 17.8296 225.021 17.1365 217.157 16.2824C175.624 11.7668 133.972 2.23141 110.695 -36.6803C105.73 -45.8796 102.531 -55.9471 101.427 -65.7905C100.331 -76.2011 101.511 -86.1146 104.933 -95.2649C108.663 -105.822 113.971 -117.458 119.593 -129.773C129.985 -152.54 141.766 -178.346 144.693 -201.309C148.031 -227.486 139.413 -246.347 118.336 -258.963C83.053 -280.183 42.9376 -289.536 1.49524 -298.001C-5.09753 -299.373 -11.5436 -300.003 -17.871 -300.003Z" fill="#FE6019"/>
<path d="M-22.4384 744.221C-91.2156 744.221 -157.493 729.673 -219.439 700.99C-229.364 696.397 -239.246 691.391 -248.821 686.106C-289.572 661.504 -331.817 642.783 -371.409 626.212C-378.728 623.152 -386.619 619.883 -396.997 615.626C-427.035 603.991 -468.184 588.056 -485.281 552.148C-490.616 541.57 -494.828 530.053 -497.796 517.92C-509.361 450.654 -515.968 392.237 -518 339.31C-516.834 325.966 -515.018 313.378 -512.441 300.797C-507.105 268.795 -498.417 236.878 -490.009 206.01C-483.87 183.467 -477.521 160.154 -472.437 136.735C-469.448 124.168 -465.851 111.693 -461.745 99.6577C-451.213 68.7692 -437.036 39.694 -419.604 13.2371C-401.488 -14.2559 -379.74 -39.0886 -354.955 -60.5747C-345.554 -69.9981 -335.616 -79.1485 -325.434 -87.7597C-315.915 -95.8039 -305.537 -103.939 -293.706 -112.62C-290.954 -115.106 -288.161 -117.542 -285.465 -119.901C-277.042 -127.26 -269.081 -134.219 -261.468 -143.026C-226.535 -186.796 -194.221 -225.554 -152.478 -256.512C-143.818 -262.932 -134.816 -268.953 -125.716 -274.414C-119.947 -277.459 -114.186 -280.575 -108.089 -283.872C-104.073 -286.043 -100.015 -288.241 -95.9157 -290.432C-86.69 -295.375 -75.7533 -301.13 -64.5721 -306.374C-7.33929 -337.073 55.6133 -322.945 98.3407 -305.681C107.147 -302.152 116.108 -302.635 125.592 -303.146C132.659 -303.531 139.965 -303.923 147.388 -302.572C157.878 -300.955 166.385 -292.078 167.167 -281.933C174.374 -218.546 166.496 -158.267 143.75 -102.798C140.502 -94.7607 138.561 -85.7995 138.128 -76.8802C137.688 -67.7928 138.735 -58.9785 141.257 -50.6823C147.137 -31.1355 160.204 -17.8195 181.197 -9.98535C199.67 -3.09634 221.313 -1.47214 241.95 -0.751007C245.889 -0.610992 249.779 -0.505981 253.55 -0.407959C257.657 -0.295959 261.533 -0.190918 265.311 -0.0509033C320.777 -1.99719 363.365 11.0528 395.49 39.834C423.189 64.3796 444.832 99.6857 453.387 134.285C456.439 146.628 457.842 158.732 457.542 170.263C458.052 194.676 449.343 214.573 433.65 224.836C370.258 264.819 283.448 319.574 278.657 401.976C277.121 429.343 284.321 458.026 291.284 485.764C302.088 528.8 313.255 573.298 293.268 615.668C288.644 624.223 282.708 632.023 275.619 638.877C268.112 646.144 259.068 652.578 248.731 658.01C237.844 665.732 226.453 673.098 214.915 679.868C143.212 721.965 61.1376 744.221 -22.4384 744.221ZM9.91785 -323.736C-14.5117 -323.736 -39.9051 -318.822 -64.2578 -305.758C-75.439 -300.514 -86.3687 -294.759 -95.5875 -289.83C-99.687 -287.632 -103.745 -285.441 -107.76 -283.27C-113.864 -279.973 -119.626 -276.857 -125.381 -273.812C-134.446 -268.372 -143.427 -262.365 -152.066 -255.959C-193.739 -225.05 -226.025 -186.327 -260.938 -142.585C-268.592 -133.729 -276.568 -126.762 -285.011 -119.383C-287.707 -117.024 -290.493 -114.588 -293.273 -112.088C-305.118 -103.393 -315.482 -95.2719 -324.987 -87.2347C-335.155 -78.6374 -345.079 -69.5011 -354.487 -60.0707C-403.548 -17.5395 -439.41 36.2704 -461.095 99.8747C-465.195 111.895 -468.785 124.35 -471.767 136.882C-476.851 160.315 -483.199 183.635 -489.345 206.192C-497.747 237.046 -506.435 268.949 -511.763 300.916V300.93C-514.333 313.49 -516.149 326.05 -517.309 339.324C-515.276 392.182 -508.67 450.563 -497.111 517.773C-494.164 529.836 -489.974 541.303 -484.652 551.84C-467.674 587.503 -426.672 603.382 -396.739 614.975C-386.347 619.239 -378.455 622.501 -371.136 625.561C-331.524 642.139 -289.243 660.874 -248.471 685.496C-238.924 690.761 -229.056 695.76 -219.146 700.353C-157.29 729.001 -91.1108 743.521 -22.4384 743.521C61.0119 743.521 142.968 721.3 214.566 679.252C226.083 672.489 237.459 665.137 248.368 657.401C258.683 651.976 267.679 645.577 275.137 638.359C282.17 631.554 288.065 623.803 292.646 615.332C312.522 573.207 301.383 528.834 290.607 485.918C283.63 458.131 276.415 429.399 277.959 401.92C280.054 365.837 297.528 332.239 331.372 299.208C360.005 271.26 395.909 247.792 433.266 224.234C448.749 214.111 457.347 194.43 456.837 170.249C457.13 158.767 455.74 146.726 452.702 134.439C444.175 99.9728 422.616 64.7997 395.016 40.3451C363.029 11.6899 320.602 -1.29007 265.304 0.635193C261.498 0.495178 257.622 0.390137 253.522 0.278137C249.751 0.180115 245.861 0.0751038 241.915 -0.0649109C221.215 -0.79303 199.509 -2.41721 180.946 -9.34122C159.736 -17.2594 146.536 -30.7153 140.586 -50.4862C138.044 -58.8595 136.982 -67.7578 137.429 -76.9222C137.869 -85.9185 139.832 -94.9638 143.107 -103.071C165.805 -158.435 173.662 -218.595 166.475 -281.877C165.721 -291.721 157.466 -300.318 147.277 -301.893C139.923 -303.23 132.659 -302.838 125.627 -302.46C116.066 -301.942 107.029 -301.452 98.0823 -305.044C73.6806 -314.901 42.6722 -323.736 9.91785 -323.736Z" fill="#FE6019"/>
</g>
<defs>
<filter id="filter0_d_88_21607" x="-522" y="-324.426" width="983.582" height="1076.65" filterUnits="userSpaceOnUse" color-interpolation-filters="sRGB">
<feFlood flood-opacity="0" result="BackgroundImageFix"/>
<feColorMatrix in="SourceAlpha" type="matrix" values="0 0 0 0 0 0 0 0 0 0 0 0 0 0 0 0 0 0 127 0" result="hardAlpha"/>
<feOffset dy="4"/>
<feGaussianBlur stdDeviation="2"/>
<feComposite in2="hardAlpha" operator="out"/>
<feColorMatrix type="matrix" values="0 0 0 0 0 0 0 0 0 0 0 0 0 0 0 0 0 0 0.25 0"/>
<feBlend mode="normal" in2="BackgroundImageFix" result="effect1_dropShadow_88_21607"/>
<feBlend mode="normal" in="SourceGraphic" in2="effect1_dropShadow_88_21607" result="shape"/>
</filter>
</defs>
</svg>
