<svg width="14" height="14" viewBox="0 0 14 14" fill="none" xmlns="http://www.w3.org/2000/svg">
<path d="M1.00065 13.6673H13.0007C13.1775 13.6673 13.347 13.5971 13.4721 13.4721C13.5971 13.347 13.6673 13.1775 13.6673 13.0007V3.00065C13.6673 2.82384 13.5971 2.65427 13.4721 2.52925C13.347 2.40422 13.1775 2.33398 13.0007 2.33398H10.334V1.00065C10.334 0.82384 10.2637 0.654271 10.1387 0.529246C10.0137 0.404222 9.84413 0.333984 9.66732 0.333984C9.49051 0.333984 9.32094 0.404222 9.19591 0.529246C9.07089 0.654271 9.00065 0.82384 9.00065 1.00065V2.33398H5.00065V1.00065C5.00065 0.82384 4.93041 0.654271 4.80539 0.529246C4.68036 0.404222 4.5108 0.333984 4.33398 0.333984C4.15717 0.333984 3.9876 0.404222 3.86258 0.529246C3.73756 0.654271 3.66732 0.82384 3.66732 1.00065V2.33398H1.00065C0.82384 2.33398 0.654271 2.40422 0.529246 2.52925C0.404222 2.65427 0.333984 2.82384 0.333984 3.00065V13.0007C0.333984 13.1775 0.404222 13.347 0.529246 13.4721C0.654271 13.5971 0.82384 13.6673 1.00065 13.6673ZM1.66732 3.66732H12.334V5.66732H1.66732V3.66732ZM1.66732 7.00065H12.334V12.334H1.66732V7.00065Z" fill="#666666"/>
</svg>
