<svg width="40" height="40" viewBox="0 0 40 40" fill="none" xmlns="http://www.w3.org/2000/svg">
<path d="M12.2961 2.13676C11.1576 2.41034 10.1692 3.22224 9.67503 4.28125C9.43675 4.78428 9.3838 5.01373 9.35732 5.69326L9.32202 6.51399H6.28621C3.43571 6.51399 3.22391 6.52281 2.76501 6.69931C2.17373 6.91994 1.52068 7.52887 1.22063 8.14662L1 8.58788V17.3247V26.0615L1.23828 26.5027C1.5295 27.0675 2.02371 27.5617 2.58851 27.853L3.02976 28.0912L10.7958 28.1177C18.3677 28.1354 18.5707 28.1354 18.8443 27.9677C19.1973 27.7471 19.312 27.3676 19.312 26.3968C19.312 25.5673 19.2237 25.3114 18.8707 25.1084C18.2442 24.7289 17.4234 25.0731 17.3175 25.7614L17.2557 26.1056H10.4075C4.05347 26.1056 3.54162 26.088 3.37394 25.9468C3.26804 25.8673 3.13566 25.7085 3.08271 25.6026C3.01211 25.4702 2.98564 23.0874 2.98564 17.2541C2.98564 9.17033 2.98564 9.0909 3.16214 8.87028C3.26804 8.7379 3.49749 8.5967 3.67399 8.54375C3.86814 8.4908 5.11247 8.4555 6.67451 8.4555H9.33967V9.92046V11.3854L9.58678 11.6325C9.75445 11.8002 9.97508 11.8973 10.231 11.9414C10.4428 11.9679 12.8256 11.9855 15.5172 11.9679C20.8299 11.9414 20.6357 11.959 20.9358 11.4472C21.0505 11.253 21.077 10.9442 21.077 9.82338V8.44667L23.9451 8.47315L26.8133 8.49962L27.0957 8.79085L27.3869 9.07325L27.431 10.9795L27.4752 12.8857L27.7223 13.0975C28.0664 13.3887 28.3665 13.4505 28.7901 13.3005C29.4255 13.0798 29.4696 12.8857 29.4431 10.6176C29.4167 8.69378 29.4167 8.6673 29.1696 8.1731C28.8607 7.54652 28.1459 6.87582 27.5546 6.66401C27.1751 6.53164 26.7603 6.51399 24.104 6.51399H21.077V5.95801C21.0682 4.14005 19.8856 2.61332 18.1206 2.14559C17.4499 1.97791 12.9932 1.96909 12.2961 2.13676ZM17.9971 4.29008C18.6413 4.62543 18.9855 5.17258 19.0296 5.94918L19.0649 6.51399H15.1642H11.2635L11.3253 5.95801C11.4047 5.28731 11.6254 4.83723 12.0313 4.5107C12.5696 4.0871 12.755 4.06062 15.2172 4.0518L17.5293 4.04297L17.9971 4.29008ZM19.0472 9.20563V9.95576H15.1642H11.2812V9.20563V8.4555H15.1642H19.0472V9.20563Z" fill="currentColor"/>
<path d="M27.4146 15.6921C25.7114 15.8509 25.1731 16.1068 25.0848 16.7952C25.0407 17.0688 25.076 17.2188 25.2437 17.4571C25.5614 17.916 25.7555 17.9513 27.1411 17.7659C28.1912 17.6247 28.4736 17.6159 29.2855 17.7042C31.5889 17.9601 33.4421 18.8691 35.0218 20.5105C36.1779 21.7196 36.8486 22.8845 37.2987 24.5171C37.5105 25.2672 37.537 25.5055 37.537 26.8116C37.537 28.1177 37.5105 28.356 37.2987 29.1061C36.8221 30.827 36.0367 32.142 34.7836 33.3422C33.5304 34.5512 32.2684 35.266 30.627 35.6985C29.8945 35.8926 29.5856 35.9279 28.4472 35.9279C27.2911 35.9279 27.0087 35.9014 26.2409 35.6985C25.0583 35.3808 24.8377 35.3896 24.4671 35.7602C24.1229 36.1044 24.0699 36.5192 24.2994 36.9604C24.4671 37.2958 24.7318 37.4282 25.6673 37.6576C28.4119 38.3283 31.1388 38.0106 33.6186 36.731C36.7162 35.1337 38.9137 32.0802 39.4873 28.5943C39.655 27.5529 39.6109 25.5143 39.3991 24.5348C38.6666 21.1812 36.478 18.3396 33.4863 16.8481C31.5801 15.895 29.5062 15.5067 27.4146 15.6921Z" fill="currentColor"/>
<path d="M22.6664 17.2541C22.5958 17.2806 22.3664 17.4218 22.1634 17.563C21.4927 18.0219 21.4486 18.9309 22.084 19.3192C22.4899 19.5663 22.8253 19.531 23.3901 19.178C23.999 18.7985 24.1667 18.4367 23.999 17.8807C23.8402 17.3512 23.2048 17.0512 22.6664 17.2541Z" fill="currentColor"/>
<path d="M19.3831 20.4223C19.2507 20.4929 18.9859 20.8194 18.783 21.1548C18.2093 22.152 18.3329 22.8757 19.136 23.1139C19.4184 23.2022 19.5243 23.1934 19.8067 23.0522C20.2038 22.858 20.8127 21.9314 20.8745 21.4195C20.9892 20.6076 20.1155 20.0163 19.3831 20.4223Z" fill="currentColor"/>
<path d="M27.9876 21.3842C27.4493 21.6137 27.4316 21.7372 27.4316 24.7907V27.5353L27.7317 27.8353L28.0317 28.1354H29.8056C31.8089 28.1354 32.0295 28.0824 32.2501 27.5617C32.409 27.1734 32.409 27.0411 32.2325 26.6792C32.0207 26.2203 31.6677 26.1056 30.4851 26.1056H29.4614V24.1112C29.4614 21.8696 29.4085 21.6401 28.8878 21.393C28.5348 21.2254 28.3583 21.2165 27.9876 21.3842Z" fill="currentColor"/>
<path d="M18.7214 29.821C18.0242 30.024 17.8918 30.7211 18.3772 31.7272C18.7302 32.4685 18.942 32.6362 19.498 32.6362C20.0098 32.6362 20.3275 32.4067 20.4687 31.9302C20.5658 31.6036 20.5482 31.5419 20.2128 30.8359C19.7627 29.8916 19.3833 29.6357 18.7214 29.821Z" fill="currentColor"/>
<path d="M21.5004 33.8364C21.0503 34.0746 20.8562 34.7277 21.1121 35.1778C21.1739 35.2925 21.3945 35.522 21.6063 35.6896C21.8887 35.9191 22.0741 35.9897 22.33 35.9897C23.0183 35.9897 23.3713 35.6279 23.3713 34.913C23.3713 34.6042 23.3184 34.4983 23.0095 34.207C22.4535 33.6775 21.9946 33.5628 21.5004 33.8364Z" fill="currentColor"/>
</svg>
