<svg width="40" height="40" viewBox="0 0 40 40" fill="none" xmlns="http://www.w3.org/2000/svg">
<path d="M19.2192 1.32031C18.8911 1.49218 18.5942 1.96875 18.5942 2.34375C18.5942 2.95312 19.0239 4.96875 19.3754 5.97656C19.5317 6.41406 19.5317 6.45312 19.4067 6.52343C19.0551 6.72656 18.5551 7.26562 18.3911 7.61718C18.0004 8.4375 18.1957 9.59375 18.8207 10.1875L19.0551 10.4141L17.3129 12.1406C15.4692 13.9687 14.7348 14.8672 13.8442 16.3594C12.6489 18.3594 12.1098 20.2578 12.1098 22.4375V23.5156H10.6332H9.15668L9.12543 22.7266C9.09418 21.9531 9.09418 21.9297 8.84418 21.7109L8.59418 21.4844H5.42231H2.25043L2.03168 21.7031C1.88324 21.8516 1.79731 22.0391 1.75824 22.2734C1.73481 22.4609 1.71918 25.6719 1.73481 29.4141C1.75043 34.7578 1.78168 36.25 1.85981 36.3828C2.08637 36.7891 2.18793 36.7969 5.43012 36.7969C8.78168 36.7969 8.82074 36.7891 9.03168 36.2891C9.09418 36.1406 9.14106 35.7891 9.14106 35.5C9.14106 35.1172 9.16449 34.9922 9.23481 35.0234C9.28949 35.0391 11.2739 35.8359 13.6332 36.7969C16.0004 37.75 18.1254 38.5781 18.3598 38.6484C18.5942 38.7109 19.1801 38.7812 19.6645 38.8047C20.9926 38.8672 21.9145 38.6172 23.9848 37.6328C24.8911 37.2031 37.0942 30.2266 37.5551 29.875C37.9379 29.5859 38.2114 28.9453 38.2114 28.3359C38.2114 27.4141 37.8364 26.875 36.8989 26.4375C36.3051 26.1562 35.2114 25.8594 34.7739 25.8594C34.5864 25.8594 34.5239 25.8281 34.5551 25.75C34.6723 25.4531 34.9223 24.5078 35.0082 24.0625C35.1645 23.2891 35.1332 21.3516 34.9692 20.4687C34.3754 17.4062 32.6176 14.6172 29.3364 11.5469C28.7348 10.9844 28.1957 10.4609 28.1411 10.3828C28.0551 10.2578 28.0786 10.1953 28.3129 9.89062C28.7817 9.26562 28.8754 8.28125 28.5239 7.59375C28.2973 7.15625 27.9379 6.75781 27.6567 6.64062C27.5317 6.58593 27.4223 6.50781 27.4223 6.46875C27.4223 6.42968 27.5473 5.98437 27.6879 5.47656C28.2582 3.50781 28.4145 2.21093 28.1254 1.73437C27.7348 1.10156 27.0629 1.00781 26.1254 1.45312C25.0864 1.94531 24.477 2.125 23.6723 2.16406C22.7661 2.21875 22.0707 2.04687 20.9457 1.51562C20.1176 1.125 19.6723 1.07812 19.2192 1.32031ZM21.2504 3.49218C22.9145 4.05468 24.1098 4.03906 25.8051 3.4375C26.1567 3.3125 26.4536 3.22656 26.477 3.24218C26.5161 3.28906 26.0629 5.08593 25.8364 5.74218L25.6489 6.28906L23.4536 6.3125L21.2661 6.32812L21.0239 5.60937C20.8989 5.21093 20.7192 4.60156 20.6411 4.25781C20.3598 3.10937 20.3676 3.17968 20.5239 3.24218C20.602 3.26562 20.9301 3.38281 21.2504 3.49218ZM26.8676 8.15625C27.0786 8.35156 27.0864 8.77343 26.8754 8.98437C26.727 9.13281 26.6176 9.14062 23.4457 9.14062H20.1645L20.0082 8.9375C19.7348 8.59375 19.8364 8.21875 20.2426 8.05468C20.3598 8.00781 21.6489 7.98437 23.5629 7.99218C26.5317 8.00781 26.7114 8.01562 26.8676 8.15625ZM27.2895 11.9297C29.8989 14.4687 30.5161 15.1484 31.4379 16.5078C32.3207 17.8125 32.9848 19.3047 33.2895 20.6641C33.352 20.9531 33.3989 21.625 33.3989 22.4219C33.3989 23.8359 33.2895 24.3906 32.8207 25.4219L32.602 25.9062L31.8286 26.1641C31.4067 26.2969 30.0551 26.8984 28.8286 27.4922C26.6957 28.5234 26.602 28.5625 26.5317 28.4062C26.4848 28.3125 26.3832 28.0859 26.2973 27.8906C26.0864 27.4297 25.5317 26.875 25.0395 26.6484C24.4614 26.375 23.9301 26.3281 21.4379 26.3281H19.1723L18.9379 26.0859C18.5551 25.6797 17.5707 24.9766 16.9067 24.6328C16.1723 24.25 14.8286 23.7812 14.2426 23.7031L13.8442 23.6562L13.7817 22.9766C13.6411 21.2266 14.1801 19.1562 15.2817 17.2969C16.0942 15.9062 16.8129 15.0469 18.9379 12.9219L20.977 10.8828L23.5786 10.8672L26.1801 10.8594L27.2895 11.9297ZM7.42231 29.1016V35.0781H6.61762C6.17231 35.0781 5.27387 35.1016 4.62543 35.1328L3.43793 35.1797V29.1562V23.125H5.43012H7.42231V29.1016ZM14.3129 25.4531C15.7036 25.8281 16.7504 26.4219 17.8754 27.4531L18.5161 28.0469H21.2114C23.5082 28.0469 23.9536 28.0625 24.2192 28.1719C25.0239 28.4922 25.1098 29.4609 24.3676 29.8594C24.1176 29.9922 23.8051 30 19.3989 30H14.7036L14.4614 30.2031C14.0473 30.5547 14.0629 31.2344 14.5004 31.5234C14.6645 31.6328 15.2426 31.6406 19.7114 31.625L24.727 31.6016L25.0786 31.4141C25.2739 31.3125 25.5551 31.1172 25.7036 30.9766C26.0629 30.6406 31.8598 27.8594 32.6489 27.6406C33.5004 27.4062 34.8754 27.4687 35.7036 27.7734C36.5395 28.0781 36.7192 28.2734 36.4301 28.5391C36.1645 28.7656 23.8676 35.8047 23.0082 36.2109C21.2661 37.0391 20.3442 37.2656 19.3598 37.1094C18.9223 37.0469 17.6332 36.5625 13.9692 35.1016L9.14106 33.1719V29.1953V25.2187L11.4301 25.25C13.4301 25.2812 13.7817 25.3047 14.3129 25.4531Z" fill="currentColor"/>
<path d="M23.4467 13.1484C23.1732 13.3047 23.056 13.5781 23.0482 14.0312V14.4297L22.6654 14.4766C22.1498 14.5391 21.7201 14.7656 21.3763 15.1719C20.9779 15.6406 20.8607 16.0938 20.8607 17.2344C20.8607 18.375 21.0013 18.8672 21.4623 19.3125C22.0013 19.8359 22.2982 19.9219 23.6576 19.9219C24.8217 19.9219 24.8607 19.9297 25.0404 20.1172C25.2201 20.2891 25.2357 20.3672 25.2357 21.0547C25.2357 22.1094 25.2279 22.1094 23.8842 22.1094C22.7045 22.1094 22.6654 22.0938 22.5092 21.5078C22.3217 20.8281 21.6185 20.6328 21.1263 21.125C20.806 21.4453 20.7748 21.7969 21.017 22.4453C21.2826 23.1484 22.0717 23.7422 22.7592 23.75H23.0482V24.1406C23.0482 24.5781 23.2045 24.9531 23.431 25.0781C23.517 25.1172 23.7279 25.1562 23.9076 25.1562C24.1654 25.1562 24.2826 25.1094 24.4623 24.9297C24.6654 24.7266 24.6888 24.6406 24.6888 24.2344V23.7734L25.1107 23.7266C25.6107 23.6797 25.9232 23.5312 26.2748 23.1719C26.7592 22.6875 26.8373 22.4375 26.8607 21.1406C26.8842 20.1875 26.8607 19.9141 26.7513 19.625C26.5717 19.1484 26.1342 18.6875 25.6654 18.4688C25.306 18.2969 25.1654 18.2812 24.056 18.2812C22.5248 18.2812 22.5795 18.3203 22.5795 17.1641C22.5795 16.0859 22.5638 16.0938 23.9232 16.0938C24.8217 16.0938 24.9388 16.1094 25.0795 16.25C25.1654 16.3359 25.2357 16.5078 25.2357 16.6484C25.2357 16.8047 25.3138 16.9609 25.4623 17.1172C25.6498 17.3047 25.7592 17.3438 26.056 17.3438C26.3529 17.3438 26.4623 17.3047 26.6498 17.1172C26.8451 16.9219 26.8763 16.8281 26.8763 16.4688C26.8763 15.4609 25.9388 14.4609 24.9857 14.4531H24.6888V13.9922C24.6888 13.6172 24.6498 13.4844 24.5092 13.3203C24.2982 13.0703 23.7435 12.9844 23.4467 13.1484Z" fill="currentColor"/>
</svg>
