<svg width="40" height="40" viewBox="0 0 40 40" fill="none" xmlns="http://www.w3.org/2000/svg">
<path d="M14.5324 1.41406C13.3058 1.63281 12.0558 2.27344 11.1808 3.14062C10.3292 3.97656 9.81362 4.875 9.46987 6.13281C9.29018 6.78906 9.29799 8.52344 9.48549 9.21875C9.68862 9.98438 10.1808 10.9375 10.6964 11.5781C10.9464 11.8906 13.0714 14.0547 15.4074 16.3828L19.6496 20.625H20.0011H20.3527L24.5949 16.3828C26.9308 14.0547 29.0558 11.8906 29.3058 11.5781C29.8214 10.9375 30.3136 9.98438 30.5167 9.21875C30.7042 8.52344 30.7121 6.78906 30.5324 6.13281C30.1886 4.875 29.673 3.97656 28.8292 3.14062C27.2589 1.58594 24.8683 0.96875 22.7355 1.5625C21.9777 1.78125 20.9308 2.32812 20.4152 2.78125L20.0011 3.14062L19.5949 2.78125C19.0792 2.32812 18.0246 1.78125 17.2667 1.5625C16.5871 1.375 15.1964 1.29688 14.5324 1.41406ZM17.1183 2.92188C17.8683 3.1875 18.423 3.53125 19.1496 4.19531C19.9542 4.9375 20.0558 4.94531 20.7667 4.27344C21.7121 3.38281 22.4152 2.99219 23.4621 2.78125C24.1964 2.625 24.7277 2.625 25.4308 2.77344C26.8527 3.07031 28.1808 4.10156 28.8214 5.39062C29.5558 6.88281 29.5558 8.34375 28.8214 9.84375C28.5011 10.5 28.4621 10.5469 24.2511 14.7656L20.0011 19.0234L15.7589 14.7656C11.0714 10.0625 11.1261 10.1328 10.7824 8.78125C10.0871 6.0625 11.9074 3.28906 14.7667 2.73438C15.3605 2.61719 16.5011 2.71094 17.1183 2.92188Z" fill="currentColor"/>
<path d="M18.2824 5.78125C18.1418 5.92188 18.1262 6.03906 18.1262 7.03125V8.125H17.0324C15.5324 8.125 15.6262 8 15.6262 10C15.6262 12 15.5324 11.875 17.0324 11.875H18.1262V12.9688C18.1262 14.4688 18.0012 14.375 20.0012 14.375C22.0012 14.375 21.8762 14.4688 21.8762 12.9688V11.875H22.9699C24.4699 11.875 24.3762 12 24.3762 10C24.3762 8 24.4699 8.125 22.9699 8.125H21.8762V7.03125C21.8762 5.53125 22.0012 5.625 20.0012 5.625C18.5402 5.625 18.4308 5.63281 18.2824 5.78125ZM20.6262 7.96875C20.6262 8.96094 20.6418 9.07813 20.7824 9.21875C20.923 9.35938 21.0402 9.375 22.0324 9.375H23.1262V10V10.625H22.0324C21.0402 10.625 20.923 10.6406 20.7824 10.7813C20.6418 10.9219 20.6262 11.0391 20.6262 12.0313V13.125H20.0012H19.3762V12.0313C19.3762 11.0391 19.3605 10.9219 19.2199 10.7813C19.0793 10.6406 18.9621 10.625 17.9699 10.625H16.8762V10V9.375H17.9699C18.9621 9.375 19.0793 9.35938 19.2199 9.21875C19.3605 9.07813 19.3762 8.96094 19.3762 7.96875V6.875H20.0012H20.6262V7.96875Z" fill="currentColor"/>
<path d="M4.47686 8.71094C3.40655 9 2.66436 9.92969 2.63311 11.0078C2.6253 11.2734 2.60186 11.4844 2.57842 11.4844C2.40655 11.4844 1.84405 12.1094 1.63311 12.5391C1.19561 13.4219 1.1878 13.3672 2.80499 19.4141C3.85967 23.3281 4.29717 24.8516 4.47686 25.1875C4.6878 25.5859 5.05499 25.9453 7.15655 27.8281C9.0628 29.5234 9.63311 30.0781 9.76592 30.3516C9.89874 30.625 9.94561 30.8984 9.97686 31.6016C10.0237 32.4844 10.0237 32.5 9.85186 32.5C9.76592 32.5 9.61749 32.5703 9.53155 32.6562C9.38311 32.8047 9.3753 32.9141 9.3753 35.625C9.3753 38.3359 9.38311 38.4453 9.53155 38.5938C9.6878 38.75 9.78936 38.75 14.3753 38.75C18.9612 38.75 19.0628 38.75 19.219 38.5938C19.3675 38.4453 19.3753 38.3359 19.3753 35.625C19.3753 32.9141 19.3675 32.8047 19.219 32.6562C19.1331 32.5703 18.9925 32.5 18.9065 32.5C18.7581 32.5 18.7581 32.4141 18.7347 28.9609L18.7112 25.4297L18.4925 24.8047C18.1175 23.7422 17.5003 22.875 16.6487 22.1875C16.4065 21.9922 14.8909 21.0625 13.2815 20.125L10.3519 18.4062L8.90655 14.2344C7.85967 11.2109 7.39092 9.96094 7.21124 9.69531C6.88311 9.23438 6.33624 8.86719 5.74249 8.71094C5.1878 8.57031 5.00811 8.57031 4.47686 8.71094ZM5.73467 10.1406C5.85967 10.2109 6.02374 10.3594 6.10186 10.4688C6.23467 10.6484 8.86749 18.1172 8.8128 18.1562C8.78155 18.1797 8.15655 18.3594 8.10186 18.3594C8.08624 18.3594 8.03936 18.2656 8.00811 18.1406C7.98467 18.0234 7.55499 16.6797 7.05499 15.1641L6.15655 12.3906L5.67217 11.9141C5.21124 11.4453 4.9378 11.2969 4.20342 11.1406C3.92999 11.0781 3.91436 10.8516 4.16436 10.4922C4.52374 9.96094 5.16436 9.8125 5.73467 10.1406ZM4.48467 12.6406C4.60967 12.7109 4.77374 12.8594 4.85967 12.9688C4.9378 13.0781 5.45342 14.5547 6.0003 16.25L7.0003 19.3359L6.84405 19.6875C6.73467 19.9375 6.6878 20.2109 6.67999 20.6641C6.67999 21.2188 6.71124 21.3516 6.9378 21.8125C7.07842 22.1016 7.3128 22.4375 7.46124 22.5547C7.60967 22.6797 8.58624 23.2734 9.64092 23.8906C11.6878 25.0703 11.9065 25.1484 12.2737 24.8516C12.5159 24.6562 12.5315 24.1328 12.305 23.9141C12.219 23.8359 11.344 23.3047 10.3519 22.7344C9.36749 22.1719 8.46124 21.6172 8.33624 21.5C7.69561 20.8906 8.0003 19.7969 8.89092 19.5234C9.16436 19.4453 9.26592 19.4453 9.53155 19.5547C9.70342 19.6172 11.1565 20.4375 12.7503 21.375C15.9612 23.25 16.4144 23.6016 16.93 24.5781C17.43 25.5156 17.4456 25.6484 17.4847 29.2422L17.5159 32.5H14.3909H11.2581L11.2347 31.3828C11.2112 30.3672 11.1956 30.2344 11.0003 29.8203C10.8831 29.5703 10.6878 29.25 10.5706 29.1094C10.4534 28.9688 9.38311 27.9922 8.20342 26.9375C5.8128 24.8047 5.67217 24.6641 5.54717 24.3438C5.29717 23.6641 2.71905 13.8984 2.71905 13.6094C2.71905 13.1797 2.97686 12.7891 3.39874 12.5781C3.7503 12.3984 4.10186 12.4219 4.48467 12.6406ZM18.1253 35.625V37.5H14.3753H10.6253V35.625V33.75H14.3753H18.1253V35.625Z" fill="currentColor"/>
<path d="M34.3203 8.67188C33.6797 8.80469 33.0938 9.21875 32.7109 9.8125C32.6094 9.97656 31.875 11.9844 31.0859 14.2656L29.6484 18.4141L26.7188 20.125C25.1094 21.0625 23.5859 22.0078 23.3203 22.2109C22.3828 22.9609 21.7109 24 21.4062 25.2031C21.2656 25.7578 21.25 26.0781 21.25 29.1563C21.25 32.4453 21.25 32.5 21.0938 32.5C21.0078 32.5 20.8672 32.5703 20.7812 32.6563C20.6328 32.8047 20.625 32.9141 20.625 35.625C20.625 38.3359 20.6328 38.4453 20.7812 38.5938C20.9375 38.75 21.0391 38.75 25.625 38.75C30.2109 38.75 30.3125 38.75 30.4688 38.5938C30.6172 38.4453 30.625 38.3359 30.625 35.625C30.625 32.9141 30.6172 32.8047 30.4688 32.6563C30.3828 32.5703 30.2344 32.5 30.1484 32.5C29.9766 32.5 29.9766 32.4844 30.0234 31.6016C30.0859 30.2344 30 30.3516 32.8047 27.8516C35.0547 25.8516 35.4453 25.4453 35.6875 24.8984C35.7422 24.7734 36.4219 22.2969 37.1953 19.3906C38.8047 13.375 38.7969 13.4219 38.3672 12.5391C38.1562 12.1094 37.5938 11.4844 37.4219 11.4844C37.3984 11.4844 37.375 11.2734 37.3672 11.0078C37.3359 9.91406 36.5859 8.99219 35.4922 8.71094C35.0078 8.58594 34.8125 8.57813 34.3203 8.67188ZM35.3438 10.0781C35.6953 10.25 36.0156 10.6563 36.0156 10.9219C36.0156 11.0469 35.9531 11.1016 35.8047 11.1328C35.3359 11.2266 35.0234 11.3516 34.6641 11.5859C33.9922 12.0313 33.8516 12.3438 32.8438 15.4688C32.3359 17.0391 31.9219 18.3281 31.9062 18.3438C31.8906 18.3672 31.25 18.2031 31.1875 18.1563C31.1719 18.1484 31.75 16.4453 32.4766 14.3672C33.4062 11.6875 33.8438 10.5234 33.9844 10.3672C34.1641 10.1641 34.6562 9.92969 34.9141 9.92188C34.9766 9.92188 35.1719 9.99219 35.3438 10.0781ZM36.5938 12.5781C36.9922 12.7734 37.2734 13.1719 37.2812 13.5625C37.2891 13.8359 34.9297 22.8438 34.5234 24.1172C34.3359 24.6797 34.1875 24.8359 31.3281 27.3594C30.3203 28.25 29.4062 29.1016 29.3125 29.25C28.8672 29.9063 28.75 30.3594 28.75 31.4609V32.5H25.6172H22.4844L22.5156 29.2422C22.5547 25.6484 22.5703 25.5156 23.0703 24.5781C23.5859 23.5938 24.0391 23.25 27.2578 21.3672C28.8672 20.4297 30.3203 19.6094 30.4844 19.5469C30.7344 19.4453 30.8359 19.4453 31.1094 19.5234C32 19.7969 32.3047 20.8906 31.6641 21.5C31.5391 21.6172 30.6406 22.1719 29.6484 22.7344C28.6641 23.3047 27.7812 23.8359 27.6953 23.9141C27.4688 24.1328 27.4844 24.6563 27.7266 24.8516C28.0938 25.1484 28.3281 25.0625 30.2188 23.9766C31.1953 23.4063 32.1406 22.8438 32.3203 22.7188C33.2344 22.1016 33.6016 20.7188 33.1406 19.6641L33 19.3438L33.5312 17.6953C33.8281 16.7969 34.2812 15.3906 34.5391 14.5859C35.0547 12.9766 35.2031 12.7266 35.7422 12.5391C36.1562 12.3906 36.2266 12.3984 36.5938 12.5781ZM29.375 35.625V37.5H25.625H21.875V35.625V33.75H25.625H29.375V35.625Z" fill="currentColor"/>
</svg>
