<svg width="40" height="40" viewBox="0 0 40 40" fill="none" xmlns="http://www.w3.org/2000/svg">
<g clip-path="url(#clip0_140_2301)">
<path d="M28.4141 1.48436C27.8359 1.6328 27.4531 1.90624 26.3281 3.01561L25.1875 4.14061L25.0547 3.86717C24.875 3.49217 24.3594 2.9453 23.9219 2.66405C22.8438 1.98436 21.2656 2.03124 20.1797 2.78124C18.6484 3.83592 18.3359 6.14061 19.5234 7.61717C19.7656 7.90624 20.4297 8.46092 20.6406 8.53905C20.7031 8.55467 20.2656 9.05467 19.6094 9.73436C18.2031 11.1719 18.0859 11.375 18.0859 12.4219C18.0859 13.539 18.1406 13.6172 20.2266 15.7187C22.1094 17.625 22.2734 17.7422 22.7734 17.5781C23.1641 17.4453 23.2812 17.2265 23.3125 16.5312C23.3516 15.8203 23.5703 15.3828 24.0625 15.039C24.4453 14.7734 25.1172 14.6875 25.5859 14.8437C25.9844 14.9765 26.5 15.5078 26.625 15.9062C26.9844 17.1094 26.1875 18.125 24.8906 18.125C24.3906 18.125 24.3438 18.1406 24.0938 18.3906C23.7969 18.6875 23.75 19 23.9375 19.3594C24.0703 19.6094 25.5859 21.1172 25.8359 21.2422C26.2109 21.4375 26.7344 21.2812 26.9219 20.9297C27.1172 20.539 27.0625 20.2656 26.7031 19.8672C26.4844 19.6406 26.4062 19.4922 26.4688 19.4765C26.7422 19.3828 27.3359 18.8984 27.625 18.539C28.9844 16.8672 28.3906 14.3437 26.4219 13.414C25.9297 13.1797 25.8516 13.164 25 13.164C24.1328 13.164 24.0781 13.1719 23.5547 13.4297C22.9453 13.7344 22.3594 14.2656 22.1094 14.7656L21.9375 15.1015L21.0391 14.2109C19.8828 13.0703 19.6875 12.8047 19.6875 12.3984C19.6875 12.0859 19.7344 12.0312 21.3984 10.3594C22.3359 9.40624 23.1641 8.54686 23.2344 8.43749C23.4453 8.11717 23.3984 7.7578 23.0938 7.45311C22.8438 7.20311 22.7969 7.18749 22.3125 7.18749C21.7266 7.18749 21.3203 7.04686 20.9922 6.73436C20.3203 6.10155 20.2578 5.1328 20.8359 4.46092C21.2031 4.02342 21.6094 3.82811 22.125 3.82811C23.1406 3.83592 23.8281 4.55467 23.8281 5.62499C23.8281 5.89061 23.875 6.1953 23.9375 6.3203C24.1328 6.6953 24.6484 6.82811 25.0625 6.60936C25.1797 6.54686 26.0312 5.73436 26.9531 4.81249C28.7656 2.98436 28.875 2.91405 29.3906 3.15624C29.7109 3.31249 31.8047 5.39061 31.6328 5.39061C31.4062 5.39061 30.6328 6.01561 30.3125 6.46092C29.4766 7.6328 29.4844 9.28124 30.3438 10.4453C31.2812 11.7265 33.0625 12.1406 34.5312 11.4297C35.0312 11.1875 35.7656 10.4844 35.9688 10.0469L36.1094 9.74217L37.125 10.75C37.6797 11.3047 38.1875 11.8515 38.25 11.9687C38.3828 12.2187 38.3906 12.6015 38.2734 12.8359C38.2266 12.9297 37.4141 13.7812 36.4766 14.7344C34.7812 16.4375 34.7656 16.4531 34.7656 16.789C34.7656 17.4219 34.9922 17.6015 35.8281 17.625C36.7188 17.6484 37.3828 18.1172 37.5859 18.8437C37.9375 20.1719 36.625 21.3906 35.3516 20.9062C34.6641 20.6406 34.1172 19.7187 34.2578 19.0703C34.3203 18.7656 34.1172 18.3359 33.8594 18.2109C33.75 18.164 33.5391 18.125 33.3828 18.125C33.125 18.125 33.0078 18.2109 32.0781 19.1406C31.0625 20.1484 31.0547 20.1562 31.0547 20.5156C31.0547 20.8203 31.0938 20.9062 31.3203 21.1094C31.5547 21.3203 31.625 21.3437 31.9297 21.3047C32.1953 21.2734 32.3516 21.2031 32.5781 20.9765L32.8672 20.6953L33.0703 21.0312C34.2812 23.0859 37.3281 23.2031 38.6953 21.25C39.3594 20.2969 39.4844 18.9687 39 17.9375C38.7266 17.3515 38.1719 16.7187 37.6719 16.4297L37.3359 16.2265L38.4609 15.0859C39.7969 13.7344 39.9375 13.5078 39.9844 12.5781C40.0078 12.0234 39.9844 11.8359 39.8359 11.4453C39.6797 11.0156 39.5 10.8125 37.8984 9.1953C36.9297 8.21092 36.0391 7.35936 35.9219 7.29686C35.5859 7.12499 35.2656 7.16405 34.9844 7.41405C34.7422 7.62499 34.7344 7.66405 34.7188 8.27342C34.7031 8.82811 34.6719 8.96092 34.4766 9.28124C33.9375 10.1562 32.9219 10.3906 32.0781 9.83592C31.0156 9.1328 31.1172 7.53124 32.2578 6.93749C32.6016 6.7578 32.7734 6.71874 33.2344 6.71874C33.8828 6.71874 34.0859 6.61717 34.2188 6.21092C34.3828 5.71092 34.2656 5.54686 32.3594 3.65624C30.9141 2.20311 30.5078 1.84374 30.1406 1.67967C29.6484 1.45311 28.8828 1.36717 28.4141 1.48436Z" fill="currentColor"/>
<path d="M4.7033 15.1484C3.5158 15.5547 2.65642 16.6172 2.50799 17.8516C2.38299 18.8984 2.67205 19.8438 3.3283 20.5469C3.53142 20.7656 3.67986 20.9531 3.66424 20.9688C3.64861 20.9844 3.05486 21.3203 2.35174 21.7266C0.867362 22.5781 0.586112 22.8047 0.273613 23.3672C-0.00763747 23.8906 -0.093575 24.8516 0.101738 25.4141C0.273613 25.9297 2.46892 29.6953 2.73455 29.9375C3.0783 30.2578 3.4533 30.2344 3.79705 29.8906C3.94549 29.7422 4.06267 29.5469 4.06267 29.4453C4.07049 28.8672 4.73455 28.125 5.38299 27.9688C6.41424 27.7266 7.44549 28.5313 7.4533 29.6016C7.4533 30.5938 6.59392 31.4219 5.67986 31.3047C4.52361 31.1563 4.4533 31.1484 4.2658 31.2813C3.97674 31.4688 3.85955 31.9297 4.00799 32.2656C4.27361 32.8828 6.41424 36.4688 6.67986 36.7422C7.23455 37.3359 8.30486 37.6328 9.11736 37.4297C9.32049 37.375 10.1017 36.9844 10.8517 36.5547C12.2267 35.7578 12.3361 35.7266 12.3439 36.1016C12.3439 36.3984 12.9142 37.3438 13.2892 37.6875C14.9846 39.2109 17.6486 38.6953 18.6174 36.6641C18.8517 36.1641 18.8674 36.0859 18.8674 35.2344C18.8674 34.3906 18.8517 34.3047 18.6252 33.8203C18.4846 33.5391 18.2267 33.1484 18.0392 32.9531L17.6955 32.6016L18.9767 31.8672C19.6799 31.4609 20.4064 31 20.5939 30.8359C21.2189 30.2891 21.5392 29.2344 21.3361 28.375C21.2814 28.1563 20.8986 27.3984 20.4611 26.6328C20.0392 25.8906 19.7111 25.2578 19.7424 25.2344C19.7814 25.2031 19.9767 25.1328 20.1799 25.0781C21.0471 24.8438 21.8908 24.0625 22.2736 23.125C22.4221 22.7734 22.4533 22.5469 22.4533 21.875C22.4611 21.1094 22.4455 21.0156 22.2111 20.5234C21.2189 18.4375 18.5939 17.8906 16.8908 19.4219L16.5002 19.7656L15.7424 18.4609C15.3283 17.7344 14.8596 17.0156 14.7033 16.8516C14.2971 16.4297 13.7346 16.1563 13.1564 16.1094C12.2971 16.0469 12.0705 16.125 10.5549 16.9922L9.14861 17.7969L9.0158 17.3594C8.94549 17.1172 8.80486 16.7734 8.7033 16.6016C8.49236 16.2344 7.8908 15.6406 7.50017 15.4063C6.78924 14.9922 5.50017 14.875 4.7033 15.1484ZM6.52361 16.7891C7.16424 17.0781 7.54705 17.7422 7.47674 18.4219C7.4533 18.625 7.40642 18.9922 7.37517 19.2344C7.3283 19.6563 7.33611 19.6953 7.56267 19.9219C7.85955 20.2188 8.25799 20.2344 8.71111 19.9766C12.2814 17.9063 12.6096 17.7344 12.8986 17.7344C13.1174 17.7344 13.2658 17.7891 13.4299 17.9453C13.5549 18.0703 14.1799 19.0625 14.8049 20.1563C15.4299 21.25 16.0158 22.2109 16.1096 22.2891C16.633 22.7344 17.3596 22.4141 17.4689 21.6719C17.5705 20.9844 18.1877 20.3438 18.8908 20.1953C19.3049 20.1094 19.8752 20.2891 20.2658 20.6328C21.6799 21.875 20.3283 24.0781 18.5236 23.4766C18.0314 23.3125 17.7267 23.375 17.4611 23.6875C17.1096 24.1016 17.1564 24.2344 18.4846 26.5234C19.2189 27.7969 19.7189 28.7422 19.7424 28.9063C19.8049 29.4297 19.6408 29.5703 17.3752 30.8672C15.8596 31.7422 15.2502 32.1328 15.1408 32.3047C14.8283 32.8047 15.1877 33.4375 15.8517 33.5547C16.3127 33.6328 16.8674 34.0313 17.0939 34.4531C17.3517 34.9453 17.3205 35.6953 17.008 36.1563C16.3439 37.1641 14.8283 37.1641 14.1564 36.1563C13.9767 35.875 13.9455 35.7578 13.9533 35.2813C13.9611 34.9766 13.9924 34.5313 14.0236 34.2969C14.0783 33.8984 14.0627 33.8516 13.8674 33.6563C13.7502 33.5391 13.5314 33.4219 13.3908 33.3906C13.0939 33.3359 13.0939 33.3359 10.1564 35.0313C8.85174 35.7891 8.67986 35.8672 8.41424 35.8359C8.24236 35.8125 8.02361 35.7109 7.92205 35.6172C7.75017 35.4531 6.49236 33.3594 6.36736 33.0313C6.32049 32.9219 6.35174 32.8906 6.50799 32.8906C6.85955 32.8906 7.7658 32.3672 8.19549 31.9141C9.2033 30.8516 9.3908 29.3516 8.69549 28.0234C7.71111 26.1484 5.07049 25.6953 3.53142 27.1484L3.1408 27.5078L2.3908 26.1953C1.55486 24.7344 1.48455 24.4453 1.82049 24.0469C1.91424 23.9375 2.8908 23.3281 3.98455 22.6953C5.0783 22.0703 6.06267 21.4688 6.16424 21.3672C6.29705 21.2344 6.35174 21.1016 6.35174 20.8672C6.35174 20.3203 6.16424 20.1563 5.3283 19.9297C5.14861 19.875 4.87517 19.7266 4.71892 19.5938C3.78142 18.7734 3.98455 17.3672 5.11736 16.7734C5.43767 16.6016 6.13299 16.6094 6.52361 16.7891Z" fill="currentColor"/>
<path d="M28.4688 22.0625C28.2656 22.2656 28.2031 22.3906 28.2031 22.6172C28.2031 23 28.6172 23.4375 28.9766 23.4375C29.3125 23.4375 29.6406 23.2578 29.75 23.0078C30.0312 22.3984 29.6406 21.7969 28.9766 21.7969C28.8047 21.7969 28.6562 21.875 28.4688 22.0625Z" fill="currentColor"/>
</g>
<defs>
<clipPath id="clip0_140_2301">
<rect width="40" height="40" fill="white"/>
</clipPath>
</defs>
</svg>
