<svg width="40" height="40" viewBox="0 0 40 40" fill="none" xmlns="http://www.w3.org/2000/svg">
<path d="M1.21875 4.29688C0.84375 4.41406 0.390625 4.78125 0.1875 5.11719L0 5.44531V8.96094C0 12.2344 0.0078125 12.5156 0.15625 13.0938C0.367188 13.9062 0.648438 14.4922 1.27344 15.4062C1.91406 16.3516 2.10938 16.9297 2.10938 17.8984C2.10938 18.2812 1.95312 21.9062 1.75781 25.9531C1.5625 30 1.42969 33.4375 1.45312 33.5859C1.60938 34.4141 2.20312 35.1562 2.99219 35.5156C3.39062 35.6953 3.57812 35.7344 4.07812 35.7344C4.58594 35.7344 4.75 35.6953 5.1875 35.4766C5.79688 35.1797 6.25781 34.6875 6.48438 34.0938C6.65625 33.625 6.67969 32.6016 6.57812 30.2969C6.53125 29.3359 6.5 29.1328 6.375 28.9922C6.17188 28.7656 5.6875 28.7656 5.46094 28.9922C5.30469 29.1484 5.29688 29.1875 5.35156 31.2812C5.40625 33.3594 5.40625 33.4141 5.24219 33.7344C4.92969 34.3438 4.19531 34.6562 3.625 34.4141C3.21875 34.25 2.97656 34.0156 2.80469 33.625C2.66406 33.3125 2.66406 33.1875 2.9375 27.3359C3.08594 24.0547 3.22656 21.25 3.25 21.1094L3.28906 20.8594H4.10156H4.91406L4.95312 21.1094C4.97656 21.25 5.03125 22.5938 5.07812 24.1016C5.17969 27.2109 5.17969 27.2031 5.76562 27.25C6.00781 27.2656 6.125 27.2344 6.24219 27.1172C6.44531 26.9141 6.44531 26.9922 6.24219 21.9766C6.15625 19.7969 6.10156 17.7969 6.11719 17.5391C6.17969 16.7969 6.375 16.2969 6.91406 15.5156C7.53125 14.6094 7.83594 14.0078 8.0625 13.2656C8.22656 12.7188 8.23438 12.5391 8.26562 9.15625C8.28906 5.66406 8.28906 5.60938 8.125 5.27344C7.67969 4.35938 6.46875 3.97656 5.57812 4.48438L5.27344 4.65625L4.9375 4.46875C4.47656 4.21094 3.76562 4.19531 3.26562 4.44531L2.89844 4.61719L2.58594 4.46094C2.22656 4.27344 1.54688 4.19531 1.21875 4.29688ZM2.13281 5.71875C2.25781 5.86719 2.26562 6.14844 2.26562 9.27344V12.6641L2.46094 12.8516C2.57812 12.9766 2.74219 13.0469 2.89062 13.0469C3.03906 13.0469 3.20312 12.9766 3.32031 12.8516L3.51562 12.6641V9.27344C3.51562 6.08594 3.52344 5.86719 3.65625 5.69531C3.83594 5.47656 4.22656 5.46094 4.45312 5.66406C4.60156 5.80469 4.60938 5.89844 4.60938 9.10156C4.60938 11.2031 4.64062 12.4844 4.6875 12.6328C4.83594 13.0391 5.30469 13.1641 5.65625 12.8828L5.85938 12.7266V9.40625C5.85938 6.5625 5.875 6.05469 5.97656 5.85156C6.19531 5.4375 6.64844 5.39844 6.92969 5.77344C7.07812 5.96094 7.07031 11.8906 6.92188 12.5781C6.77344 13.2734 6.49219 13.875 5.97656 14.6094C5.05469 15.9219 4.8125 16.7656 4.86719 18.4922L4.89844 19.6094H4.10938H3.32031L3.34375 18.3594C3.38281 16.5703 3.19531 15.9531 2.17188 14.4453C1.88281 14.0234 1.58594 13.4688 1.47656 13.1562C1.28906 12.6172 1.28906 12.6016 1.28906 9.14062V5.67188L1.48438 5.57031C1.71875 5.45312 1.94531 5.50781 2.13281 5.71875Z" fill="currentColor"/>
<path d="M38.3195 4.67969C37.1007 4.97656 36.0929 6.46875 35.1242 9.39063C34.2882 11.9063 34.0851 13.625 34.2961 16.4141C34.4445 18.2813 34.9054 20.6797 35.4289 22.2656L35.6242 22.8516L35.4289 25.625C35.1789 29.1641 35.1789 29.0859 35.4367 29.2891C35.7804 29.5547 36.2492 29.4453 36.3976 29.0703C36.4367 28.9609 36.5539 27.6484 36.6554 26.1484L36.8273 23.4375H37.5929C38.0148 23.4375 38.3586 23.4453 38.3586 23.4531C38.3586 23.4688 38.4445 25.4297 38.5539 27.8125C38.8273 33.8828 38.8351 33.6641 38.3039 34.1484C37.8117 34.6094 37.1711 34.6094 36.632 34.1641C36.2101 33.8047 36.1554 33.5625 36.2179 32.3516L36.2726 31.2813L36.0539 31.1094C35.7882 30.8984 35.4679 30.8906 35.2336 31.0781C35.0773 31.2031 35.0461 31.3359 34.9836 32.0781C34.8273 33.8984 35.0695 34.6328 36.0617 35.3125C36.5773 35.6719 37.2648 35.8203 37.882 35.7109C38.1554 35.6563 38.4836 35.5625 38.6164 35.5C39.0461 35.2734 39.5539 34.7344 39.7726 34.2578C40.0617 33.6563 40.0617 33.6563 39.7961 27.5469L39.5851 22.7813L39.7961 15.0078C40.0461 5.64063 40.0461 5.78906 39.8507 5.40625C39.6711 5.04688 39.4914 4.88281 39.1164 4.72656C38.8117 4.60156 38.6867 4.59375 38.3195 4.67969ZM38.6086 12.875C38.507 16.6406 38.4054 20.2813 38.382 20.9531L38.3351 22.1875H37.5304H36.7257L36.5304 21.5391C35.5461 18.2656 35.2101 14.4219 35.7101 12.0234C36.1398 9.9375 37.0461 7.57031 37.7882 6.60156C38.1476 6.14063 38.5851 5.82031 38.7023 5.9375C38.757 5.99219 38.7257 8.16406 38.6086 12.875Z" fill="currentColor"/>
<path d="M18.3202 7.69532C13.3123 8.50782 9.24984 12.0859 7.85141 16.9219C7.27328 18.9141 7.19516 21.1797 7.62484 23.2813C8.09359 25.5234 9.36703 27.8906 11.0389 29.5938C14.3202 32.9453 19.078 34.2656 23.617 33.0859C28.4608 31.8281 32.1717 27.8203 33.0936 22.8516C33.3202 21.6563 33.2967 19.0859 33.0545 17.9688C32.328 14.5859 30.4139 11.6797 27.6639 9.81251C27.2186 9.50782 26.9295 9.46095 26.6639 9.64845C26.4764 9.78126 26.367 10.1484 26.4452 10.3828C26.4686 10.4688 26.7967 10.75 27.1717 11.0234C28.0233 11.6406 29.2733 12.8906 29.8748 13.7344C30.4764 14.5859 31.1639 15.9531 31.4686 16.9141C31.9139 18.3281 31.992 18.875 31.992 20.5469C31.992 21.8594 31.9686 22.1875 31.8123 22.8828C31.2811 25.2578 30.3045 27.0391 28.5936 28.7578C26.8514 30.5156 25.0077 31.5156 22.578 32.0391C21.4061 32.2891 19.2264 32.2969 18.078 32.0469C15.6561 31.5234 13.7967 30.5156 12.0623 28.7891C10.3436 27.0781 9.33578 25.2266 8.82016 22.8125C8.58578 21.7266 8.56234 19.4766 8.77328 18.4141C9.71859 13.6953 13.242 10.1016 17.953 9.03907C18.5936 8.89845 18.953 8.87501 20.3123 8.8672C22.0155 8.8672 22.492 8.9297 23.7967 9.33595C24.5545 9.57032 24.8748 9.57813 25.078 9.37501C25.2811 9.17188 25.2889 8.72657 25.0858 8.52345C24.9061 8.34376 23.9842 8.03907 22.9139 7.8047C21.8983 7.58595 19.367 7.53126 18.3202 7.69532Z" fill="currentColor"/>
<path d="M18.5234 10.5938C16.1016 11 13.7031 12.4922 12.1953 14.5313C11.1328 15.9531 10.3125 18.125 10.3125 19.4844C10.3125 19.8359 10.3438 19.9375 10.4844 20.0313C10.7969 20.2578 11.3281 20.1641 11.4375 19.8672C11.4688 19.7891 11.5469 19.4297 11.6094 19.0625C12.1953 15.6406 14.6875 12.9141 18.0859 11.9766C18.8125 11.7734 18.9766 11.7578 20.3125 11.7578C21.6484 11.7578 21.8125 11.7734 22.5312 11.9766C25.1328 12.6953 27.1875 14.4219 28.3281 16.8359C29.2266 18.7266 29.3984 21.1016 28.7734 23.0859C28.3125 24.5469 27.6641 25.625 26.5703 26.7266C24.9297 28.375 22.9766 29.25 20.7031 29.3516C18.1719 29.4609 15.9062 28.5703 14.0938 26.7656C12.9141 25.5938 12.1484 24.25 11.75 22.6719C11.5391 21.8359 11.3984 21.6406 10.9844 21.6406C10.8125 21.6406 10.6719 21.7031 10.5469 21.8359C10.3906 22.0078 10.375 22.0703 10.4219 22.4766C10.4922 23.1094 10.9609 24.4531 11.375 25.2344C12.6484 27.625 14.8828 29.4688 17.4062 30.2031C21.0781 31.2734 24.9375 30.2656 27.5625 27.5469C28.7969 26.2656 29.6562 24.75 30.0938 23.0703C30.4062 21.8672 30.4844 20.1641 30.2812 18.9141C29.6094 14.6797 26.2969 11.3281 22.0547 10.5859C21.2188 10.4375 19.4141 10.4453 18.5234 10.5938Z" fill="currentColor"/>
</svg>
