<svg width="40" height="40" viewBox="0 0 40 40" fill="none" xmlns="http://www.w3.org/2000/svg">
<g clip-path="url(#clip0_140_2255)">
<path d="M27.6016 0.1875C27.3906 0.367188 27.3828 0.414062 27.3594 1.15625L27.3281 1.9375L26.9688 2.07031C26.7656 2.14844 26.4297 2.29688 26.2188 2.39844L25.8438 2.58594L25.3125 2.07812C24.8047 1.58594 24.7656 1.5625 24.4062 1.5625H24.0312L22.6406 2.95312C21.4141 4.17188 21.25 4.36719 21.25 4.59375V4.84375L11.7422 4.85938L2.22656 4.88281L1.75781 5.10938C1.15625 5.40625 0.5625 6 0.265625 6.60156L0.0390625 7.07031V18.75V30.4297L0.265625 30.8984C0.5625 31.5 1.15625 32.0938 1.75781 32.3906L2.22656 32.6172L8.85156 32.6406L15.4688 32.6562V33.9844V35.3125H14.2578C12.7266 35.3125 12.375 35.4219 11.6719 36.125C11.0859 36.7109 10.875 37.2188 10.8047 38.1953C10.7422 39.1016 10.8125 39.5469 11.0703 39.7969L11.2734 40H18.8203H26.375L26.5938 39.7734L26.8125 39.5469L26.7812 38.4219C26.7578 37.3828 26.7422 37.2734 26.5391 36.8594C26.2578 36.2891 25.6094 35.6875 25.0391 35.4766C24.6641 35.3359 24.4297 35.3125 23.3594 35.3125H22.1094V33.9844V32.6562L28.7734 32.6406L35.4297 32.6172L35.9219 32.3594C36.5781 32.0156 37.0625 31.5156 37.3672 30.875L37.6172 30.3516L37.6406 23.5547L37.6562 16.7578L38.0078 16.4062C38.6406 15.7656 38.6172 15.375 37.8906 14.6484L37.4219 14.1719L37.6016 13.7891C37.7031 13.5703 37.8516 13.2344 37.9297 13.0312L38.0625 12.6719L38.8438 12.6406C39.5859 12.6172 39.6328 12.6094 39.8125 12.3984L40 12.1797V10.1562V8.13281L39.8125 7.91406C39.6328 7.70312 39.5859 7.69531 38.8516 7.67188L38.0703 7.64062L37.7578 6.875L37.4453 6.10156L37.9062 5.64844C38.3906 5.16406 38.5234 4.86719 38.4297 4.49219C38.3828 4.33594 37.9141 3.80469 37.0078 2.90625L35.6562 1.5625H35.2812C34.9219 1.5625 34.875 1.58594 34.3984 2.05469L33.8906 2.54688L33.125 2.23438L32.3594 1.92969L32.3281 1.14844C32.3047 0.414062 32.2969 0.367188 32.0859 0.1875L31.8672 0H29.8438H27.8203L27.6016 0.1875ZM30.7031 2.21094C30.7031 3.10156 30.8594 3.29688 31.7578 3.50781C31.9766 3.5625 32.5469 3.79688 33.0312 4.03125C34.1172 4.57031 34.2344 4.5625 34.8438 3.94531L35.2656 3.51562L35.875 4.11719L36.4844 4.71875L36.0547 5.15625C35.4375 5.77344 35.4375 5.88281 35.9688 6.96875C36.2031 7.45312 36.4375 8.02344 36.4922 8.24219C36.7031 9.14062 36.8984 9.29688 37.7891 9.29688H38.4375V10.1562V11.0156H37.7812C36.9141 11.0156 36.7188 11.1562 36.5312 11.9297C36.4609 12.2266 36.2031 12.8516 35.9688 13.3359C35.4297 14.4219 35.4297 14.5391 36.0547 15.1562L36.4844 15.5781L35.8828 16.1875L35.2812 16.7969L34.8438 16.3672C34.2266 15.7578 34.0391 15.7344 33.1953 16.1953C32.8359 16.3906 32.2266 16.6406 31.8359 16.7578C31.3359 16.9141 31.0703 17.0312 30.9219 17.1953C30.7188 17.4062 30.7031 17.4688 30.7031 18.0859V18.75H29.8438H28.9844V18.0859C28.9844 17.4688 28.9688 17.4062 28.7734 17.1953C28.6172 17.0391 28.375 16.9141 27.9688 16.7969C27.6484 16.7109 27.0234 16.4531 26.5938 16.2344C25.6016 15.7422 25.4531 15.75 24.8438 16.3672L24.4219 16.7969L23.8125 16.1953L23.2031 15.5938L23.6328 15.1562C24.2422 14.5391 24.2578 14.3594 23.7969 13.4922C23.6016 13.125 23.3516 12.5078 23.2344 12.1328C23.0938 11.6484 22.9609 11.3828 22.8047 11.2266C22.5938 11.0312 22.5312 11.0156 21.9141 11.0156H21.25V10.1562V9.29688H21.9141C22.5312 9.29688 22.5938 9.28125 22.8047 9.07812C22.9609 8.92969 23.0938 8.66406 23.2344 8.17969C23.3516 7.80469 23.6016 7.1875 23.7969 6.82031C24.2578 5.95312 24.2422 5.77344 23.6328 5.15625L23.2031 4.71875L23.8125 4.11719L24.4219 3.51562L24.8438 3.94531C25.4609 4.57031 25.5781 4.57031 26.6641 4.03125C27.1484 3.79688 27.7734 3.53906 28.0703 3.46875C28.8438 3.28125 28.9844 3.08594 28.9844 2.21875V1.5625H29.8438H30.7031V2.21094ZM22.0703 6.53906C22.0391 6.61719 21.9297 6.89062 21.8359 7.14844L21.6562 7.61719L20.8594 7.65625C20.1094 7.69531 20.0547 7.71094 19.875 7.91406L19.6875 8.13281V10.1562V12.1797L19.875 12.3984C20.0547 12.6094 20.1094 12.6172 20.8672 12.6562L21.6641 12.6953L21.7969 13.0859C21.875 13.3047 22.0078 13.6328 22.1016 13.8203L22.2812 14.1641L21.8047 14.6406C21.2969 15.1562 21.1641 15.4453 21.2578 15.8203C21.3047 15.9766 21.7734 16.5078 22.6797 17.4062L24.0312 18.75H24.4062C24.7578 18.75 24.8047 18.7266 25.3125 18.2344L25.8438 17.7266L26.0938 17.8516C26.2344 17.9219 26.5625 18.0625 26.8281 18.1641L27.3047 18.3438L27.3438 19.1406C27.3828 19.8906 27.3984 19.9453 27.6016 20.125L27.8203 20.3125H29.8438H31.8672L32.0859 20.125C32.2969 19.9453 32.3047 19.8906 32.3438 19.1328L32.3828 18.3359L32.7734 18.2031C32.9922 18.125 33.3203 17.9922 33.5078 17.8984L33.8438 17.7266L34.375 18.2344C34.8672 18.7109 34.9297 18.75 35.2578 18.75C35.4922 18.75 35.6719 18.6953 35.8125 18.5859L36.0156 18.4219L36 24.2344L35.9766 30.0469L35.7812 30.3281C35.4922 30.7578 35.0625 31 34.5078 31.0547C34.2422 31.0781 26.9922 31.0938 18.3984 31.0781L2.77344 31.0547L2.40625 30.8359C2.16406 30.6953 1.96094 30.4922 1.82031 30.2578C1.63281 29.9297 1.60938 29.8125 1.57812 28.8594L1.53906 27.8125L16.25 27.7969L30.9531 27.7734L31.1797 27.5156C31.5 27.1641 31.5 26.7188 31.1797 26.3984L30.9531 26.1719H16.2578H1.5625V25.0781V23.9844H4.72656H7.89844L8.08594 23.7969C8.4375 23.4453 8.4375 22.9609 8.08594 22.6094L7.89844 22.4219H4.72656H1.55469L1.57812 15.0156C1.60156 7.96094 1.60938 7.60156 1.75 7.34375C2.02344 6.82812 2.34375 6.59375 2.89062 6.47656C3.03906 6.44531 7.42969 6.42188 12.6484 6.41406C21.6484 6.40625 22.125 6.41406 22.0703 6.53906ZM20.4688 33.9844V35.3125H18.7891H17.1094V33.9844V32.6562H18.7891H20.4688V33.9844ZM24.5312 37.0781C24.9219 37.3047 25.1562 37.6875 25.1562 38.0938V38.4375H18.7812H12.3984L12.4531 38.1094C12.5547 37.5 12.9141 37.0781 13.4453 36.9531C13.5938 36.9141 16.0859 36.8906 18.9844 36.8984C24.1484 36.9141 24.2656 36.9141 24.5312 37.0781Z" fill="currentColor"/>
<path d="M28.5938 5.4375C26.9375 5.86719 25.5391 7.28125 25.1172 8.94531C24.9688 9.53906 24.9688 10.7734 25.1172 11.3672C25.5469 13.0547 26.9453 14.4531 28.6328 14.8828C29.2266 15.0312 30.4609 15.0312 31.0547 14.8828C32.7422 14.4531 34.1406 13.0547 34.5703 11.3672C34.7188 10.7734 34.7188 9.53906 34.5703 8.94531C34.1406 7.25781 32.7422 5.85938 31.0547 5.42969C30.4688 5.28125 29.1719 5.28125 28.5938 5.4375ZM31.1875 7.24219C31.875 7.5625 32.4375 8.125 32.7578 8.8125C32.9922 9.29688 33.0078 9.39844 33.0078 10.1562C33.0078 10.9141 32.9922 11.0156 32.7578 11.5C32.4375 12.1875 31.875 12.75 31.1875 13.0703C30.7031 13.3047 30.6016 13.3203 29.8438 13.3203C29.0859 13.3203 28.9844 13.3047 28.5 13.0703C27.8125 12.75 27.25 12.1875 26.9297 11.5C26.6953 11.0156 26.6797 10.9141 26.6797 10.1562C26.6797 9.42188 26.7031 9.28906 26.8984 8.875C27.2969 8.01562 27.8203 7.51562 28.7266 7.14062C29.1172 6.97656 29.2812 6.95312 29.9219 6.96875C30.5703 6.99219 30.7344 7.02344 31.1875 7.24219Z" fill="currentColor"/>
<path d="M10.992 9.30469C10.7733 9.4375 10.6248 9.86719 10.6248 10.3828V10.8438L10.2655 11.0469L9.89828 11.25L9.48422 11.0156C8.92172 10.7031 8.46859 10.6953 8.19516 10.9922C8.08578 11.1172 7.68734 11.7422 7.32016 12.3906C6.57797 13.6797 6.50766 13.9531 6.79672 14.3203C6.89047 14.4375 7.13266 14.625 7.34359 14.7422L7.73422 14.9609V15.4062V15.8516L7.30453 16.0938C6.40609 16.6094 6.41391 16.8203 7.39047 18.5391C7.99984 19.6094 8.18734 19.875 8.39828 19.9766C8.71859 20.1328 9.06234 20.0703 9.53109 19.7734L9.88266 19.5547L10.2498 19.7578L10.6092 19.9609L10.6405 20.5625C10.6639 21.1016 10.6873 21.1953 10.8827 21.3828L11.0936 21.6016L12.742 21.625L14.3827 21.6484L14.6483 21.3828C14.9061 21.125 14.9217 21.0859 14.9217 20.5625V20.0156L15.2967 19.7812L15.6639 19.5547L16.1327 19.8203C16.6483 20.1094 17.0702 20.1328 17.3436 19.8828C17.4217 19.8125 17.8045 19.1953 18.203 18.5C19.1717 16.8203 19.1717 16.5703 18.1795 16.0391L17.8045 15.8281L17.828 15.3984L17.8514 14.9688L18.2967 14.7109C19.1639 14.2031 19.1483 13.9453 18.203 12.2969C17.8045 11.6172 17.4139 10.9922 17.328 10.9141C17.0858 10.7031 16.5936 10.7422 16.1014 11.0156L15.6795 11.25L15.3045 11.0312L14.9217 10.8203V10.25C14.9217 9.71875 14.9061 9.65625 14.6952 9.44531L14.4686 9.21875H12.7967C11.7577 9.21875 11.078 9.25781 10.992 9.30469ZM13.2811 11.1719C13.2811 11.7812 13.4295 11.9844 14.0858 12.2891C14.3905 12.4375 14.7811 12.6641 14.953 12.8047C15.3202 13.1016 15.7108 13.125 16.1873 12.8828C16.4452 12.75 16.5155 12.7422 16.578 12.8281C16.6795 12.9844 16.953 13.5 16.953 13.5469C16.953 13.5703 16.8123 13.6641 16.6405 13.75C16.4764 13.8359 16.2889 13.9844 16.242 14.0859C16.1795 14.1953 16.1405 14.6797 16.1327 15.4297L16.117 16.6016L16.367 16.8359C16.5077 16.9609 16.6952 17.125 16.7967 17.1875L16.9764 17.3125L16.7498 17.7109L16.5233 18.1094L16.1717 17.9219C15.6561 17.6562 15.4139 17.6797 14.8983 18.0547C14.6483 18.2266 14.2655 18.4531 14.0311 18.5547C13.4608 18.8047 13.2811 19.0547 13.2811 19.5781V20H12.7733H12.2655V19.5625C12.2655 19.3281 12.2264 19.0625 12.1795 18.9766C12.1405 18.8906 11.8358 18.6953 11.5155 18.5469C11.1952 18.3906 10.8358 18.1875 10.7186 18.0938C10.2186 17.6719 9.90609 17.6328 9.40609 17.9297L9.07797 18.125L8.96859 17.9453C8.90609 17.8516 8.79672 17.6641 8.71859 17.5234L8.59359 17.2734L8.93734 17.0703C9.12484 16.9609 9.31234 16.8047 9.34359 16.7344C9.37484 16.6641 9.40609 16.0703 9.42172 15.4297C9.43734 14.1172 9.41391 14.0391 8.92953 13.7422C8.76547 13.6484 8.61703 13.5547 8.60922 13.5469C8.58578 13.5312 8.94516 12.8594 9.03891 12.7422C9.05453 12.7188 9.20297 12.7812 9.36703 12.875C9.82016 13.1328 10.1952 13.1016 10.6639 12.7656C10.8827 12.6094 11.2733 12.3828 11.5311 12.2656C12.1405 11.9844 12.2655 11.8125 12.2655 11.2344V10.7812H12.7733H13.2811V11.1719Z" fill="currentColor"/>
<path d="M12.2416 14.7969C11.8354 15.1719 11.8823 15.7656 12.3432 16.0781C13.1401 16.6172 14.0463 15.5156 13.3666 14.8359C13.0619 14.5313 12.5463 14.5156 12.2416 14.7969Z" fill="currentColor"/>
<path d="M10.0541 22.6172C9.84319 22.8359 9.76506 23.0937 9.82756 23.3984C9.93694 23.9687 10.7729 24.2031 11.2026 23.7812C11.4916 23.4844 11.4916 22.9219 11.2026 22.625C10.9135 22.3359 10.3432 22.3359 10.0541 22.6172Z" fill="currentColor"/>
<path d="M33.1799 26.3594C32.7502 26.7578 32.8674 27.4766 33.3986 27.7031C34.2189 28.0469 34.9299 27.0234 34.3049 26.3984C34.0002 26.0938 33.4846 26.0781 33.1799 26.3594Z" fill="currentColor"/>
<path d="M18.2572 28.7109C18.0463 28.9297 17.9682 29.1875 18.0307 29.4922C18.1401 30.0703 18.976 30.2969 19.3979 29.8594C19.6947 29.5469 19.6947 29.0156 19.4057 28.7188C19.1166 28.4297 18.5463 28.4297 18.2572 28.7109Z" fill="currentColor"/>
</g>
<defs>
<clipPath id="clip0_140_2255">
<rect width="40" height="40" fill="white"/>
</clipPath>
</defs>
</svg>
