<svg width="24" height="24" viewBox="0 0 24 24" fill="none" xmlns="http://www.w3.org/2000/svg">
<path d="M5.90819 21.2461H18.1023C20.2019 21.2461 21.2463 20.2017 21.2463 18.1325V5.86723C21.2463 3.79809 20.2019 2.75366 18.1023 2.75366H5.90819C3.81891 2.75366 2.75391 3.78823 2.75391 5.86723V18.1329C2.75391 20.212 3.81891 21.2461 5.90819 21.2461ZM5.93819 19.6295C4.93405 19.6295 4.37133 19.0972 4.37133 18.0524V5.94866C4.37133 4.90381 4.93405 4.37152 5.93819 4.37152H18.0723C19.0666 4.37152 19.6293 4.90381 19.6293 5.94866V18.0515C19.6293 19.0964 19.0666 19.6287 18.0723 19.6287L5.93819 19.6295ZM10.7498 17.0079C11.081 17.0079 11.3523 16.8472 11.5632 16.5258L16.526 8.72066C16.646 8.52952 16.7669 8.29852 16.7669 8.07781C16.7669 7.61581 16.3653 7.32438 15.9432 7.32438C15.6719 7.32438 15.4208 7.48509 15.2403 7.78638L10.7103 15.0485L8.36948 12.0254C8.14876 11.7339 7.90748 11.6234 7.63662 11.6234C7.19433 11.6234 6.84291 11.9748 6.84291 12.4269C6.84291 12.6481 6.93291 12.8688 7.08376 13.0599L9.88662 16.5352C10.1575 16.8567 10.4185 17.0075 10.7502 17.0075" fill="currentColor"/>
</svg>
