<svg width="24" height="24" viewBox="0 0 24 24" fill="none" xmlns="http://www.w3.org/2000/svg">
<path d="M19.0078 16.9839C18.2708 16.9794 17.558 17.2464 17.0053 17.7339L7.00777 12.7539C7.00777 12.6639 7.00777 12.5739 7.00777 12.4839C7.00777 12.3939 7.00777 12.3039 7.00777 12.2139L17.0053 7.23387C17.5163 7.692 18.1691 7.96103 18.8545 7.99609C19.54 8.03114 20.2167 7.8301 20.7718 7.4265C21.327 7.0229 21.727 6.44115 21.905 5.7783C22.0831 5.11545 22.0285 4.41159 21.7503 3.78413C21.4721 3.15668 20.9872 2.64358 20.3765 2.33044C19.7657 2.0173 19.0661 1.92305 18.3942 2.06341C17.7224 2.20377 17.119 2.57026 16.6847 3.10174C16.2504 3.63321 16.0115 4.29753 16.0078 4.98387C16.0107 5.30887 16.069 5.63099 16.1803 5.93637L6.47527 10.7889C6.11329 10.2602 5.59157 9.8614 4.98652 9.65071C4.38146 9.44003 3.72485 9.42859 3.11282 9.61806C2.50079 9.80752 1.96549 10.188 1.5853 10.7036C1.20511 11.2193 1 11.8432 1 12.4839C1 13.1246 1.20511 13.7484 1.5853 14.2641C1.96549 14.7798 2.50079 15.1602 3.11282 15.3497C3.72485 15.5392 4.38146 15.5277 4.98652 15.317C5.59157 15.1063 6.11329 14.7075 6.47527 14.1789L16.1803 19.0314C16.069 19.3368 16.0107 19.6589 16.0078 19.9839C16.0078 20.5772 16.1837 21.1572 16.5134 21.6506C16.843 22.1439 17.3115 22.5284 17.8597 22.7555C18.4079 22.9826 19.0111 23.042 19.593 22.9262C20.175 22.8105 20.7095 22.5247 21.1291 22.1052C21.5487 21.6856 21.8344 21.1511 21.9501 20.5691C22.0659 19.9872 22.0065 19.384 21.7794 18.8358C21.5523 18.2876 21.1678 17.8191 20.6745 17.4895C20.1811 17.1598 19.6011 16.9839 19.0078 16.9839ZM19.0078 3.48387C19.3044 3.48387 19.5945 3.57185 19.8411 3.73667C20.0878 3.90149 20.2801 4.13576 20.3936 4.40985C20.5071 4.68394 20.5368 4.98554 20.479 5.27651C20.4211 5.56748 20.2782 5.83475 20.0684 6.04453C19.8587 6.25431 19.5914 6.39717 19.3004 6.45505C19.0094 6.51293 18.7078 6.48322 18.4337 6.36969C18.1597 6.25616 17.9254 6.0639 17.7606 5.81723C17.5957 5.57055 17.5078 5.28054 17.5078 4.98387C17.5078 4.58605 17.6658 4.20452 17.9471 3.92321C18.2284 3.64191 18.6099 3.48387 19.0078 3.48387ZM4.00777 13.9839C3.7111 13.9839 3.42109 13.8959 3.17442 13.7311C2.92774 13.5663 2.73548 13.332 2.62195 13.0579C2.50842 12.7838 2.47872 12.4822 2.53659 12.1912C2.59447 11.9003 2.73733 11.633 2.94711 11.4232C3.15689 11.2134 3.42417 11.0706 3.71514 11.0127C4.00611 10.9548 4.30771 10.9845 4.5818 11.0981C4.85589 11.2116 5.09015 11.4038 5.25498 11.6505C5.4198 11.8972 5.50777 12.1872 5.50777 12.4839C5.50777 12.8817 5.34974 13.2632 5.06843 13.5445C4.78713 13.8258 4.4056 13.9839 4.00777 13.9839ZM19.0078 21.4839C18.7111 21.4839 18.4211 21.3959 18.1744 21.2311C17.9277 21.0663 17.7355 20.832 17.622 20.5579C17.5084 20.2838 17.4787 19.9822 17.5366 19.6912C17.5945 19.4003 17.7373 19.133 17.9471 18.9232C18.1569 18.7134 18.4242 18.5706 18.7151 18.5127C19.0061 18.4548 19.3077 18.4845 19.5818 18.5981C19.8559 18.7116 20.0902 18.9038 20.255 19.1505C20.4198 19.3972 20.5078 19.6872 20.5078 19.9839C20.5078 20.3817 20.3497 20.7632 20.0684 21.0445C19.7871 21.3258 19.4056 21.4839 19.0078 21.4839Z" fill="currentColor"/>
</svg>
