<svg width="24" height="24" viewBox="0 0 24 24" fill="none" xmlns="http://www.w3.org/2000/svg">
<path d="M11.8325 13.667C14.1337 13.667 15.9991 11.8016 15.9991 9.50052C15.9991 7.1994 14.1337 5.33398 11.8325 5.33398C9.53144 5.33398 7.66602 7.1994 7.66602 9.50052C7.66602 11.8016 9.53144 13.667 11.8325 13.667Z" stroke="currentColor" stroke-width="2" stroke-miterlimit="10" stroke-linecap="round" stroke-linejoin="round"/>
<path d="M15.4174 17.25L17.084 19.2499C18.0006 20.3332 17.1673 21.9998 15.834 21.9998H7.9176C6.50097 21.9998 5.751 20.3332 6.66764 19.2499L8.33425 17.25" stroke="currentColor" stroke-width="2" stroke-miterlimit="10" stroke-linecap="round" stroke-linejoin="round"/>
<path d="M20.9993 16.9995H2.66661C1.74998 16.9995 1 16.2495 1 15.3329V3.66661C1 2.74998 1.74998 2 2.66661 2H20.9993C21.916 2 22.666 2.74998 22.666 3.66661V15.3329C22.666 16.2495 21.916 16.9995 20.9993 16.9995Z" stroke="currentColor" stroke-width="2" stroke-miterlimit="10" stroke-linecap="round" stroke-linejoin="round"/>
<path d="M19.3326 5.33398H17.666" stroke="currentColor" stroke-width="2" stroke-miterlimit="10" stroke-linecap="round" stroke-linejoin="round"/>
<path d="M11.8333 10.3326C12.2935 10.3326 12.6666 9.95954 12.6666 9.49932C12.6666 9.0391 12.2935 8.66602 11.8333 8.66602C11.3731 8.66602 11 9.0391 11 9.49932C11 9.95954 11.3731 10.3326 11.8333 10.3326Z" stroke="currentColor" stroke-width="2" stroke-miterlimit="10" stroke-linecap="round" stroke-linejoin="round"/>
</svg>
