<svg width="23" height="23" viewBox="0 0 23 23" fill="none" xmlns="http://www.w3.org/2000/svg">
<path d="M11.1234 6.64648C8.67725 6.64648 6.64648 8.6311 6.64648 11.1234C6.64648 13.6157 8.6311 15.6003 11.1234 15.6003C13.5696 15.6003 15.6003 13.6157 15.6003 11.1234C15.6003 8.6311 13.5696 6.64648 11.1234 6.64648ZM11.1234 14.3542C9.32341 14.3542 7.84648 12.8773 7.84648 11.0773C7.84648 9.27725 9.32341 7.80033 11.1234 7.80033C12.9234 7.80033 14.4003 9.27725 14.4003 11.0773C14.3542 12.8773 12.8773 14.3542 11.1234 14.3542Z" fill="#FE6019"/>
<path d="M21.8308 13.8923C22.0615 13.0154 22.2 12.0462 22.2 11.0769C22.2 10.1077 22.0615 9.18462 21.8308 8.26154H20.5846C20.4 7.56923 20.1231 6.92308 19.8 6.32308L20.6769 5.44615C19.7077 3.83077 18.3692 2.44615 16.7077 1.47692L15.8308 2.35385C15.2308 2.03077 14.5846 1.75385 13.8923 1.56923V0.369231C13.0154 0.138462 12.0462 0 11.0769 0C10.1077 0 9.18462 0.138462 8.26154 0.369231V1.61538C7.61538 1.8 6.96923 2.07692 6.36923 2.4L5.44615 1.52308C3.78462 2.49231 2.44615 3.87692 1.47692 5.49231L2.35385 6.36923C2.03077 6.96923 1.75385 7.61538 1.56923 8.30769H0.369231C0.138462 9.18462 0 10.1077 0 11.0769C0 12.0462 0.138462 12.9692 0.369231 13.8923H1.61538C1.8 14.5846 2.07692 15.2308 2.4 15.8308L1.52308 16.7077C2.49231 18.3231 3.83077 19.7077 5.49231 20.6769L6.36923 19.8C6.96923 20.1231 7.61538 20.4 8.30769 20.5846V21.8308C9.18462 22.0615 10.1538 22.2 11.1231 22.2C12.0923 22.2 13.0154 22.0615 13.9385 21.8308V20.5846C14.6308 20.4 15.2769 20.1231 15.8769 19.8L16.7538 20.6769C18.3692 19.7077 19.7538 18.3692 20.7231 16.7077L19.8462 15.8308C20.1692 15.2308 20.4462 14.5846 20.6308 13.8923H21.8308ZM19.1538 16.8923C18.8308 17.3077 18.5077 17.7231 18.0923 18.0923C17.7231 18.4615 17.3077 18.8308 16.8923 19.1538L16.0154 18.2769C15.0462 18.9692 13.8923 19.4308 12.6923 19.6615V20.8615C12.1846 20.9538 11.6308 21 11.0769 21C10.5231 21 10.0154 20.9538 9.46154 20.8615V19.6615C8.26154 19.4308 7.10769 18.9692 6.13846 18.2769L5.26154 19.1538C4.84615 18.8308 4.43077 18.4615 4.06154 18.0923C3.69231 17.7231 3.32308 17.3077 3 16.8923L3.87692 16.0154C3.18462 15.0462 2.72308 13.8923 2.49231 12.6923H1.29231C1.2 12.1846 1.15385 11.6308 1.15385 11.0769C1.15385 10.5231 1.2 10.0154 1.29231 9.46154H2.53846C2.76923 8.26154 3.23077 7.10769 3.92308 6.13846L3.04615 5.26154C3.36923 4.84615 3.73846 4.43077 4.10769 4.06154C4.47692 3.69231 4.89231 3.32308 5.30769 3L6.18462 3.87692C7.15385 3.18462 8.30769 2.72308 9.50769 2.49231V1.29231C10.0154 1.2 10.5692 1.15385 11.1231 1.15385C11.6769 1.15385 12.1846 1.2 12.7385 1.29231V2.53846C13.9385 2.76923 15.0923 3.23077 16.0615 3.92308L16.9385 3.04615C17.3538 3.36923 17.7692 3.69231 18.1385 4.10769C18.5077 4.47692 18.8769 4.89231 19.2 5.30769L18.3231 6.18462C19.0154 7.15385 19.4769 8.30769 19.7077 9.50769H20.9538C21.0462 10.0154 21.0923 10.5692 21.0923 11.1231C21.0923 11.6769 21.0462 12.1846 20.9538 12.7385H19.7077C19.4769 13.9385 19.0154 15.0923 18.3231 16.0615L19.1538 16.8923Z" fill="currentColor"/>
</svg>
