<svg width="20" height="20" viewBox="0 0 20 20" fill="none" xmlns="http://www.w3.org/2000/svg">
<path d="M11.6667 7.75098V10.1676H13.8333C14 10.1676 14.0833 10.3343 14.0833 10.501L13.75 12.0843C13.75 12.1676 13.5833 12.251 13.5 12.251H11.6667V18.3343H9.16667V12.3343H7.75C7.58333 12.3343 7.5 12.251 7.5 12.0843V10.501C7.5 10.3343 7.58333 10.251 7.75 10.251H9.16667V7.50098C9.16667 6.08431 10.25 5.00098 11.6667 5.00098H13.9167C14.0833 5.00098 14.1667 5.08431 14.1667 5.25098V7.25098C14.1667 7.41764 14.0833 7.50098 13.9167 7.50098H11.9167C11.75 7.50098 11.6667 7.58431 11.6667 7.75098Z" stroke="currentColor" stroke-miterlimit="10" stroke-linecap="round"/>
<path d="M12.5003 18.3341H7.50033C3.33366 18.3341 1.66699 16.6675 1.66699 12.5008V7.50081C1.66699 3.33415 3.33366 1.66748 7.50033 1.66748H12.5003C16.667 1.66748 18.3337 3.33415 18.3337 7.50081V12.5008C18.3337 16.6675 16.667 18.3341 12.5003 18.3341Z" stroke="currentColor" stroke-linecap="round" stroke-linejoin="round"/>
</svg>
