<svg width="36" height="32" viewBox="0 0 36 32" fill="none" xmlns="http://www.w3.org/2000/svg">
<path d="M23.6713 14.0963C23.2881 13.705 22.8217 13.405 22.3067 13.2187C21.7918 13.0323 21.2414 12.9644 20.6965 13.0198C20.1517 13.0753 19.6263 13.2528 19.1595 13.5392C18.6926 13.8255 18.2963 14.2133 17.9998 14.6738C17.7035 14.2132 17.3071 13.8253 16.8403 13.5388C16.3734 13.2524 15.848 13.0749 15.3031 13.0194C14.7582 12.9639 14.2078 13.0319 13.6928 13.2184C13.1778 13.4048 12.7114 13.7049 12.3283 14.0963C11.637 14.8033 11.25 15.7528 11.25 16.7416C11.25 17.7303 11.637 18.6798 12.3283 19.3868L17.9998 25.1506L23.6728 19.3876C24.3636 18.6801 24.7501 17.7304 24.7498 16.7416C24.7496 15.7528 24.3625 14.8034 23.6713 14.0963Z" fill="#FB5607" fill-opacity="0.2" stroke="currentColor" stroke-width="2" stroke-miterlimit="10" stroke-linecap="round" stroke-linejoin="round"/>
<path d="M31.5 31.0006H4.5C3.70435 31.0006 2.94129 30.6846 2.37868 30.122C1.81607 29.5594 1.5 28.7963 1.5 28.0006V1.00064H13.5L17.25 7.00064H34.5V28.0006C34.5 28.7963 34.1839 29.5594 33.6213 30.122C33.0587 30.6846 32.2956 31.0006 31.5 31.0006Z" stroke="currentColor" stroke-width="2" stroke-miterlimit="10" stroke-linecap="round" stroke-linejoin="round"/>
</svg>
