<svg width="20" height="20" viewBox="0 0 20 20" fill="none" xmlns="http://www.w3.org/2000/svg">
<path d="M10.0003 1.66748H7.25033C5.66699 1.66748 4.41699 2.91748 4.41699 4.41748C4.41699 5.91748 5.66699 7.16748 7.16699 7.16748H10.0003V1.66748Z" stroke="currentColor" stroke-miterlimit="10"/>
<path d="M10 7.25098H7.25C5.75 7.25098 4.5 8.50098 4.5 10.001C4.5 11.501 5.75 12.751 7.25 12.751H10V7.25098Z" stroke="currentColor" stroke-miterlimit="10"/>
<path d="M10 12.751H7.25C5.75 12.751 4.5 14.001 4.5 15.501C4.5 17.001 5.75 18.251 7.25 18.251C8.75 18.251 10 17.001 10 15.501V12.751Z" stroke="currentColor" stroke-miterlimit="10"/>
<path d="M10 1.66748H12.75C14.25 1.66748 15.5 2.91748 15.5 4.41748C15.5 5.91748 14.25 7.16748 12.75 7.16748H10V1.66748Z" stroke="currentColor" stroke-miterlimit="10"/>
<path d="M12.75 7.25098C14.25 7.25098 15.5 8.50098 15.5 10.001C15.5 11.501 14.25 12.751 12.75 12.751C11.25 12.751 10 11.501 10 10.001C10 8.50098 11.25 7.25098 12.75 7.25098Z" stroke="currentColor" stroke-miterlimit="10"/>
</svg>
