<svg width="20" height="21" viewBox="0 0 20 21" fill="none" xmlns="http://www.w3.org/2000/svg">
<path d="M10.0013 2.16797C12.2655 2.16797 12.548 2.1763 13.4363 2.21797C14.3238 2.25964 14.928 2.3988 15.4596 2.60547C16.0096 2.81714 16.473 3.1038 16.9363 3.5663C17.36 3.98288 17.6879 4.48679 17.8971 5.04297C18.103 5.5738 18.243 6.1788 18.2846 7.0663C18.3238 7.95464 18.3346 8.23714 18.3346 10.5013C18.3346 12.7655 18.3263 13.048 18.2846 13.9363C18.243 14.8238 18.103 15.428 17.8971 15.9596C17.6885 16.5161 17.3606 17.0201 16.9363 17.4363C16.5196 17.8599 16.0157 18.1878 15.4596 18.3971C14.9288 18.603 14.3238 18.743 13.4363 18.7846C12.548 18.8238 12.2655 18.8346 10.0013 18.8346C7.73714 18.8346 7.45464 18.8263 6.5663 18.7846C5.6788 18.743 5.07464 18.603 4.54297 18.3971C3.98657 18.1884 3.48257 17.8604 3.0663 17.4363C2.64247 17.0198 2.31458 16.5159 2.10547 15.9596C1.8988 15.4288 1.75964 14.8238 1.71797 13.9363C1.6788 13.048 1.66797 12.7655 1.66797 10.5013C1.66797 8.23714 1.6763 7.95464 1.71797 7.0663C1.75964 6.17797 1.8988 5.57464 2.10547 5.04297C2.314 4.48645 2.64197 3.9824 3.0663 3.5663C3.48269 3.14233 3.98666 2.81441 4.54297 2.60547C5.07464 2.3988 5.67797 2.25964 6.5663 2.21797C7.45464 2.1788 7.73714 2.16797 10.0013 2.16797ZM10.0013 6.33464C8.89623 6.33464 7.83643 6.77362 7.05502 7.55502C6.27362 8.33643 5.83464 9.39623 5.83464 10.5013C5.83464 11.6064 6.27362 12.6662 7.05502 13.4476C7.83643 14.229 8.89623 14.668 10.0013 14.668C11.1064 14.668 12.1662 14.229 12.9476 13.4476C13.729 12.6662 14.168 11.6064 14.168 10.5013C14.168 9.39623 13.729 8.33643 12.9476 7.55502C12.1662 6.77362 11.1064 6.33464 10.0013 6.33464ZM15.418 6.1263C15.418 5.85003 15.3082 5.58508 15.1129 5.38973C14.9175 5.19438 14.6526 5.08464 14.3763 5.08464C14.1 5.08464 13.8351 5.19438 13.6397 5.38973C13.4444 5.58508 13.3346 5.85003 13.3346 6.1263C13.3346 6.40257 13.4444 6.66752 13.6397 6.86287C13.8351 7.05822 14.1 7.16797 14.3763 7.16797C14.6526 7.16797 14.9175 7.05822 15.1129 6.86287C15.3082 6.66752 15.418 6.40257 15.418 6.1263ZM10.0013 8.0013C10.6643 8.0013 11.3002 8.26469 11.7691 8.73353C12.2379 9.20238 12.5013 9.83826 12.5013 10.5013C12.5013 11.1643 12.2379 11.8002 11.7691 12.2691C11.3002 12.7379 10.6643 13.0013 10.0013 13.0013C9.33826 13.0013 8.70238 12.7379 8.23353 12.2691C7.76469 11.8002 7.5013 11.1643 7.5013 10.5013C7.5013 9.83826 7.76469 9.20238 8.23353 8.73353C8.70238 8.26469 9.33826 8.0013 10.0013 8.0013Z" fill="currentColor"/>
</svg>
