<svg width="20" height="21" viewBox="0 0 20 21" fill="none" xmlns="http://www.w3.org/2000/svg">
<path d="M5.27359 7.80859H2.08984V17.9979H5.27359V7.80859Z" fill="#FE6019"/>
<path d="M3.61395 3C2.43998 3 1.66797 3.75925 1.66797 4.76733C1.66797 5.75627 2.41446 6.53467 3.56929 6.53467H3.59481C4.7943 6.53467 5.54079 5.74989 5.53441 4.76733C5.50889 3.75925 4.78792 3 3.61395 3Z" fill="#FE6019"/>
<path d="M13.9696 7.71484C12.1448 7.71484 11.0028 8.71017 10.7922 9.41199V7.81055H7.21289C7.25755 8.65912 7.21289 17.9998 7.21289 17.9998H10.7922V12.4937C10.7922 12.181 10.7795 11.8748 10.8688 11.6578C11.1112 11.0453 11.6408 10.4073 12.5915 10.4073C13.8356 10.4073 14.3971 11.3516 14.3971 12.7297V17.9998H18.0083V12.3342C18.0083 9.18231 16.2346 7.71484 13.9696 7.71484Z" fill="currentColor"/>
</svg>
