<svg width="32" height="33" viewBox="0 0 32 33" fill="none" xmlns="http://www.w3.org/2000/svg">
<path d="M16.0013 9.16699C16.8854 9.16699 17.7332 9.51818 18.3583 10.1433C18.9834 10.7684 19.3346 11.6163 19.3346 12.5003C19.3346 12.9381 19.2484 13.3715 19.0809 13.7759C18.9134 14.1804 18.6679 14.5478 18.3583 14.8573C18.0488 15.1669 17.6813 15.4124 17.2769 15.5799C16.8725 15.7474 16.439 15.8337 16.0013 15.8337C15.1172 15.8337 14.2694 15.4825 13.6443 14.8573C13.0192 14.2322 12.668 13.3844 12.668 12.5003C12.668 11.6163 13.0192 10.7684 13.6443 10.1433C14.2694 9.51818 15.1172 9.16699 16.0013 9.16699ZM16.0013 3.16699C18.4767 3.16699 20.8506 4.15032 22.601 5.90066C24.3513 7.651 25.3346 10.025 25.3346 12.5003C25.3346 19.5003 16.0013 29.8337 16.0013 29.8337C16.0013 29.8337 6.66797 19.5003 6.66797 12.5003C6.66797 10.025 7.6513 7.651 9.40164 5.90066C11.152 4.15032 13.5259 3.16699 16.0013 3.16699ZM16.0013 5.83366C14.2332 5.83366 12.5375 6.53604 11.2873 7.78628C10.037 9.03652 9.33464 10.7322 9.33464 12.5003C9.33464 13.8337 9.33464 16.5003 16.0013 25.447C22.668 16.5003 22.668 13.8337 22.668 12.5003C22.668 10.7322 21.9656 9.03652 20.7153 7.78628C19.4651 6.53604 17.7694 5.83366 16.0013 5.83366Z" fill="black"/>
</svg>
