<svg width="41" height="40" viewBox="0 0 41 40" fill="none" xmlns="http://www.w3.org/2000/svg">
<path d="M8.62606 0.119116C4.91366 0.791256 1.91248 3.74555 1.15436 7.47358C0.927712 8.56776 0.927712 10.1778 1.15436 11.272C1.92029 15.0312 4.92929 17.9777 8.68077 18.6342C9.55612 18.7827 11.1661 18.7827 12.018 18.6342C14.4956 18.2044 16.8871 16.6491 18.1845 14.6248L18.5362 14.0699H20.8027C23.4366 14.0621 23.2178 14.1168 23.9681 13.179C24.2338 12.8507 24.4683 12.5772 24.4839 12.5772C24.4995 12.5772 25.1091 13.3743 25.8438 14.3513C26.5785 15.3282 27.274 16.188 27.3913 16.2661C27.6805 16.4537 28.3839 16.4537 28.673 16.2661C28.7903 16.188 29.478 15.3439 30.1893 14.3904C30.9083 13.4369 31.5179 12.6553 31.5492 12.6553C31.5804 12.6553 32.1901 13.4369 32.9091 14.3904C33.6203 15.3439 34.3081 16.188 34.4253 16.2661C34.7067 16.4537 35.4179 16.4537 35.7071 16.2661C35.9025 16.1411 40.7637 10.2247 40.9279 9.91204C40.9748 9.83389 41.006 9.58379 41.006 9.34932C41.006 8.92728 40.9982 8.90383 39.865 7.29382C39.2319 6.39503 38.6145 5.51968 38.4894 5.34774C38.3722 5.16798 38.1533 4.95696 38.0127 4.87881C37.7704 4.72249 37.5203 4.72249 28.1494 4.69905L18.5362 4.66779L18.1845 4.1207C17.4733 3.01088 16.1915 1.83073 14.9645 1.14296C14.2064 0.720915 13.1669 0.337952 12.2681 0.158194C11.3224 -0.0371952 9.58738 -0.0528278 8.62606 0.119116ZM12.2056 2.64355C14.0188 3.13593 15.6054 4.41769 16.5589 6.14493C16.7699 6.52789 16.9575 6.77018 17.1529 6.88741L17.442 7.06717L27.0943 7.09062L36.7465 7.11406L37.5125 8.20825C38.2159 9.19301 38.2784 9.31806 38.1768 9.45092C38.1221 9.53689 37.4109 10.4279 36.5902 11.4283L35.1053 13.2493L33.7532 11.4517C33.0107 10.4669 32.3073 9.5916 32.1901 9.51345C31.9009 9.32587 31.1975 9.32587 30.9083 9.51345C30.7911 9.5916 30.1033 10.4357 29.3921 11.3892C28.673 12.3427 28.0634 13.1242 28.0322 13.1242C28.0009 13.1242 27.3913 12.3427 26.6722 11.3892C25.961 10.4357 25.2733 9.5916 25.156 9.51345C24.8747 9.32587 24.1634 9.32587 23.8821 9.51345C23.7649 9.58379 23.2959 10.1152 22.8426 10.678L22.0063 11.7174H19.6929C16.9575 11.7174 17.0591 11.694 16.5589 12.6006C14.816 15.7737 11.1349 17.1571 7.82887 15.8675C5.67959 15.0312 4.00705 13.0617 3.5303 10.7796C3.38181 10.0684 3.38181 8.67718 3.5303 7.96596C3.81166 6.6295 4.49162 5.39464 5.49201 4.40987C7.26615 2.65918 9.80622 1.99486 12.2056 2.64355Z" fill="currentColor"/>
<path d="M9.20404 6.00418C8.26617 6.35588 7.58621 6.97331 7.14072 7.87992C6.89844 8.38012 6.89062 8.43483 6.89062 9.3727C6.89062 10.3106 6.89844 10.3653 7.14072 10.8655C7.59403 11.7877 8.2818 12.4051 9.24312 12.7412C9.62608 12.8741 9.84492 12.8975 10.5249 12.8741C11.2674 12.8506 11.4002 12.8194 11.8926 12.5771C12.6116 12.2332 13.2291 11.6158 13.5808 10.8967C13.8387 10.3653 13.8465 10.3262 13.8465 9.3727C13.8465 8.4192 13.8387 8.38012 13.5808 7.84866C13.2291 7.12962 12.6116 6.51219 11.8926 6.16831C11.3846 5.91821 11.2752 5.89476 10.4858 5.87913C9.78239 5.85568 9.54792 5.87913 9.20404 6.00418ZM10.9469 8.42701C11.283 8.65366 11.4627 8.9741 11.4627 9.3727C11.4627 9.99794 10.9938 10.4669 10.3686 10.4669C9.74331 10.4669 9.27438 9.99794 9.27438 9.3727C9.27438 8.74745 9.74331 8.27852 10.3686 8.27852C10.5796 8.27852 10.8062 8.34104 10.9469 8.42701Z" fill="currentColor"/>
<path d="M32.0666 18.978C31.9494 19.0562 31.7774 19.2281 31.6993 19.3454C31.5586 19.5642 31.5508 19.9003 31.5508 29.4196C31.5508 38.939 31.5586 39.2751 31.6993 39.4939C31.7774 39.6112 31.9494 39.7831 32.0666 39.8613C32.2776 40.002 32.4808 40.0098 35.0678 40.0098C37.6548 40.0098 37.858 40.002 38.069 39.8613C38.1862 39.7831 38.3582 39.6112 38.4363 39.4939C38.577 39.2751 38.5848 38.939 38.5848 29.4196C38.5848 19.9003 38.577 19.5642 38.4363 19.3454C38.3582 19.2281 38.1862 19.0562 38.069 18.978C37.858 18.8373 37.6548 18.8295 35.0678 18.8295C32.4808 18.8295 32.2776 18.8373 32.0666 18.978ZM36.2401 29.4196V37.6651H35.0678H33.8955V29.4196V21.1742H35.0678H36.2401V29.4196Z" fill="currentColor"/>
<path d="M22.6858 22.495C22.5685 22.5732 22.3966 22.7451 22.3184 22.8624C22.1777 23.0812 22.1699 23.386 22.1699 31.1782C22.1699 38.9703 22.1777 39.2751 22.3184 39.4939C22.3966 39.6112 22.5685 39.7831 22.6858 39.8613C22.8968 40.002 23.1 40.0098 25.6869 40.0098C28.2739 40.0098 28.4771 40.002 28.6881 39.8613C28.8054 39.7831 28.9773 39.6112 29.0555 39.4939C29.1961 39.2751 29.2039 38.9703 29.2039 31.1782C29.2039 23.386 29.1961 23.0812 29.0555 22.8624C28.9773 22.7451 28.8054 22.5732 28.6881 22.495C28.4771 22.3544 28.2739 22.3465 25.6869 22.3465C23.1 22.3465 22.8968 22.3544 22.6858 22.495ZM26.8593 31.1782V37.6651H25.6869H24.5146V31.1782V24.6912H25.6869H26.8593V31.1782Z" fill="currentColor"/>
<path d="M13.3088 26.0121C13.1916 26.0902 13.0196 26.2622 12.9415 26.3794C12.8008 26.5982 12.793 26.864 12.793 32.9367C12.793 39.0094 12.8008 39.2751 12.9415 39.4939C13.0196 39.6112 13.1916 39.7831 13.3088 39.8613C13.5198 40.002 13.723 40.0098 16.31 40.0098C18.8969 40.0098 19.1001 40.002 19.3112 39.8613C19.4284 39.7831 19.6003 39.6112 19.6785 39.4939C19.8192 39.2751 19.827 39.0094 19.827 32.9367C19.827 26.864 19.8192 26.5982 19.6785 26.3794C19.6003 26.2622 19.4284 26.0902 19.3112 26.0121C19.1001 25.8714 18.8969 25.8636 16.31 25.8636C13.723 25.8636 13.5198 25.8714 13.3088 26.0121ZM17.4823 32.9367V37.6651H16.31H15.1376V32.9367V28.2082H16.31H17.4823V32.9367Z" fill="currentColor"/>
<path d="M3.92989 30.7014C3.81266 30.7796 3.64071 30.9515 3.56256 31.0687C3.42188 31.2798 3.41406 31.5064 3.41406 35.2813C3.41406 39.0563 3.42188 39.2829 3.56256 39.4939C3.64071 39.6112 3.81266 39.7831 3.92989 39.8613C4.14091 40.002 4.34412 40.0098 6.93108 40.0098C9.51803 40.0098 9.72124 40.002 9.93226 39.8613C10.0495 39.7831 10.2214 39.6112 10.2996 39.4939C10.4403 39.2829 10.4481 39.0563 10.4481 35.2813C10.4481 31.5064 10.4403 31.2798 10.2996 31.0687C10.2214 30.9515 10.0495 30.7796 9.93226 30.7014C9.72124 30.5607 9.51803 30.5529 6.93108 30.5529C4.34412 30.5529 4.14091 30.5607 3.92989 30.7014ZM8.10341 35.2813V37.6651H6.93108H5.75874V35.2813V32.8976H6.93108H8.10341V35.2813Z" fill="currentColor"/>
</svg>
