<svg width="42" height="40" viewBox="0 0 42 40" fill="none" xmlns="http://www.w3.org/2000/svg">
<path d="M16.3779 0.36067C15.2523 0.74259 13.2824 1.70745 12.9909 2.02906C12.7095 2.34063 12.7597 2.92356 13.1115 3.35574C13.6743 4.05928 14.2774 4.97388 14.2472 5.08444C14.2271 5.14474 13.9356 5.43621 13.5839 5.72767C13.2321 6.00909 12.6894 6.56187 12.3879 6.93374L11.825 7.62723L11.2622 7.26541C10.9506 7.0644 10.4782 6.72268 10.2069 6.49152C9.55359 5.94879 9.05106 5.91863 8.64904 6.40106C7.99575 7.18501 6.71933 10.3007 6.70928 11.1449C6.69923 11.8987 6.94044 12.0495 8.48823 12.2404C8.93045 12.3007 9.41288 12.3912 9.55359 12.4415C9.80485 12.542 9.80485 12.542 9.72445 13.336C9.64404 14.0596 9.6943 15.4968 9.80485 15.8989C9.84506 16.0295 9.72445 16.0898 9.17167 16.2104C8.7998 16.2908 8.18671 16.3913 7.82489 16.4315C7.00074 16.5119 6.69923 16.7632 6.70928 17.3562C6.72938 18.3512 8.14651 21.7382 8.75959 22.2609C9.23197 22.6629 9.50334 22.5925 10.5184 21.8186C11.6743 20.9442 11.7949 20.904 12.0763 21.2759C12.3577 21.6478 13.6341 22.9141 14.016 23.2056L14.3075 23.4267L14.0864 23.8489C13.9658 24.0901 13.6241 24.5624 13.3326 24.9142C12.9105 25.4368 12.81 25.6278 12.81 25.9293C12.81 26.4117 12.9406 26.5525 13.7748 27.0449C15.2523 27.8992 17.7046 28.7435 18.1971 28.5525C18.6393 28.3917 18.7901 28.1103 18.8906 27.2761C18.9408 26.8439 19.0313 26.2509 19.1016 25.9796L19.2122 25.467L20.1067 25.5574C20.6193 25.6077 21.3831 25.6077 21.8957 25.5574L22.7902 25.467L22.951 26.2107C23.0415 26.6128 23.1118 27.0851 23.1118 27.266C23.1118 27.9093 23.2927 28.3113 23.6646 28.4822C24.0063 28.643 24.0566 28.643 24.9611 28.4018C26.0566 28.1103 27.6446 27.4369 28.4688 26.9042C29.3733 26.3213 29.4437 25.869 28.7502 25.0348C28.5391 24.7836 28.2074 24.3212 28.0064 24.0097L27.6446 23.4468L28.127 23.085C28.6095 22.7131 29.514 21.8086 29.9261 21.2659L30.1573 20.9643L30.5291 21.1653C30.7301 21.2659 31.1221 21.5372 31.4035 21.7583C32.5191 22.6629 32.7905 22.7232 33.3031 22.1704C34.0066 21.4267 35.273 18.3311 35.273 17.3562C35.273 16.7531 35.0016 16.522 34.2177 16.4315C33.886 16.4014 33.283 16.3009 32.881 16.2205C32.2277 16.0798 32.1573 16.0496 32.1975 15.8486C32.3181 15.3059 32.3483 14.0495 32.2779 13.336C32.1975 12.552 32.1975 12.542 32.4488 12.4515C32.5794 12.3912 33.0317 12.3108 33.4538 12.2505C33.876 12.1902 34.3684 12.1198 34.5494 12.0997C35.3635 11.9791 35.464 11.3057 34.9212 9.6675C34.5393 8.53178 33.5644 6.55182 33.2428 6.26035C33.1322 6.15985 32.891 6.07944 32.6699 6.07944C32.3583 6.07944 32.1674 6.17995 31.6447 6.60207C31.293 6.89354 30.8105 7.23526 30.5794 7.35587L30.1472 7.58703L29.8758 7.23526C29.5341 6.78298 28.4889 5.73772 28.0466 5.40606C27.725 5.15479 27.7049 5.12464 27.8255 4.84322C27.8959 4.68242 28.2175 4.22009 28.5391 3.80801C29.6346 2.44114 29.5241 2.14967 27.4436 1.10441C26.3481 0.56168 24.6596 -0.00115204 24.0968 -0.00115204C23.4334 -0.00115204 23.2324 0.260164 23.1118 1.26522C23.0616 1.6974 22.9711 2.28033 22.9007 2.56174L22.7902 3.06427H21.0012H19.2122L19.1016 2.612C19.0413 2.36073 18.9408 1.7778 18.8906 1.31547C18.7298 -0.131809 18.3076 -0.292618 16.3779 0.36067ZM17.182 2.36073C17.182 2.82306 17.7951 4.54171 18.0564 4.80302C18.2875 5.03418 18.3378 5.04424 18.971 4.96383C19.3428 4.91358 20.2574 4.87337 21.0012 4.87337C21.7449 4.87337 22.6595 4.91358 23.0314 4.96383C23.6646 5.04424 23.7148 5.03418 23.946 4.80302C24.2073 4.53166 24.8204 2.82306 24.8204 2.35068C24.8204 2.10947 24.8506 2.08937 25.142 2.14967C25.5139 2.22002 26.8305 2.81301 26.8305 2.90346C26.8305 2.93361 26.7401 3.09442 26.6195 3.26528C26.2174 3.85827 25.6244 5.16484 25.6244 5.48646C25.6244 5.87843 25.7652 6.02919 26.7602 6.77293C27.5542 7.36592 28.3482 8.21017 28.921 9.05441C29.2527 9.55694 29.4035 9.6474 29.8256 9.6474C30.1372 9.6474 31.1623 9.18507 31.886 8.72274C32.1473 8.55189 32.3784 8.43128 32.3985 8.45138C32.5292 8.59209 33.2629 10.2806 33.2629 10.4213C33.2629 10.4414 33.1624 10.4514 33.0317 10.4514C32.7101 10.4514 31.4236 10.8233 30.901 11.0645C30.298 11.3459 30.1774 11.6575 30.3382 12.5721C30.509 13.4968 30.509 14.9641 30.3382 15.9793C30.2276 16.6928 30.2276 16.8436 30.3583 17.0647C30.5392 17.3863 31.4839 17.8085 32.5091 18.0195C33.0016 18.12 33.2026 18.2105 33.1825 18.3009C33.1724 18.3813 32.9915 18.8336 32.8006 19.316L32.4387 20.1804L31.8759 19.8286C31.1925 19.3864 30.1171 18.8939 29.8557 18.8939C29.4839 18.8939 29.1924 19.105 28.8105 19.6477C28.2175 20.492 27.4838 21.2458 26.6496 21.8689C26.2275 22.1805 25.8154 22.5121 25.7551 22.5925C25.4435 22.9745 25.6948 23.8187 26.4888 25.0449L26.921 25.7183L26.0667 26.07C24.8606 26.5726 24.9008 26.5726 24.7702 25.9293C24.6294 25.2559 24.4485 24.7032 24.1973 24.1504C23.9259 23.5674 23.6244 23.4669 22.6897 23.6277C21.7248 23.7885 20.3479 23.7986 19.3328 23.6277C18.2071 23.4468 18.0061 23.5473 17.6342 24.5423C17.4835 24.9444 17.3026 25.5474 17.2322 25.8791C17.0915 26.5826 17.1418 26.5726 15.9257 26.07L15.0714 25.7082L15.3729 25.266C15.8352 24.5926 16.3779 23.4066 16.3779 23.0549C16.3779 22.683 16.1568 22.4317 15.2824 21.8186C14.5688 21.3061 13.7045 20.4116 13.2019 19.6477C12.8502 19.1251 12.5286 18.8939 12.1466 18.8939C11.8753 18.8939 10.5787 19.497 10.0159 19.8889L9.56364 20.2005L9.20182 19.3462C8.68924 18.12 8.67919 18.1803 9.49329 18.0195C10.5084 17.8085 11.4632 17.3863 11.6441 17.0647C11.7748 16.8436 11.7748 16.6928 11.6642 15.9793C11.4933 14.9641 11.4933 13.4968 11.6642 12.5721C11.825 11.6575 11.7044 11.3459 11.1014 11.0645C10.5888 10.8233 9.29227 10.4514 8.97066 10.4514H8.74954L8.93045 9.91876C9.12141 9.39613 9.54354 8.44133 9.59379 8.44133C9.61389 8.44133 9.92546 8.62224 10.2873 8.84335C11.1014 9.34588 11.8652 9.6474 12.2773 9.6474C12.609 9.6474 12.6793 9.58709 13.6643 8.32072C14.006 7.8785 14.609 7.27546 15.0513 6.93374C16.3176 5.94879 16.3779 5.87843 16.3779 5.53671C16.3779 5.17489 16.0262 4.34069 15.5136 3.49645C15.3126 3.17483 15.1618 2.88336 15.1819 2.87331C15.2724 2.79291 16.1468 2.37078 16.4684 2.26023C17.0312 2.04917 17.182 2.06927 17.182 2.36073Z" fill="currentColor"/>
<path d="M19.6244 8.783C17.6947 9.25537 16.0464 10.8936 15.5238 12.8635C15.4434 13.165 15.373 13.7982 15.373 14.2606C15.373 15.8686 15.8856 17.1149 17.0213 18.2506C18.1671 19.3964 19.3832 19.8989 21.0014 19.8989C22.6195 19.8989 23.8356 19.3964 24.9814 18.2506C26.1171 17.1149 26.6297 15.8686 26.6297 14.2606C26.6297 12.6726 26.097 11.4162 24.9814 10.2906C24.1974 9.50664 23.2125 8.95386 22.2275 8.75284C21.534 8.61214 20.2878 8.62219 19.6244 8.783ZM22.6396 10.8333C23.4135 11.2152 24.1271 11.9489 24.499 12.7429C24.7301 13.2354 24.7703 13.4465 24.7703 14.2706C24.7703 15.1048 24.7301 15.3058 24.4889 15.8284C24.1371 16.5923 23.4336 17.3159 22.6597 17.718C22.0969 18.0094 21.9863 18.0396 21.0516 18.0396C20.1571 18.0396 19.9762 18.0094 19.4435 17.7582C18.6495 17.3863 17.8756 16.6124 17.5138 15.8385C17.2726 15.3058 17.2324 15.1048 17.2324 14.2706C17.2324 13.4465 17.2726 13.2354 17.5038 12.7429C17.9761 11.7379 18.8807 10.9338 19.926 10.5921C20.1873 10.5016 20.6596 10.4614 21.1722 10.4815C21.8456 10.5117 22.0969 10.572 22.6396 10.8333Z" fill="currentColor"/>
<path d="M3.81432 30.8942C2.26653 31.3264 1.11072 32.4319 0.59814 33.9697C0.306674 34.834 0.346876 36.231 0.698646 37.1155C1.11072 38.2009 2.18613 39.2663 3.31179 39.7286L3.86458 39.9497L18.2369 39.9799L32.6092 40L36.931 38.0904C39.3129 37.0351 41.3331 36.0803 41.4336 35.9697C41.6648 35.6883 41.6547 35.0652 41.4135 34.8139C41.313 34.6933 39.2727 33.7385 36.8907 32.6832L32.559 30.7535L18.4077 30.7635C7.40238 30.7736 4.16609 30.8037 3.81432 30.8942ZM7.93506 35.3868V38.211L6.0556 38.1708C3.93493 38.1406 3.71382 38.0803 3.00023 37.3165C2.48765 36.7838 2.28664 36.3416 2.22633 35.618C2.11578 34.2511 2.93992 33.0752 4.31685 32.653C4.45756 32.6128 5.32191 32.5726 6.25661 32.5726L7.93506 32.5626V35.3868ZM31.3529 35.3767V38.1909H20.5485H9.74416V35.3767V32.5626H20.5485H31.3529V35.3767ZM35.8254 34.2209C37.1521 34.8039 38.2677 35.3164 38.3079 35.3566C38.3481 35.3968 37.2626 35.9195 35.8957 36.5225C34.5289 37.1255 33.3831 37.6381 33.3429 37.6582C33.2926 37.6783 33.2625 36.6532 33.2625 35.3767C33.2625 34.1003 33.2926 33.0752 33.3429 33.0953C33.3831 33.1254 34.4987 33.6279 35.8254 34.2209Z" fill="currentColor"/>
</svg>
