<svg width="42" height="41" viewBox="0 0 42 41" fill="none" xmlns="http://www.w3.org/2000/svg">
<path d="M4.85321 0.139835C3.35956 0.573746 2.14961 1.58342 1.4904 2.94357C0.939669 4.07007 0.973046 2.88515 0.973046 20.0079C0.973046 37.1307 0.939669 35.9458 1.4904 37.0723C2.1663 38.4658 3.5181 39.559 4.99507 39.9094C5.79613 40.093 36.2116 40.093 37.0127 39.9094C38.3979 39.584 39.758 38.5159 40.4172 37.2392C41.0013 36.1044 41.0264 35.9375 41.0264 32.558C41.0264 29.7125 41.018 29.5456 40.8595 29.287C40.3755 28.4942 39.0571 28.4609 38.5481 29.2452C38.4145 29.4455 38.3895 29.7626 38.3478 32.316C38.3144 34.1267 38.2643 35.2616 38.1976 35.4618C37.9556 36.2295 37.1879 36.9805 36.4119 37.2142C35.9029 37.3727 6.09653 37.3727 5.58752 37.2142C4.77811 36.9722 4.03546 36.2295 3.79347 35.4201C3.63492 34.9111 3.63492 5.10478 3.79347 4.59577C4.03546 3.78636 4.77811 3.0437 5.58752 2.80171C6.09653 2.64317 35.9029 2.64317 36.4119 2.80171C37.1963 3.03535 37.9556 3.77801 38.1976 4.55404C38.256 4.74597 38.3144 5.73061 38.3311 7.09076L38.3728 9.32706H23.4446C8.7 9.32706 8.52476 9.32706 8.2494 9.49395C7.84886 9.74429 7.6486 10.1198 7.6486 10.6622C7.6486 11.2046 7.84886 11.5801 8.2494 11.8304C8.52476 11.9973 8.7 11.9973 23.4446 11.9973H38.3561V17.8968C38.3561 23.6461 38.3645 23.813 38.523 24.08C38.7734 24.4806 39.1489 24.6808 39.6912 24.6808C40.2336 24.6808 40.6091 24.4806 40.8595 24.08C41.0264 23.813 41.0264 23.6378 41.0264 14.1335C41.0264 3.3441 41.0597 4.02 40.4339 2.81005C39.8164 1.63349 38.765 0.707256 37.4967 0.239967L36.8959 0.0230141L21.1249 0.00632477C6.32183 -0.0103645 5.3205 -0.00201797 4.85321 0.139835Z" fill="currentColor"/>
<path d="M6.9133 4.82113C6.51277 5.07146 6.3125 5.44696 6.3125 5.98935C6.3125 6.53174 6.51277 6.90724 6.9133 7.15757C7.16363 7.30777 7.33887 7.32446 8.98272 7.32446C10.6266 7.32446 10.8018 7.30777 11.0521 7.15757C11.4527 6.90724 11.6529 6.53174 11.6529 5.98935C11.6529 5.44696 11.4527 5.07146 11.0521 4.82113C10.8018 4.67093 10.6266 4.65424 8.98272 4.65424C7.33887 4.65424 7.16363 4.67093 6.9133 4.82113Z" fill="currentColor"/>
<path d="M19.0549 15.5018C15.4084 16.2695 12.5713 19.1233 11.8203 22.7698C11.5867 23.9047 11.62 25.9157 11.8871 26.9838C12.7299 30.2798 15.3417 32.9 18.6627 33.7762C19.7392 34.0599 21.7418 34.1016 22.8934 33.868C25.9892 33.2254 28.5342 31.1059 29.7191 28.1687C30.3032 26.7001 30.5452 24.5472 30.1781 23.9464C29.9277 23.5459 29.5522 23.3456 29.0099 23.3456C28.1671 23.3456 27.7165 23.8046 27.6414 24.7558C27.4578 26.9254 26.6567 28.5859 25.2048 29.7875C24.0533 30.7304 22.5179 31.2812 21.0075 31.2812C19.9394 31.2812 19.13 31.0976 18.1204 30.6053C16.6851 29.9043 15.7756 28.9948 15.0746 27.5596C14.5823 26.5415 14.4071 25.7905 14.4071 24.664C14.4071 22.8032 15.0746 21.2345 16.4181 19.9244C17.5696 18.7979 18.9882 18.1971 20.8406 18.0469C21.8837 17.9634 22.3343 17.5462 22.3343 16.6701C22.3343 16.1277 22.134 15.7522 21.7335 15.5018C21.3663 15.2849 20.098 15.2849 19.0549 15.5018Z" fill="currentColor"/>
<path d="M26.7576 17.7631C26.6491 17.8132 26.4822 17.9133 26.3904 17.9884C26.307 18.0635 24.8634 19.7575 23.1945 21.7351C21.5172 23.7211 20.1404 25.3482 20.1321 25.3482C20.1154 25.3482 19.8317 24.9811 19.4895 24.5388C18.6468 23.4207 18.338 23.0869 18.0209 22.9534C16.9528 22.5111 15.8514 23.4707 16.1518 24.5722C16.2769 25.0061 19.0556 28.5859 19.4228 28.7861C19.7733 28.9697 20.3407 28.9781 20.7162 28.8028C20.9081 28.711 22.1097 27.3509 24.6464 24.3302C26.6574 21.9437 28.3764 19.8743 28.4682 19.7324C28.7018 19.3653 28.6851 18.7144 28.4348 18.3055C28.1094 17.7882 27.3333 17.5378 26.7576 17.7631Z" fill="currentColor"/>
</svg>
