<svg width="32" height="33" viewBox="0 0 32 33" fill="none" xmlns="http://www.w3.org/2000/svg">
<path d="M25.6401 20.846L22.2534 20.4594C21.8552 20.4126 21.4515 20.4567 21.0728 20.5883C20.6941 20.7199 20.3501 20.9357 20.0667 21.2194L17.6134 23.6727C13.8283 21.7477 10.7518 18.6711 8.82672 14.886L11.2934 12.4194C11.8667 11.846 12.1467 11.046 12.0534 10.2327L11.6667 6.8727C11.5911 6.22227 11.279 5.62235 10.7897 5.18716C10.3004 4.75198 9.6682 4.51192 9.01339 4.5127H6.70672C5.20005 4.5127 3.94672 5.76603 4.04005 7.2727C4.74672 18.6594 13.8534 27.7527 25.2267 28.4594C26.7334 28.5527 27.9867 27.2994 27.9867 25.7927V23.486C28.0001 22.1394 26.9867 21.006 25.6401 20.846Z" fill="black"/>
</svg>
