<svg width="20" height="20" viewBox="0 0 20 20" fill="none" xmlns="http://www.w3.org/2000/svg">
<path d="M17.3087 16.2758C17.3087 16.5758 17.242 16.8841 17.1003 17.1841C16.9587 17.4841 16.7753 17.7675 16.5337 18.0341C16.1253 18.4841 15.6753 18.8091 15.167 19.0175C14.667 19.2258 14.1253 19.3341 13.542 19.3341C12.692 19.3341 11.7837 19.1341 10.8253 18.7258C9.86699 18.3175 8.90866 17.7675 7.95866 17.0758C7.00033 16.3758 6.09199 15.6008 5.22533 14.7425C4.36699 13.8758 3.59199 12.9675 2.90033 12.0175C2.21699 11.0675 1.66699 10.1175 1.26699 9.17581C0.866992 8.22581 0.666992 7.31748 0.666992 6.45081C0.666992 5.88415 0.766992 5.34248 0.966992 4.84248C1.16699 4.33415 1.48366 3.86748 1.92533 3.45081C2.45866 2.92581 3.04199 2.66748 3.65866 2.66748C3.89199 2.66748 4.12533 2.71748 4.33366 2.81748C4.55033 2.91748 4.74199 3.06748 4.89199 3.28415L6.82533 6.00915C6.97533 6.21748 7.08366 6.40915 7.15866 6.59248C7.23366 6.76748 7.27533 6.94248 7.27533 7.10081C7.27533 7.30081 7.21699 7.50081 7.10033 7.69248C6.99199 7.88415 6.83366 8.08415 6.63366 8.28415L6.00033 8.94248C5.90866 9.03415 5.86699 9.14248 5.86699 9.27581C5.86699 9.34248 5.87533 9.40081 5.89199 9.46748C5.91699 9.53415 5.94199 9.58415 5.95866 9.63415C6.10866 9.90915 6.36699 10.2675 6.73366 10.7008C7.10866 11.1341 7.50866 11.5758 7.94199 12.0175C8.39199 12.4591 8.82533 12.8675 9.26699 13.2425C9.70033 13.6091 10.0587 13.8591 10.342 14.0091C10.3837 14.0258 10.4337 14.0508 10.492 14.0758C10.5587 14.1008 10.6253 14.1091 10.7003 14.1091C10.842 14.1091 10.9503 14.0591 11.042 13.9675L11.6753 13.3425C11.8837 13.1341 12.0837 12.9758 12.2753 12.8758C12.467 12.7591 12.6587 12.7008 12.867 12.7008C13.0253 12.7008 13.192 12.7341 13.3753 12.8091C13.5587 12.8841 13.7503 12.9925 13.9587 13.1341L16.717 15.0925C16.9337 15.2425 17.0837 15.4175 17.1753 15.6258C17.2587 15.8341 17.3087 16.0425 17.3087 16.2758Z" stroke="currentColor" stroke-width="1.2" stroke-miterlimit="10"/>
<path d="M14.4167 8.50065C14.4167 8.00065 14.025 7.23398 13.4417 6.60898C12.9083 6.03398 12.2 5.58398 11.5 5.58398" stroke="currentColor" stroke-width="1.2" stroke-linecap="round" stroke-linejoin="round"/>
<path d="M17.3333 8.50081C17.3333 5.27581 14.725 2.66748 11.5 2.66748" stroke="currentColor" stroke-width="1.2" stroke-linecap="round" stroke-linejoin="round"/>
</svg>
