<svg width="28" height="28" viewBox="0 0 28 28" fill="none" xmlns="http://www.w3.org/2000/svg">
<path d="M19.3327 11.3348C19.3327 12.7493 18.7708 14.1058 17.7706 15.106C16.7704 16.1062 15.4138 16.6681 13.9993 16.6681C12.5849 16.6681 11.2283 16.1062 10.2281 15.106C9.22792 14.1058 8.66602 12.7493 8.66602 11.3348C8.66602 9.92031 9.22792 8.56376 10.2281 7.56356C11.2283 6.56337 12.5849 6.00146 13.9993 6.00146C15.4138 6.00146 16.7704 6.56337 17.7706 7.56356C18.7708 8.56376 19.3327 9.92031 19.3327 11.3348Z" fill="black"/>
<path fill-rule="evenodd" clip-rule="evenodd" d="M13.4553 27.324C6.34402 27.0386 0.666016 21.1826 0.666016 14.0013C0.666016 6.6373 6.63535 0.667969 13.9993 0.667969C21.3633 0.667969 27.3327 6.6373 27.3327 14.0013C27.3327 21.3653 21.3633 27.3346 13.9993 27.3346H13.8167C13.6958 27.3346 13.5753 27.3311 13.4553 27.324ZM5.44335 22.4146C5.34366 22.1283 5.30973 21.8233 5.34407 21.5221C5.37841 21.2209 5.48015 20.9313 5.64173 20.6748C5.80332 20.4183 6.02059 20.2015 6.27743 20.0405C6.53427 19.8794 6.82408 19.7783 7.12535 19.7446C12.3227 19.1693 15.708 19.2213 20.88 19.7566C21.1817 19.788 21.4722 19.8879 21.7295 20.0486C21.9867 20.2092 22.2039 20.4265 22.3645 20.6838C22.5251 20.9411 22.6249 21.2316 22.6562 21.5333C22.6876 21.835 22.6496 22.1398 22.5453 22.4246C24.7621 20.182 26.0035 17.1546 25.9993 14.0013C25.9993 7.37397 20.6267 2.0013 13.9993 2.0013C7.37201 2.0013 1.99935 7.37397 1.99935 14.0013C1.99935 17.2786 3.31335 20.2493 5.44335 22.4146Z" fill="black"/>
</svg>
