<svg width="40" height="40" viewBox="0 0 40 40" fill="none" xmlns="http://www.w3.org/2000/svg">
<g clip-path="url(#clip0_143_7910)">
<path d="M9.45312 15.342C8.03875 16.4127 7.10938 18.093 7.10938 19.9996C7.10938 20.3867 7.10938 28.644 7.10938 28.2027H9.45312C9.45312 27.8407 9.45312 14.8108 9.45312 15.342Z" fill="currentColor"/>
<path d="M32.8906 19.9994C32.8906 18.0928 31.9613 16.4125 30.5469 15.3418C30.5469 15.5825 30.5469 28.4432 30.5469 28.2025H32.8906C32.8906 27.463 32.8906 19.653 32.8906 19.9994Z" fill="currentColor"/>
<path d="M20 16.6409C20.6472 16.6409 21.1719 16.1162 21.1719 15.469C21.1719 14.8218 20.6472 14.2971 20 14.2971C19.3528 14.2971 18.8281 14.8218 18.8281 15.469C18.8281 16.1162 19.3528 16.6409 20 16.6409Z" fill="currentColor"/>
<path d="M20.6438 0.428047L19.9938 0L19.3473 0.432578C16.7566 2.16422 14.7646 4.54461 13.4688 7.26586H26.52C25.0815 4.26805 23.0859 2.03938 20.6438 0.428047Z" fill="currentColor"/>
<path d="M11.7968 14.5546V25.8595H13.812L12.0531 32.8907H9.23723C8.75184 31.5296 7.46325 30.547 5.93748 30.547C3.9989 30.547 2.42188 32.124 2.42188 34.0626C2.42188 36.0012 3.9989 37.5782 5.93748 37.5782C7.46325 37.5782 8.75184 36.5956 9.23723 35.2345H13.8842L16.227 25.8595H18.828V33.1847C17.4669 33.6701 16.4843 34.9587 16.4843 36.4845C16.4843 38.423 18.0613 40.0001 19.9999 40.0001C21.9385 40.0001 23.5155 38.423 23.5155 36.4845C23.5155 34.9587 22.5329 33.6701 21.1718 33.1847V25.8595H23.7729L26.1156 35.2345H30.7626C31.248 36.5956 32.5365 37.5782 34.0623 37.5782C36.0009 37.5782 37.5779 36.0012 37.5779 34.0626C37.5779 32.124 36.0009 30.547 34.0623 30.547C32.5365 30.547 31.248 31.5296 30.7626 32.8907H27.9467L26.1878 25.8595H28.203V14.5546C28.203 12.8686 27.9216 11.2051 27.4345 9.60962H12.5619C12.0791 11.1943 11.7968 12.8512 11.7968 14.5546ZM19.9999 11.9534C21.9385 11.9534 23.5155 13.5304 23.5155 15.469C23.5155 17.4075 21.9385 18.9846 19.9999 18.9846C18.0613 18.9846 16.4843 17.4075 16.4843 15.469C16.4843 13.5304 18.0613 11.9534 19.9999 11.9534Z" fill="currentColor"/>
</g>
<defs>
<clipPath id="clip0_143_7910">
<rect width="40" height="40" fill="white"/>
</clipPath>
</defs>
</svg>
