<svg width="40" height="40" viewBox="0 0 40 40" fill="none" xmlns="http://www.w3.org/2000/svg">
<g clip-path="url(#clip0_143_8744)">
<path d="M19.3438 0.203167L19.1406 0.414104V2.5391V4.6641L19.3359 4.86723C19.7344 5.25786 20.4062 5.17192 20.6406 4.68754C20.7656 4.45317 20.7812 4.17192 20.7812 2.55473C20.7812 0.179729 20.7188 4.19617e-05 19.8984 4.19617e-05C19.625 4.19617e-05 19.5078 0.046917 19.3438 0.203167Z" fill="currentColor"/>
<path d="M6.78228 0.2813C6.4776 0.445362 6.30572 0.81255 6.36822 1.16411C6.40728 1.39849 6.67291 1.70317 7.9151 2.95317C8.74322 3.78911 9.50885 4.51567 9.62603 4.57817C10.3838 4.97661 11.1495 4.21099 10.751 3.45317C10.5792 3.13286 7.7276 0.335987 7.4776 0.242237C7.18853 0.132862 7.0401 0.140675 6.78228 0.2813Z" fill="currentColor"/>
<path d="M32.4136 0.218782C32.1636 0.328157 29.2183 3.25003 29.0933 3.50003C28.7495 4.22659 29.5073 4.95316 30.2183 4.57816C30.523 4.41409 33.4058 1.47659 33.4761 1.26566C33.562 0.984407 33.4605 0.593782 33.2495 0.398469C33.0542 0.218782 32.6245 0.125032 32.4136 0.218782Z" fill="currentColor"/>
<path d="M16.4844 6.60933C16.1016 6.79683 15.9609 6.82027 15.1953 6.82808C14.4922 6.8359 14.2734 6.86715 13.9766 6.99996C12.9062 7.49996 12.2656 8.60152 12.3672 9.78121C12.4062 10.2187 12.3906 10.3125 12.2969 10.3125C12.0781 10.3125 11.3984 10.7109 11.0859 11.0234C10.9062 11.2031 10.6719 11.539 10.5547 11.789C10.3828 12.1718 10.3516 12.3281 10.3516 12.9843C10.3516 13.625 10.3281 13.75 10.2266 13.75C9.98438 13.75 9.29688 14.1562 9 14.4843C8.59375 14.9296 8.39844 15.3125 8.28125 15.9218C8.17188 16.4687 8.26562 17.164 8.51562 17.6562L8.65625 17.9296L8.36719 18.0625C7.85938 18.3046 7.44531 18.7265 7.17188 19.2812C6.9375 19.7578 6.91406 19.8593 6.91406 20.5468C6.91406 21.3828 7.04688 21.7812 7.5 22.2968L7.75781 22.5859L6.49219 23.8593L5.21875 25.1328L4.85156 25.0234C4.625 24.9531 4.28125 24.9218 3.90625 24.9375C3.01562 24.9843 2.57031 25.2578 1.38281 26.4843C0.234375 27.6562 0.0546875 27.9921 0.0546875 29.0078C0.0546875 29.9453 0.289062 30.3359 1.625 31.664C2.59375 32.6328 2.74219 32.75 3.03125 32.789C3.4375 32.8437 3.71875 32.6796 3.875 32.289C4.0625 31.8515 3.92969 31.625 2.88281 30.5859C2.36719 30.0703 1.89062 29.5546 1.82812 29.4375C1.76562 29.3203 1.71875 29.0781 1.71875 28.8984C1.71875 28.5781 1.75781 28.5312 2.69531 27.5859L3.66406 26.6015H4.04688C4.375 26.6015 4.47656 26.6406 4.8125 26.9296C5.02344 27.1093 7.04688 29.1093 9.3125 31.3828C12.0469 34.125 13.4453 35.5781 13.4766 35.7265C13.6016 36.2109 13.4766 36.414 12.4766 37.4062C11.5312 38.3359 11.5 38.3593 11.1641 38.3593C10.9688 38.3593 10.7266 38.3046 10.625 38.2343C10.5156 38.164 9.98438 37.6562 9.42969 37.1171C8.44531 36.1484 8.42969 36.1328 8.07812 36.1328C7.77344 36.1328 7.6875 36.1718 7.48438 36.3984C7.27344 36.6328 7.25 36.7031 7.28906 37.0156C7.32812 37.3593 7.38281 37.4296 8.48438 38.5234C9.88281 39.8984 10.1406 40.0312 11.25 39.9843C12.2188 39.9453 12.4844 39.789 13.7188 38.5625C14.9062 37.3671 15.0859 37.0781 15.1406 36.1484C15.1719 35.6562 15.1484 35.4609 15 35.0703L14.8281 34.5859L16.3359 33.0703C17.4688 31.9453 17.9219 31.539 18.125 31.4843C18.2891 31.4375 19.0859 31.4296 20.1719 31.4609L21.9375 31.5078L23.5156 33.0859L25.0938 34.6718L24.9609 35.0781C24.7734 35.6406 24.8281 36.5468 25.0781 37.0781C25.3359 37.6171 27.1797 39.4687 27.6797 39.6875C28.5 40.0546 29.4297 40.0312 30.1641 39.6328C30.6641 39.3671 39.4531 30.5546 39.6875 30.0859C39.9219 29.6171 40.0156 28.9453 39.9219 28.4296C39.7812 27.6953 39.5547 27.3593 38.5234 26.3125C37.2734 25.0546 36.9453 24.8828 35.8984 24.8906C35.4375 24.8906 35.1016 24.9375 34.9141 25.0156L34.6328 25.1406L33.375 23.875L32.1094 22.6171L32.3828 22.2812C32.8203 21.7187 32.9922 21.1718 32.9531 20.3906C32.9297 19.8906 32.875 19.625 32.7344 19.3359C32.4688 18.7812 31.8438 18.1796 31.3359 17.9921L30.9141 17.8359L30.9062 17.1015C30.8984 16.4843 30.8672 16.2968 30.6953 15.9375C30.4219 15.3593 29.9297 14.875 29.3203 14.5937L28.8125 14.3515L28.8672 13.9765C28.9375 13.5 28.7891 12.8046 28.5312 12.3203C28.2656 11.8281 27.6719 11.2968 27.1797 11.1093L26.7891 10.9687L26.7734 10.1875C26.7578 9.46871 26.7344 9.37496 26.4922 8.92183C26 8.0234 25.3203 7.60152 24.1797 7.49215C23.7969 7.4609 22.3672 7.2109 21.0156 6.95308C19.3281 6.61715 18.2969 6.4609 17.7344 6.43746C16.9609 6.3984 16.8906 6.41402 16.4844 6.60933ZM19.5703 8.35933C20.5156 8.53902 21.3516 8.70308 21.4297 8.73433C21.5391 8.78121 21.3906 8.96871 20.5938 9.75777L19.625 10.7265L19.1172 10.3671C18.2969 9.78121 17.3438 8.60933 17.3438 8.17965C17.3438 7.98433 17.6172 7.99996 19.5703 8.35933ZM15.5312 8.53902C15.6406 8.59371 15.7891 8.81246 15.8906 9.06246C16.2188 9.87496 17.1641 11.0234 18.0469 11.6875C18.3828 11.9375 19.3281 12.4218 19.4844 12.4218C19.6406 12.4218 19.7969 12.9218 19.7422 13.25C19.6797 13.6328 19.4219 13.9453 19.0547 14.0937C18.4141 14.3515 18.375 14.3281 16.1562 12.125C14.0781 10.0625 13.9141 9.85152 14.0156 9.36715C14.1562 8.65621 14.9453 8.22652 15.5312 8.53902ZM24.6875 9.34371C25.1406 9.72652 25.2734 10.25 25.0469 10.6875C24.9844 10.8046 24.5781 11.25 24.1406 11.6796C23.2891 12.5156 23.125 12.75 23.125 13.1171C23.125 13.6015 23.7422 14.0156 24.2344 13.8671C24.3281 13.8281 24.6875 13.539 25.0156 13.2187C25.5703 12.6796 25.6484 12.6328 26 12.5937C26.7031 12.5312 27.1875 12.9687 27.1875 13.6796C27.1875 14.125 27.0156 14.375 25.9844 15.3828C25.5391 15.8281 25.2188 16.2109 25.1953 16.3359C25.125 16.6406 25.3359 17.0781 25.6172 17.2187C26.0859 17.4609 26.3828 17.3515 27.0312 16.6796C27.5391 16.1562 27.7812 16.0156 28.1641 16.0156C28.8594 16.0156 29.3828 16.6484 29.2578 17.3203C29.2188 17.539 29.0156 17.7968 28.3125 18.5156C27.3281 19.5234 27.2109 19.75 27.4531 20.2187C27.6094 20.5234 27.7969 20.625 28.2031 20.625C28.4922 20.625 28.5859 20.5781 29.0078 20.1718C29.6719 19.5468 29.8281 19.4531 30.2266 19.4531C31.0391 19.4531 31.5859 20.3046 31.2188 21C31.1562 21.1171 30.6641 21.6484 30.125 22.1875C29.0547 23.25 28.9141 23.4843 29.0625 23.9453C29.1797 24.3046 29.4062 24.4531 29.8516 24.4531C30.1641 24.4531 30.2656 24.4062 30.5781 24.125L30.9531 23.8046L32.1719 25.0234L33.3984 26.25L29.8281 29.8203L26.25 33.3984L25 32.1484L23.7578 30.9062L24.4141 30.2265C25.0469 29.5859 25.0781 29.5312 25.0781 29.2031C25.0781 28.8203 24.8984 28.5625 24.5469 28.4296C24.1953 28.2968 23.9062 28.4296 23.2734 29.0312C22.4297 29.8359 22.3359 29.8593 19.8281 29.8281C17.1172 29.7968 17.4375 29.664 15.3281 31.75L13.6719 33.3906L10.0781 29.8046L6.48438 26.2109L7.71875 24.9765L8.95312 23.7421L9.46094 23.9062C10.1562 24.1484 11.0391 24.1015 11.625 23.7968C12.4609 23.3671 12.9531 22.7343 13.125 21.8281L13.2188 21.3437L13.5938 21.2968C14.1094 21.2265 14.8516 20.8359 15.1953 20.4531C15.5469 20.0703 15.8281 19.4687 15.8984 18.9687C15.9531 18.6093 15.9531 18.6093 16.3125 18.5546C16.8125 18.4843 17.4141 18.2031 17.7969 17.8515C18.1797 17.5078 18.5703 16.7656 18.6406 16.25L18.6875 15.875L19.0547 15.8203C19.9219 15.7031 20.7812 15.0625 21.1797 14.2343C21.4375 13.6796 21.4766 12.7656 21.25 12.1171L21.0859 11.6171L22.0859 10.6015C23.3828 9.28902 23.5859 9.14058 24.0703 9.14058C24.3594 9.14058 24.5 9.18746 24.6875 9.34371ZM13.5391 12C13.8906 12.1796 16.6953 14.9765 16.8828 15.3281C17.0703 15.7031 17.0703 15.9453 16.8672 16.3359C16.75 16.5703 16.6172 16.6953 16.3516 16.8125C15.6953 17.1015 15.6328 17.0625 13.8047 15.25C12.9062 14.3593 12.125 13.539 12.0625 13.4218C11.8203 12.9531 12.0156 12.3359 12.5156 12.0312C12.8281 11.8437 13.2031 11.8281 13.5391 12ZM11.4688 15.4218C11.5859 15.4843 12.25 16.1093 12.9453 16.8125C13.9922 17.8671 14.2109 18.1328 14.2578 18.375C14.3359 18.789 14.0781 19.289 13.6797 19.5156C13.0391 19.875 12.7812 19.75 11.4141 18.4062C10.0938 17.1093 9.92188 16.8828 9.92188 16.4218C9.92188 15.6015 10.7656 15.0546 11.4688 15.4218ZM10.1406 19.5625C10.5078 19.7578 11.3828 20.7265 11.4688 21.039C11.6094 21.539 11.4219 21.9609 10.9375 22.2578C10.3828 22.5937 9.95312 22.4375 9.16406 21.625C8.375 20.8046 8.3125 20.3437 8.89844 19.75C9.16406 19.4921 9.25 19.4531 9.5625 19.4531C9.76562 19.4531 10.0234 19.5 10.1406 19.5625ZM36.3125 26.5937C36.4297 26.6562 36.9219 27.1093 37.4062 27.6015C38.2422 28.4531 38.2812 28.5078 38.2812 28.8203C38.2812 29 38.2344 29.2421 38.1719 29.3593C38.0312 29.6171 29.5625 38.0703 29.3203 38.1953C29.2266 38.2421 29.0156 38.2812 28.8438 38.2812C28.4531 38.2812 28.1406 38.0546 27.25 37.125C26.5391 36.3906 26.4062 36.1171 26.5234 35.6484C26.5859 35.3828 35.1484 26.7578 35.5078 26.5937C35.8125 26.4609 36.0547 26.4609 36.3125 26.5937Z" fill="currentColor"/>
<path d="M26.3047 26.0234C26.1172 26.1328 25.9375 26.5078 25.9375 26.7891C25.9375 26.9453 26.0234 27.1172 26.1641 27.2812C26.3594 27.5 26.4453 27.5391 26.7578 27.5391C27.0703 27.5391 27.1563 27.5 27.3516 27.2812C27.8438 26.7266 27.5078 25.9375 26.7813 25.9375C26.5938 25.9375 26.3828 25.9766 26.3047 26.0234Z" fill="currentColor"/>
<path d="M4.93848 33.7891C4.67285 34.0156 4.59473 34.2812 4.7041 34.6641C4.78223 34.9609 5.14941 35.2344 5.46973 35.2344C5.96973 35.2344 6.36816 34.7109 6.27441 34.1875C6.21191 33.875 5.8291 33.5938 5.46973 33.5938C5.2666 33.5938 5.09473 33.6562 4.93848 33.7891Z" fill="currentColor"/>
</g>
<defs>
<clipPath id="clip0_143_8744">
<rect width="40" height="40" fill="white"/>
</clipPath>
</defs>
</svg>
