<svg width="40" height="40" viewBox="0 0 40 40" fill="none" xmlns="http://www.w3.org/2000/svg">
<path d="M20.8351 3.03672C18.532 1.07812 15.4812 0 12.2453 0C9.00937 0 5.95937 1.07812 3.65625 3.03672C1.29844 5.04062 0 7.72187 0 10.5859C0 13.45 1.29844 16.1312 3.65625 18.1351C5.85468 20.0047 8.73437 21.0719 11.8062 21.1656L16.7469 25.3711C17.095 25.6689 17.5857 25.7333 17.9976 25.5429C18.4125 25.3508 18.6781 24.9359 18.6781 24.4789V19.5984C22.2828 17.6773 24.4914 14.2836 24.4914 10.5859C24.4914 7.72187 23.1929 5.04062 20.8351 3.03672ZM7.5578 11.7578C6.91093 11.7578 6.38593 11.2328 6.38593 10.5859C6.38593 9.93905 6.91093 9.41405 7.5578 9.41405C8.20546 9.41405 8.72968 9.93905 8.72968 10.5859C8.72968 11.2328 8.20546 11.7578 7.5578 11.7578ZM12.2453 11.7578C11.5984 11.7578 11.0734 11.2328 11.0734 10.5859C11.0734 9.93905 11.5984 9.41405 12.2453 9.41405C12.8922 9.41405 13.4172 9.93905 13.4172 10.5859C13.4172 11.2328 12.8922 11.7578 12.2453 11.7578ZM16.9328 11.7578C16.2859 11.7578 15.7609 11.2328 15.7609 10.5859C15.7609 9.93905 16.2859 9.41405 16.9328 9.41405C17.5805 9.41405 18.1047 9.93905 18.1047 10.5859C18.1047 11.2328 17.5805 11.7578 16.9328 11.7578Z" fill="currentColor"/>
<path d="M40 10.5851C40 13.4492 38.7015 16.1305 36.3437 18.1351C34.0406 20.0937 30.9906 21.1719 27.7547 21.1719C25.8031 21.1719 23.9156 20.7781 22.2195 20.0344C25.0475 17.7301 26.8609 14.2018 26.8352 10.5859C26.841 6.97109 25.176 3.58429 22.2188 1.1375C23.9148 0.39375 25.8023 0 27.7547 0C30.9906 0 34.0406 1.07812 36.3437 3.03593C38.7015 5.04062 40 7.72187 40 10.5851Z" fill="currentColor"/>
<path d="M38.0414 37.2262V38.9152C38.0414 39.5144 37.5555 40.0004 36.9562 40.0004H24.4375C23.8383 40.0004 23.3516 39.5144 23.3516 38.9152V37.2262C23.3516 35.1504 24.2555 33.2074 25.7602 31.8652C26.9516 33.2613 28.7227 34.148 30.6969 34.148C32.6711 34.148 34.4422 33.2613 35.6336 31.8652C37.1383 33.2074 38.0414 35.1504 38.0414 37.2262Z" fill="currentColor"/>
<path d="M2.57812 40H16.0953C16.7422 40 17.2672 39.475 17.2672 38.8281V38.3328C17.2672 35.8352 16.0562 33.5156 14.0859 32.0742C13.1625 33.0687 11.9312 33.7727 10.5445 34.0352V36.2937C10.5445 36.9406 10.0203 37.4656 9.37265 37.4656C9.36093 37.4656 9.34843 37.4656 9.33671 37.4648C8.70624 37.4461 8.20077 36.9289 8.20077 36.2937V34.0477C6.78515 33.7969 5.52734 33.0859 4.5875 32.0742C2.61719 33.5156 1.40625 35.8352 1.40625 38.3328V38.8281C1.40625 39.475 1.93125 40 2.57812 40Z" fill="currentColor"/>
<path d="M9.33906 31.8039C11.6244 31.8039 13.4829 29.9448 13.4829 27.6594C13.4829 25.3748 11.6244 23.5156 9.33906 23.5156C7.05375 23.5156 5.19531 25.3748 5.19531 27.6594C5.19523 29.9448 7.05367 31.8039 9.33906 31.8039Z" fill="currentColor"/>
<path d="M30.6984 31.8039C32.9837 31.8039 34.8423 29.9448 34.8423 27.6594C34.8423 25.3748 32.9838 23.5156 30.6984 23.5156C28.4131 23.5156 26.5547 25.3748 26.5547 27.6594C26.5547 29.9448 28.4131 31.8039 30.6984 31.8039Z" fill="currentColor"/>
</svg>
