<svg width="24" height="24" viewBox="0 0 24 24" fill="none" xmlns="http://www.w3.org/2000/svg">
<g clip-path="url(#clip0_140_5033)">
<path d="M8.49844 1.54688C7.87031 1.77187 7.3875 2.25937 7.16719 2.89687C7.09688 3.09375 7.07813 3.28594 7.07813 3.7125V4.26562H3.76406C0.590625 4.26562 0.440625 4.27031 0.309375 4.35469C0.239063 4.40156 0.135938 4.50469 0.0890625 4.575C0.0046875 4.70625 0 4.95469 0 12.7781C0 20.6016 0.0046875 20.8547 0.0890625 21.1031C0.309375 21.75 0.796875 22.2375 1.43906 22.4578C1.69688 22.5469 1.92188 22.5469 12 22.5469C22.0781 22.5469 22.3031 22.5469 22.5609 22.4578C23.2031 22.2375 23.6906 21.75 23.9109 21.1031C23.9953 20.8547 24 20.6016 24 12.8109C24 3.97031 24.0188 4.55156 23.7094 4.35938C23.5594 4.27031 23.4797 4.26562 20.2406 4.26562H16.9219V3.7125C16.9219 3.28594 16.9031 3.09375 16.8328 2.89687C16.6125 2.25 16.125 1.7625 15.4828 1.54219C15.2297 1.45781 15.0703 1.45312 11.9813 1.45781C8.94844 1.45781 8.72813 1.46719 8.49844 1.54688ZM15.1313 2.97656C15.3938 3.13594 15.4781 3.32812 15.5063 3.825L15.5297 4.26562H12H8.47031L8.49375 3.825C8.52656 3.22969 8.66719 3 9.07031 2.90156C9.15 2.88281 10.5094 2.86875 12.0938 2.87344C14.8875 2.88281 14.9813 2.8875 15.1313 2.97656ZM22.2656 5.70469C22.2656 5.82187 20.0813 12.2812 20.0063 12.3891C19.8 12.6797 19.8188 12.6797 17.5688 12.6937L15.5156 12.7078V12.225C15.5156 11.6953 15.4641 11.5594 15.2063 11.3859C15.075 11.3016 14.9297 11.2969 12 11.2969C9.07031 11.2969 8.925 11.3016 8.79375 11.3859C8.53594 11.5594 8.48438 11.6953 8.48438 12.225V12.7078L6.43594 12.6937C4.18125 12.6797 4.2 12.6797 3.99375 12.3891C3.91875 12.2812 1.73438 5.82187 1.73438 5.70469C1.73438 5.68594 6.35625 5.67188 12 5.67188C17.6484 5.67188 22.2656 5.68594 22.2656 5.70469ZM2.625 12.9562C2.80313 13.3266 3.19219 13.7062 3.6 13.9078L3.95625 14.0859L6.22031 14.1L8.48438 14.1141V14.5922C8.48438 15.1172 8.53594 15.2578 8.79375 15.4266C8.925 15.5109 9.07031 15.5156 12 15.5156C14.9297 15.5156 15.075 15.5109 15.2063 15.4266C15.4641 15.2578 15.5156 15.1172 15.5156 14.5922V14.1141L17.7797 14.1L20.0438 14.0859L20.4 13.9078C20.8078 13.7062 21.1969 13.3266 21.375 12.9562C21.4313 12.8297 21.7313 11.9859 22.0359 11.0859L22.5891 9.44531L22.5797 15.0234C22.5703 20.5125 22.5703 20.6062 22.4766 20.7562C22.425 20.8406 22.3078 20.9578 22.2188 21.0141L22.0547 21.1172H12C2.02969 21.1172 1.94531 21.1172 1.79063 21.0234C1.70625 20.9719 1.58906 20.8547 1.53281 20.7656L1.42969 20.6016L1.42031 15.0234L1.41094 9.44531L1.96406 11.0859C2.26875 11.9859 2.56875 12.8297 2.625 12.9562ZM14.1094 13.4062V14.1094H12H9.89062V13.4062V12.7031H12H14.1094V13.4062Z" fill="#151515"/>
</g>
<defs>
<clipPath id="clip0_140_5033">
<rect width="24" height="24" fill="white"/>
</clipPath>
</defs>
</svg>
