<svg width="24" height="24" viewBox="0 0 24 24" fill="none" xmlns="http://www.w3.org/2000/svg">
<path d="M11.2781 0.0703125C10.3688 0.323437 9.59531 1.10156 9.35156 2.01562C9.2625 2.34844 9.2625 3.08906 9.35156 3.42188C9.45 3.80156 9.67969 4.22812 9.91875 4.5C10.0406 4.63125 10.1297 4.74375 10.1203 4.75312C10.1109 4.7625 9.99844 4.80469 9.86719 4.84687C9.15938 5.07656 8.49375 5.70469 8.16563 6.44531C7.93125 6.98438 7.92188 7.09687 7.92188 9.52031V11.7891L8.03438 12.0234C8.24531 12.4781 8.625 12.7453 9.12656 12.7875L9.42188 12.8109V12.9609V13.1109L8.89688 13.2188C5.72344 13.8469 3.4125 15.5016 2.99531 17.4328L2.94375 17.6719H2.23125C1.54688 17.6719 1.51406 17.6766 1.41563 17.7797C1.35469 17.8453 1.3125 17.9484 1.3125 18.0328C1.3125 18.4125 1.44375 18.4688 2.29219 18.4688H2.95313L2.98125 18.5953C3.17344 19.4719 3.57656 20.1516 4.28438 20.7937C5.72344 22.0969 8.10469 22.9594 10.8234 23.1609L11.5781 23.2219V23.4141C11.5781 23.8219 11.7094 24 12 24C12.2906 24 12.4219 23.8219 12.4219 23.4141V23.2219L13.1766 23.1609C16.7719 22.8937 19.7438 21.4594 20.7094 19.5187C20.8359 19.2656 20.9391 18.9562 21.0188 18.6L21.0469 18.4688H21.7078C22.5609 18.4688 22.6875 18.4125 22.6875 18.0281C22.6875 17.9297 22.65 17.8406 22.5797 17.775C22.4766 17.6766 22.425 17.6719 21.7641 17.6719H21.0609L20.9766 17.3344C20.8172 16.6641 20.5172 16.1531 19.95 15.5672C19.35 14.9484 19.1203 14.8406 18.8672 15.0562C18.7781 15.1359 18.7453 15.2156 18.7406 15.3422C18.7359 15.5109 18.7641 15.5531 19.1625 15.9469C19.4016 16.1766 19.6594 16.4625 19.7391 16.575C19.9172 16.8328 20.1422 17.3156 20.1844 17.5172L20.2172 17.6719H19.3547C18.4266 17.6766 18.375 17.6859 18.2812 17.925C18.2203 18.0938 18.2672 18.2625 18.4078 18.375C18.5203 18.4594 18.6 18.4688 19.3688 18.4688H20.2125L20.1797 18.6234C20.1234 18.8766 19.9313 19.2609 19.7109 19.5703C18.6891 21 16.05 22.1437 13.3125 22.3359C13.0922 22.35 12.8063 22.3734 12.6703 22.3875L12.4313 22.4109L12.4125 21.6609C12.3984 20.9531 12.3938 20.9016 12.2906 20.8031C12.1453 20.6578 11.8547 20.6578 11.7094 20.8031C11.6063 20.9016 11.6016 20.9531 11.5875 21.6609L11.5688 22.4109L11.3297 22.3875C11.1938 22.3734 10.9078 22.35 10.6875 22.3359C8.80313 22.2 6.80156 21.5766 5.51719 20.7187C4.64063 20.1281 3.97031 19.3031 3.82031 18.6234L3.7875 18.4688H4.63125C5.4 18.4688 5.47969 18.4594 5.59219 18.375C5.73281 18.2625 5.77969 18.0938 5.71875 17.925C5.625 17.6859 5.57344 17.6766 4.64531 17.6719H3.7875L3.82031 17.4937C3.83906 17.4 3.92813 17.1703 4.01719 16.9922C4.65469 15.7219 6.33281 14.6719 8.64844 14.1047C8.95781 14.0297 9.25313 13.9688 9.30938 13.9688H9.4125L9.43125 15.6422L9.44531 17.3203L9.56719 17.5828C9.825 18.1359 10.3125 18.4406 10.9219 18.4406C11.2969 18.4406 11.6813 18.3141 11.8406 18.1359C11.8828 18.0891 11.9578 18.0469 12 18.0469C12.0422 18.0469 12.1172 18.0891 12.1594 18.1359C12.3188 18.3141 12.7031 18.4406 13.0781 18.4406C13.6875 18.4406 14.175 18.1359 14.4328 17.5828L14.5547 17.3203L14.5688 15.6469L14.5875 13.9688H14.6953C14.8547 13.9688 16.1906 14.3156 16.4906 14.4328C16.7672 14.5453 17.0531 14.5594 17.1703 14.4703C17.3625 14.3344 17.3438 13.9453 17.1375 13.8141C16.9266 13.6734 15.6375 13.3031 14.8969 13.1719C14.5828 13.1156 14.5781 13.1109 14.5781 12.9609V12.8109L14.8734 12.7875C15.375 12.7453 15.7547 12.4781 15.9656 12.0234L16.0781 11.7891V9.52031C16.0781 7.09687 16.0688 6.98438 15.8344 6.44531C15.5063 5.70469 14.8406 5.07656 14.1328 4.84687C14.0063 4.80469 13.8891 4.7625 13.8797 4.75312C13.8703 4.74375 13.9594 4.63125 14.0813 4.5C14.5031 4.02656 14.7188 3.42656 14.7188 2.71875C14.7188 1.9125 14.4891 1.35469 13.9266 0.792187C13.5469 0.417187 13.1766 0.196875 12.7031 0.0703125C12.3844 -0.0140629 11.5922 -0.0140629 11.2781 0.0703125ZM12.5063 0.867188C13.3359 1.11562 13.9219 1.88437 13.9219 2.71875C13.9219 3.95625 12.6656 4.91719 11.4984 4.57031C11.0203 4.42969 10.5609 4.06875 10.3219 3.64687C9.72188 2.5875 10.2891 1.2375 11.4844 0.867188C11.7656 0.782812 12.2109 0.782812 12.5063 0.867188ZM13.7484 5.57344C14.5078 5.83594 15.0891 6.49219 15.2344 7.26094C15.2625 7.40625 15.2813 8.35312 15.2813 9.525C15.2813 11.2641 15.2719 11.5641 15.2063 11.6953C15.1266 11.8641 14.9016 12 14.7 12H14.5828L14.5688 9.80156C14.5547 7.73906 14.55 7.59844 14.4656 7.50937C14.2688 7.28437 13.8844 7.36406 13.7859 7.64531C13.7484 7.75312 13.7344 9.17344 13.7344 12.4875C13.7344 17.0578 13.7297 17.1844 13.6406 17.3297C13.4016 17.7234 12.7781 17.7375 12.5297 17.3578C12.4547 17.2406 12.4453 17.0156 12.4219 14.7375L12.3984 12.2437L12.2859 12.1219C12.1266 11.9531 11.8734 11.9531 11.7141 12.1219L11.6016 12.2437L11.5781 14.7375C11.5547 17.0156 11.5453 17.2406 11.4703 17.3578C11.2219 17.7375 10.5984 17.7234 10.3594 17.3297C10.2703 17.1844 10.2656 17.0578 10.2656 12.4781C10.2656 7.33125 10.275 7.52812 9.99375 7.41094C9.7875 7.32656 9.60469 7.39687 9.50625 7.59844C9.43125 7.74375 9.42188 7.95469 9.42188 9.87656V12H9.3C9.09844 12 8.87344 11.8641 8.79375 11.6953C8.72813 11.5641 8.71875 11.2641 8.71875 9.525C8.71875 8.35312 8.7375 7.40625 8.76563 7.26094C8.91094 6.50156 9.4875 5.84531 10.2375 5.57812C10.4484 5.50312 10.6453 5.48906 11.9813 5.48906C13.3453 5.48438 13.5094 5.49375 13.7484 5.57344Z" fill="#151515"/>
<path d="M17.8219 14.2828C17.7422 14.3109 17.625 14.5499 17.625 14.6718C17.625 14.7281 17.6906 14.8359 17.7656 14.9156C17.8922 15.0374 17.9344 15.0562 18.0844 15.0328C18.3 14.9953 18.4219 14.8546 18.4219 14.6296C18.4219 14.3999 18.2672 14.2499 18.0422 14.2546C17.9531 14.2546 17.8547 14.2687 17.8219 14.2828Z" fill="#151515"/>
</svg>
