<svg width="24" height="24" viewBox="0 0 24 24" fill="none" xmlns="http://www.w3.org/2000/svg">
<path d="M11.9961 0.0890622L11.8836 0.178125L11.8695 2.22656L11.8555 4.27031L11.9961 4.40625C12.0898 4.50469 12.1789 4.54688 12.282 4.54688C12.3852 4.54688 12.4742 4.50469 12.568 4.40625L12.7086 4.27031L12.6945 2.22656L12.6805 0.178125L12.568 0.0890622C12.5023 0.0374999 12.3852 0 12.282 0C12.1789 0 12.0617 0.0374999 11.9961 0.0890622Z" fill="#151515"/>
<path d="M9.04297 2.05781C8.93047 2.14687 8.93047 2.15625 8.91641 3.20625L8.90234 4.26562L9.04297 4.40625C9.13672 4.50469 9.22578 4.54688 9.32891 4.54688C9.43203 4.54688 9.52109 4.50469 9.61484 4.40625L9.75547 4.26562L9.74141 3.20625C9.72734 2.15625 9.72734 2.14687 9.61484 2.05781C9.54922 2.00625 9.43203 1.96875 9.32891 1.96875C9.22578 1.96875 9.10859 2.00625 9.04297 2.05781Z" fill="#151515"/>
<path d="M14.9297 2.08601C14.8125 2.19851 14.8125 2.19851 14.8125 3.20632C14.8125 4.27976 14.8359 4.40632 15.0328 4.49539C15.225 4.58445 15.375 4.55632 15.5203 4.40632L15.6609 4.2657L15.6469 3.20632C15.6328 2.15632 15.6328 2.14695 15.5203 2.05789C15.3609 1.92664 15.0703 1.9407 14.9297 2.08601Z" fill="#151515"/>
<path d="M11.6246 5.25454C10.0496 5.45142 8.63864 6.25298 7.7152 7.48579C5.9527 9.83423 6.21989 13.0827 8.34333 15.1124C9.12614 15.8577 10.1058 16.3639 11.1886 16.5795C11.7465 16.6874 12.8152 16.6874 13.373 16.5795C15.7215 16.1108 17.5496 14.2358 17.9293 11.9061C18.3652 9.21079 16.9168 6.63267 14.409 5.62954C13.5886 5.30142 12.459 5.14673 11.6246 5.25454ZM13.4621 6.2061C14.3621 6.43579 15.1402 6.89517 15.8058 7.58423C16.4621 8.26392 16.884 9.06079 17.0715 9.97954C17.1465 10.3499 17.1605 10.5514 17.1418 11.1092C17.109 12.1217 16.8933 12.8155 16.3636 13.6264C15.1355 15.4827 12.8152 16.2936 10.7433 15.5905C9.18708 15.0608 8.04802 13.8608 7.5652 12.2483C7.38708 11.6624 7.35427 10.6311 7.4902 9.97954C7.6777 9.06548 8.0902 8.28735 8.74645 7.59829C9.52458 6.77798 10.4949 6.27173 11.6058 6.0936C12.0699 6.02329 12.9465 6.07485 13.4621 6.2061Z" fill="#151515"/>
<path d="M12.0098 7.25156C11.9067 7.29375 11.8129 7.5375 11.8129 7.77656C11.8129 7.99687 11.8036 8.01094 11.677 8.03906C11.4661 8.08594 11.0442 8.40937 10.8848 8.65312C10.6551 8.99531 10.5801 9.27656 10.6036 9.71719C10.6129 10.0078 10.6504 10.1672 10.7395 10.3594C10.9926 10.8984 11.5411 11.2734 12.1692 11.3297C12.5489 11.3625 12.7926 11.4703 12.9567 11.6859C13.2895 12.1219 13.1395 12.7406 12.6426 12.9797C12.3848 13.1062 12.1786 13.1062 11.9207 12.9797C11.6489 12.8484 11.4942 12.6328 11.4239 12.2906C11.3489 11.925 11.2457 11.8125 10.9926 11.8125C10.8473 11.8125 10.7723 11.8406 10.6926 11.925C10.5942 12.0281 10.5848 12.0797 10.6036 12.3609C10.6364 12.9422 11.0254 13.5094 11.5551 13.7437L11.8036 13.8516L11.8223 14.1516C11.8457 14.5031 11.9489 14.625 12.2301 14.625C12.5114 14.6203 12.6567 14.4469 12.6567 14.1V13.8937L12.9567 13.7625C13.3129 13.6125 13.6832 13.2469 13.8426 12.9047C13.927 12.7219 13.9457 12.5953 13.9457 12.2109C13.9457 11.7984 13.9317 11.7094 13.8192 11.475C13.5614 10.9219 13.0598 10.5797 12.3989 10.5094C12.1879 10.4859 11.9536 10.4297 11.8739 10.3875C11.5504 10.2234 11.3489 9.78281 11.4426 9.44531C11.5926 8.90156 12.1411 8.62969 12.6379 8.85469C12.9004 8.97187 13.0692 9.20625 13.1301 9.54375C13.2004 9.9 13.3176 10.0312 13.5567 10.0312C13.6879 10.0312 13.7723 9.99844 13.8614 9.90937C13.9739 9.79688 13.9786 9.76406 13.9598 9.47812C13.9364 9.13125 13.8145 8.8125 13.6082 8.55469C13.4489 8.35312 13.0739 8.09062 12.8348 8.01562C12.6614 7.96406 12.6567 7.95469 12.6567 7.75312C12.6567 7.52812 12.5957 7.37344 12.4739 7.27969C12.3989 7.22344 12.1223 7.20469 12.0098 7.25156Z" fill="#151515"/>
<path d="M1.82361 16.1015C1.7533 16.139 1.68298 16.2047 1.66423 16.2515C1.63611 16.3312 1.45798 22.0078 1.4533 23.0062C1.4533 23.7234 1.41111 23.7 2.6533 23.7375C3.19236 23.7515 3.9658 23.7797 4.36892 23.7937L5.10486 23.8218L5.25017 23.6812C5.36267 23.564 5.3908 23.4984 5.3908 23.3297C5.3908 23.2125 5.41892 23.1 5.45173 23.0765C5.47986 23.0484 5.72361 22.9172 5.98611 22.7812C6.75486 22.3875 6.57205 22.3687 9.51579 23.1937C10.8939 23.5828 12.1502 23.9203 12.3002 23.9484C12.7033 24.0234 13.7064 24.014 14.1424 23.9297C14.6158 23.8406 15.1314 23.6625 15.4408 23.489C16.0314 23.1562 22.397 19.0078 22.5189 18.8812C22.6924 18.6937 22.6642 18.5015 22.4111 18.1687C21.9611 17.5687 21.0939 17.264 20.3674 17.4515C20.208 17.4937 19.3595 17.864 18.4736 18.2859C17.0392 18.9609 16.8564 19.0359 16.8189 18.9656C16.6924 18.7406 16.3502 18.3843 16.0924 18.2062C15.483 17.789 15.2205 17.7468 12.8674 17.6765C11.2127 17.6297 11.2361 17.6343 10.3455 17.2031C9.64705 16.8656 9.11267 16.7062 8.43298 16.6312C7.6033 16.5375 6.61423 16.6922 5.8408 17.0343L5.5783 17.1515V16.7625C5.5783 16.4203 5.56423 16.3593 5.47048 16.2562C5.35798 16.139 5.34861 16.1343 4.3783 16.1062C3.83923 16.0922 3.07048 16.064 2.67205 16.0547C2.08142 16.0359 1.92205 16.0406 1.82361 16.1015ZM4.72517 16.9453C4.72986 16.95 4.70173 18.3093 4.65486 19.9593L4.57517 22.964L3.45017 22.9359C2.82673 22.9218 2.31111 22.9031 2.30173 22.8937C2.29236 22.8843 2.32048 21.6281 2.36267 20.1C2.40486 18.5718 2.43767 17.2218 2.43767 17.1V16.8797L3.57673 16.9078C4.20017 16.9218 4.7158 16.9406 4.72517 16.9453ZM8.96736 17.5734C9.16892 17.625 9.62829 17.8078 9.98454 17.9765C10.9689 18.4406 11.1002 18.464 12.8205 18.5156C14.8127 18.5765 14.9345 18.5859 15.258 18.7078C15.6377 18.8484 16.0689 19.275 16.2049 19.6406C16.2611 19.7812 16.2986 19.8984 16.2939 19.9031C16.2939 19.9031 15.3424 19.8797 14.1799 19.8422C13.022 19.8093 12.0236 19.7906 11.9627 19.8047C11.7892 19.8468 11.672 19.9968 11.672 20.1843C11.672 20.4 11.733 20.5078 11.8924 20.5687C11.972 20.6015 12.797 20.639 13.922 20.6718C17.1752 20.7562 16.8939 20.7609 17.0345 20.6297C17.1424 20.5265 17.1564 20.4797 17.1564 20.1797V19.8422L18.6236 19.1484C20.5736 18.2203 20.583 18.2156 20.9064 18.2484C21.1549 18.2672 21.5627 18.4312 21.5627 18.5062C21.5627 18.525 20.0814 19.5 18.2674 20.6718C15.2392 22.6359 14.9392 22.814 14.5314 22.9547C13.9455 23.1515 13.2752 23.2265 12.7408 23.1609C12.497 23.1328 11.3627 22.8375 9.82517 22.4062C8.43767 22.0172 7.17205 21.6843 7.01267 21.6703C6.62361 21.6375 6.11736 21.75 5.72361 21.9609L5.42361 22.1203L5.45642 21.15C5.47048 20.6156 5.49861 19.725 5.51267 19.1672L5.54548 18.1547L5.78455 18.014C6.19705 17.7656 6.73142 17.5828 7.35955 17.4656C7.6408 17.414 8.61111 17.4797 8.96736 17.5734Z" fill="#151515"/>
</svg>
