<svg width="24" height="24" viewBox="0 0 24 24" fill="none" xmlns="http://www.w3.org/2000/svg">
<path d="M11.2219 1.26563C8.01094 1.60313 5.4 3.92813 4.65938 7.10156C4.5375 7.61719 4.52813 7.74375 4.52344 8.60156C4.52344 9.6375 4.55625 9.83906 4.90781 10.7813C5.75156 13.0734 8.25938 16.5797 11.4422 19.9313C11.7422 20.25 11.7422 20.25 12 20.25C12.2578 20.25 12.2578 20.25 12.5578 19.9359C15.7406 16.5797 18.2484 13.0734 19.0922 10.7813C19.4438 9.83906 19.4766 9.6375 19.4766 8.60156C19.4719 7.74375 19.4625 7.61719 19.3406 7.10156C18.4688 3.36094 15 0.867189 11.2219 1.26563ZM13.0547 2.37188C14.5031 2.59688 15.9563 3.41719 16.9125 4.56094C17.7047 5.49844 18.1781 6.51094 18.3797 7.67813C18.6047 8.99531 18.4219 9.9 17.6016 11.5078C16.8375 13.0219 15.7172 14.6391 14.0203 16.6875C13.2984 17.5594 12.0609 18.9375 12 18.9375C11.9766 18.9375 11.6953 18.6469 11.3766 18.2953C8.12813 14.7141 5.97656 11.4 5.59688 9.38906C5.53594 9.075 5.52656 8.83594 5.55 8.39063C5.64375 6.40313 6.675 4.57031 8.34375 3.42656C9.74531 2.46563 11.3391 2.10938 13.0547 2.37188Z" fill="#151515"/>
<path d="M10.9924 3.825C9.72212 4.10625 8.62056 4.83281 7.88931 5.86406C7.01743 7.09219 6.75024 8.80312 7.20493 10.2422C8.13774 13.2 11.4471 14.6156 14.2268 13.2422C15.4643 12.6328 16.3831 11.5594 16.7956 10.2422C17.2456 8.80312 16.9924 7.14375 16.1299 5.89218C15.8674 5.5125 15.3471 4.97812 14.9534 4.68281C14.5971 4.42031 13.744 4.00781 13.2893 3.88593C12.7831 3.75 11.4846 3.71719 10.9924 3.825ZM13.1252 4.94531C13.8471 5.175 14.3346 5.47968 14.8643 6.02812C15.3706 6.55312 15.6612 7.07812 15.8581 7.80468C15.994 8.32968 15.994 9.19687 15.8487 9.72187C15.244 11.9578 12.9284 13.2328 10.7721 12.5156C8.81743 11.8641 7.66899 9.83906 8.13306 7.84219C8.43774 6.52969 9.47837 5.40469 10.7956 4.97344C11.2737 4.81406 11.5034 4.78594 12.1409 4.80468C12.619 4.81406 12.8018 4.84219 13.1252 4.94531Z" fill="#151515"/>
<path d="M7.54655 17.1375C5.82624 17.4937 4.45749 18.089 3.90905 18.7172C3.4028 19.2984 3.34655 19.964 3.75437 20.5734C4.92155 22.3265 10.4809 23.2453 15.4919 22.5234C19.1481 21.9937 21.0559 20.6906 20.3903 19.1812C19.9872 18.2718 18.4684 17.5078 16.2231 17.0906C15.7684 17.0015 15.5762 17.039 15.4216 17.2359C15.2481 17.4609 15.3231 17.8687 15.5622 18C15.6091 18.0234 15.9184 18.1031 16.2512 18.1687C17.5966 18.4406 18.7497 18.9 19.2137 19.3547C19.4153 19.5515 19.4528 19.6172 19.4528 19.7578C19.4528 20.1984 18.4872 20.7562 17.0575 21.1359C15.5809 21.525 14.0153 21.7031 11.9997 21.7031C10.7247 21.7031 9.93718 21.6562 8.88249 21.5109C6.42624 21.1781 4.54655 20.4093 4.54655 19.7343C4.54655 19.2281 5.98093 18.525 7.74812 18.1687C8.40437 18.0375 8.48874 18.0047 8.59655 17.85C8.69499 17.714 8.6903 17.3953 8.59655 17.2547C8.52155 17.1468 8.25905 17.0109 8.14655 17.0203C8.11374 17.0203 7.84187 17.0765 7.54655 17.1375Z" fill="#151515"/>
</svg>
