<svg width="20" height="20" viewBox="0 0 20 20" fill="none" xmlns="http://www.w3.org/2000/svg">
<path d="M15.4163 3.99268C13.2497 7.78434 9.07467 9.95934 4.72467 9.56768L2.08301 9.32601" stroke="currentColor" stroke-miterlimit="10" stroke-linecap="round" stroke-linejoin="round"/>
<path d="M4.58301 16.1427C6.74967 12.3511 10.9247 10.1761 15.2747 10.5677L17.9163 10.8094" stroke="currentColor" stroke-miterlimit="10" stroke-linecap="round" stroke-linejoin="round"/>
<path d="M10.0003 18.3341C14.6027 18.3341 18.3337 14.6032 18.3337 10.0008C18.3337 5.39844 14.6027 1.66748 10.0003 1.66748C5.39795 1.66748 1.66699 5.39844 1.66699 10.0008C1.66699 14.6032 5.39795 18.3341 10.0003 18.3341Z" stroke="currentColor" stroke-miterlimit="10" stroke-linecap="round" stroke-linejoin="round"/>
<path d="M6.3584 2.50098L9.0084 5.79264C10.7834 7.99264 12.0417 10.551 12.7084 13.2926L13.7167 17.451" stroke="currentColor" stroke-miterlimit="10" stroke-linecap="round" stroke-linejoin="round"/>
</svg>
