<svg width="21" height="20" viewBox="0 0 21 20" fill="none" xmlns="http://www.w3.org/2000/svg">
<path d="M8.39583 12.8542L9.3125 11.9375L7.375 10L9.29167 8.08333L8.375 7.16667L5.54167 10L8.39583 12.8542ZM12.6042 12.8542L15.4583 10L12.6042 7.14583L11.6875 8.0625L13.625 10L11.6875 11.9375L12.6042 12.8542ZM4.25 17.5C3.91667 17.5 3.625 17.375 3.375 17.125C3.125 16.875 3 16.5833 3 16.25V3.75C3 3.41667 3.125 3.125 3.375 2.875C3.625 2.625 3.91667 2.5 4.25 2.5H16.75C17.0833 2.5 17.375 2.625 17.625 2.875C17.875 3.125 18 3.41667 18 3.75V16.25C18 16.5833 17.875 16.875 17.625 17.125C17.375 17.375 17.0833 17.5 16.75 17.5H4.25ZM4.25 16.25H16.75V3.75H4.25V16.25Z" fill="currentColor"/>
</svg>
