<svg fill="none" height="20" viewBox="0 0 21 20" width="21" xmlns="http://www.w3.org/2000/svg" xmlns:xlink="http://www.w3.org/1999/xlink"><clipPath id="a"><path d="m.5 0h20v20h-20z"/></clipPath><g clip-path="url(#a)" fill="currentColor"><path d="m8.96153 0h-7.69228c-.424854 0-.76925.344396-.76925.769246v7.692334c0 .42485.344396.76924.76925.76924h7.69233c.42485 0 .76924-.34439.76924-.76924v-7.692334c-.00004-.42485-.34444-.769246-.76929-.769246zm-.7692 7.69233h-6.15388v-6.15388h6.15383v6.15388z"/><path d="m19.7311 0h-7.6923c-.4249 0-.7693.344396-.7693.769246v7.692334c0 .42485.3444.76924.7693.76924h7.6923c.4249 0 .7693-.34439.7693-.76924v-7.692334c-.0001-.42485-.3445-.769246-.7693-.769246zm-.7692 7.69233h-6.1539v-6.15388h6.1539z"/><path d="m8.96153 10.7692h-7.69228c-.424854 0-.76925.3444-.76925.7693v7.6923c0 .4249.344396.7692.76925.7692h7.69233c.42485 0 .76924-.3443.76924-.7692v-7.6923c-.00004-.4249-.34444-.7693-.76929-.7693zm-.7692 7.6924h-6.15388v-6.1539h6.15383v6.1539z"/><path d="m19.7311 10.769h-7.6923c-.4249 0-.7693.3444-.7693.7693v7.6923c0 .4249.3444.7693.7693.7693h7.6923c.4249 0 .7693-.3444.7693-.7693v-7.6923c-.0001-.4249-.3445-.7693-.7693-.7693zm-.7692 7.6924h-6.1539v-6.1539h6.1539z"/></g></svg>