<svg width="21" height="20" viewBox="0 0 21 20" fill="none" xmlns="http://www.w3.org/2000/svg">
<path d="M13.4798 12.4792L14.1465 11.8125L12.3132 9.97917C12.4659 9.74306 12.5944 9.49753 12.6986 9.24258C12.8027 8.98764 12.8548 8.71928 12.8548 8.4375C12.8548 7.64583 12.584 6.97917 12.0423 6.4375C11.5007 5.89583 10.834 5.625 10.0423 5.625C9.25065 5.625 8.58398 5.89635 8.04232 6.43906C7.50065 6.98179 7.22982 7.64845 7.22982 8.43906C7.22982 9.22969 7.50065 9.89583 8.04232 10.4375C8.58398 10.9792 9.25065 11.25 10.0423 11.25C10.3491 11.25 10.6376 11.1979 10.9078 11.0938C11.178 10.9896 11.4432 10.8611 11.7032 10.7083L13.4798 12.4792ZM10.0432 10.2083C9.55651 10.2083 9.13954 10.035 8.79232 9.68842C8.4451 9.34182 8.27148 8.92515 8.27148 8.43842C8.27148 7.95169 8.44488 7.53472 8.79167 7.1875C9.13846 6.84028 9.55535 6.66667 10.0423 6.66667C10.5284 6.66667 10.9451 6.83997 11.2923 7.18658C11.6395 7.53318 11.8132 7.94985 11.8132 8.43658C11.8132 8.92331 11.6398 9.34028 11.2932 9.6875C10.9466 10.0347 10.53 10.2083 10.0432 10.2083ZM1.95898 17.5C1.7819 17.5 1.63346 17.4398 1.51367 17.3193C1.39388 17.1988 1.33398 17.0495 1.33398 16.8714C1.33398 16.6932 1.39388 16.5451 1.51367 16.4271C1.63346 16.309 1.7819 16.25 1.95898 16.25H19.0423C19.2194 16.25 19.3678 16.3102 19.4876 16.4307C19.6074 16.5512 19.6673 16.7005 19.6673 16.8786C19.6673 17.0568 19.6074 17.2049 19.4876 17.3229C19.3678 17.441 19.2194 17.5 19.0423 17.5H1.95898ZM3.41732 15C3.08398 15 2.79232 14.875 2.54232 14.625C2.29232 14.375 2.16732 14.0833 2.16732 13.75V3.75C2.16732 3.41667 2.29232 3.125 2.54232 2.875C2.79232 2.625 3.08398 2.5 3.41732 2.5H17.584C17.9173 2.5 18.209 2.625 18.459 2.875C18.709 3.125 18.834 3.41667 18.834 3.75V13.75C18.834 14.0833 18.709 14.375 18.459 14.625C18.209 14.875 17.9173 15 17.584 15H3.41732ZM3.41732 13.75H17.584V3.75H3.41732V13.75Z" fill="currentColor"/>
</svg>
