<svg width="21" height="20" viewBox="0 0 21 20" fill="none" xmlns="http://www.w3.org/2000/svg">
<g clip-path="url(#clip0_140_2823)">
<path d="M16.1458 7.08332L12.9167 3.85416L14.375 2.39582C14.6111 2.15971 14.9028 2.04166 15.25 2.04166C15.5972 2.04166 15.8889 2.15971 16.125 2.39582L17.6042 3.87499C17.8403 4.1111 17.9583 4.40277 17.9583 4.74999C17.9583 5.09721 17.8403 5.38888 17.6042 5.62499L16.1458 7.08332ZM3 17V13.75L7.04167 9.70832L2.4375 5.08332L6.0625 1.41666L10.7083 6.06249L12.9167 3.85416L16.1458 7.08332L13.9375 9.29166L18.5833 13.9375L14.9375 17.5417L10.3125 12.9375L6.25 17H3ZM7.9375 8.81249L9.8125 6.93749L8.29167 5.41666L7.29167 6.41666L6.41667 5.54166L7.41667 4.54166L6.08333 3.20832L4.20833 5.08332L7.9375 8.81249ZM14.8958 15.7917L16.7708 13.9167L15.4375 12.5833L14.4375 13.5833L13.5625 12.7083L14.5625 11.7083L13.0417 10.1875L11.1667 12.0625L14.8958 15.7917ZM4.25 15.75H5.70833L14.3542 7.10416L12.8958 5.64582L4.25 14.2917V15.75Z" fill="currentColor"/>
</g>
<defs>
<clipPath id="clip0_140_2823">
<rect width="20" height="20" fill="white" transform="translate(0.5)"/>
</clipPath>
</defs>
</svg>
