<svg width="17" height="16" viewBox="0 0 17 16" fill="none" xmlns="http://www.w3.org/2000/svg">
<path d="M8.50131 15.3327C7.05091 15.3327 5.63308 14.9026 4.42712 14.0968C3.22116 13.291 2.28123 12.1457 1.72619 10.8057C1.17115 9.46571 1.02592 7.99122 1.30888 6.56869C1.59184 5.14616 2.29027 3.83949 3.31586 2.8139C4.34144 1.78832 5.64812 1.08989 7.07064 0.806927C8.49317 0.523969 9.96766 0.669193 11.3077 1.22424C12.6476 1.77928 13.793 2.71921 14.5988 3.92517C15.4045 5.13113 15.8346 6.54896 15.8346 7.99935C15.8346 9.94427 15.062 11.8095 13.6868 13.1848C12.3115 14.5601 10.4462 15.3327 8.50131 15.3327ZM8.50131 1.99935C7.31462 1.99935 6.15458 2.35125 5.16788 3.01053C4.18119 3.66982 3.41215 4.60689 2.95803 5.70325C2.5039 6.79961 2.38508 8.00601 2.61659 9.16989C2.84811 10.3338 3.41955 11.4029 4.25866 12.242C5.09778 13.0811 6.16688 13.6526 7.33076 13.8841C8.49465 14.1156 9.70105 13.9968 10.7974 13.5426C11.8938 13.0885 12.8308 12.3195 13.4901 11.3328C14.1494 10.3461 14.5013 9.18604 14.5013 7.99935C14.5013 6.40805 13.8692 4.88193 12.7439 3.75671C11.6187 2.63149 10.0926 1.99935 8.50131 1.99935ZM10.448 10.7194C10.3602 10.7199 10.2733 10.703 10.192 10.6699C10.1108 10.6367 10.0369 10.5878 9.97464 10.526L8.02797 8.57269C7.90481 8.44851 7.83538 8.28091 7.83464 8.10602V3.99935C7.83464 3.82254 7.90488 3.65297 8.0299 3.52795C8.15493 3.40292 8.32449 3.33269 8.50131 3.33269C8.67812 3.33269 8.84769 3.40292 8.97271 3.52795C9.09773 3.65297 9.16797 3.82254 9.16797 3.99935V7.82602L10.9213 9.57935C10.9838 9.64133 11.0334 9.71506 11.0672 9.7963C11.1011 9.87754 11.1185 9.96468 11.1185 10.0527C11.1185 10.1407 11.1011 10.2278 11.0672 10.3091C11.0334 10.3903 10.9838 10.464 10.9213 10.526C10.859 10.5878 10.7851 10.6367 10.7039 10.6699C10.6227 10.703 10.5357 10.7199 10.448 10.7194Z" fill="currentColor"/>
</svg>
