<svg width="20" height="21" viewBox="0 0 20 21" fill="none" xmlns="http://www.w3.org/2000/svg">
<path d="M18.7146 5.4987C18.0729 5.79036 17.3813 5.98203 16.6646 6.0737C17.3979 5.63203 17.9646 4.93203 18.2313 4.09036C17.5396 4.50703 16.7729 4.7987 15.9646 4.96536C15.3062 4.2487 14.3813 3.83203 13.3313 3.83203C11.3729 3.83203 9.77292 5.43203 9.77292 7.40703C9.77292 7.69036 9.80625 7.96536 9.86458 8.2237C6.89792 8.0737 4.25625 6.6487 2.49792 4.49036C2.18958 5.01536 2.01458 5.63203 2.01458 6.28203C2.01458 7.5237 2.63958 8.6237 3.60625 9.2487C3.01458 9.2487 2.46458 9.08203 1.98125 8.83203V8.85703C1.98125 10.5904 3.21458 12.0404 4.84792 12.3654C4.32352 12.5089 3.773 12.5288 3.23958 12.4237C3.46592 13.1341 3.9092 13.7557 4.5071 14.2011C5.105 14.6466 5.82746 14.8934 6.57292 14.907C5.30928 15.9074 3.74291 16.4481 2.13125 16.4404C1.84792 16.4404 1.56458 16.4237 1.28125 16.3904C2.86458 17.407 4.74792 17.9987 6.76458 17.9987C13.3313 17.9987 16.9396 12.5487 16.9396 7.8237C16.9396 7.66536 16.9396 7.51536 16.9312 7.35703C17.6313 6.85703 18.2312 6.2237 18.7146 5.4987Z" fill="currentColor"/>
</svg>
