<svg width="20" height="20" viewBox="0 0 20 20" fill="none" xmlns="http://www.w3.org/2000/svg">
<path d="M5.75033 17.1675C7.00033 17.9175 8.50033 18.3341 10.0003 18.3341C14.5837 18.3341 18.3337 14.5841 18.3337 10.0008C18.3337 5.41748 14.5837 1.66748 10.0003 1.66748C5.41699 1.66748 1.66699 5.41748 1.66699 10.0008C1.66699 11.5008 2.08366 12.9175 2.75033 14.1675L2.10744 16.6401C1.91271 17.3891 2.60592 18.0659 3.34998 17.8533L5.75033 17.1675Z" stroke="currentColor" stroke-miterlimit="10" stroke-linecap="round" stroke-linejoin="round"/>
<path d="M13.75 12.3747C13.75 12.5097 13.72 12.6485 13.6561 12.7835C13.5923 12.9185 13.5096 13.046 13.4007 13.166C13.2167 13.3685 13.0139 13.5147 12.7848 13.6085C12.5595 13.7022 12.3153 13.751 12.0525 13.751C11.6694 13.751 11.26 13.661 10.8281 13.4772C10.3962 13.2935 9.96432 13.046 9.53618 12.7347C9.10428 12.4197 8.69492 12.071 8.30433 11.6847C7.9175 11.2947 7.56823 10.886 7.25651 10.4585C6.94855 10.031 6.70068 9.60348 6.52041 9.17973C6.34014 8.75223 6.25 8.34348 6.25 7.95348C6.25 7.69848 6.29507 7.45473 6.3852 7.22973C6.47534 7.00098 6.61805 6.79098 6.8171 6.60348C7.05746 6.36723 7.32036 6.25098 7.59827 6.25098C7.70343 6.25098 7.80859 6.27348 7.90248 6.31848C8.00013 6.36348 8.0865 6.43098 8.15411 6.52848L9.02541 7.75473C9.09301 7.84848 9.14184 7.93473 9.17564 8.01723C9.20944 8.09598 9.22822 8.17473 9.22822 8.24598C9.22822 8.33598 9.20193 8.42598 9.14935 8.51223C9.10053 8.59848 9.02917 8.68848 8.93903 8.77848L8.65361 9.07473C8.61229 9.11598 8.59352 9.16473 8.59352 9.22473C8.59352 9.25473 8.59727 9.28098 8.60478 9.31098C8.61605 9.34098 8.62732 9.36348 8.63483 9.38598C8.70243 9.50973 8.81885 9.67098 8.9841 9.86598C9.1531 10.061 9.33337 10.2597 9.52867 10.4585C9.73147 10.6572 9.92677 10.841 10.1258 11.0097C10.3211 11.1747 10.4826 11.2872 10.6103 11.3547C10.6291 11.3622 10.6516 11.3735 10.6779 11.3847C10.7079 11.396 10.738 11.3997 10.7718 11.3997C10.8356 11.3997 10.8845 11.3772 10.9258 11.336L11.2112 11.0547C11.3051 10.961 11.3952 10.8897 11.4816 10.8447C11.568 10.7922 11.6544 10.766 11.7482 10.766C11.8196 10.766 11.8947 10.781 11.9773 10.8147C12.06 10.8485 12.1463 10.8972 12.2402 10.961L13.4834 11.8422C13.581 11.9097 13.6486 11.9885 13.6899 12.0822C13.7275 12.176 13.75 12.2697 13.75 12.3747Z" stroke="currentColor" stroke-miterlimit="10"/>
</svg>
